# ALMNSY original procedural source; centimetres, Z up
o SM_Chair
v -26.33333 -26.33333 43.00000
v -26.33333 26.33333 43.00000
v 26.33333 26.33333 43.00000
v 26.33333 -26.33333 43.00000
v -26.33333 -26.33333 53.00000
v 26.33333 -26.33333 53.00000
v 26.33333 26.33333 53.00000
v -26.33333 26.33333 53.00000
v -26.33333 -26.33333 43.00000
v -26.33333 -28.00000 44.66667
v -28.00000 -26.33333 44.66667
v -26.33333 -26.33333 43.00000
v 26.33333 -26.33333 43.00000
v 26.33333 -28.00000 44.66667
v -26.33333 -28.00000 44.66667
v 26.33333 -26.33333 43.00000
v 28.00000 -26.33333 44.66667
v 26.33333 -28.00000 44.66667
v 26.33333 -26.33333 43.00000
v 26.33333 26.33333 43.00000
v 28.00000 26.33333 44.66667
v 28.00000 -26.33333 44.66667
v 26.33333 26.33333 43.00000
v 26.33333 28.00000 44.66667
v 28.00000 26.33333 44.66667
v 26.33333 26.33333 43.00000
v -26.33333 26.33333 43.00000
v -26.33333 28.00000 44.66667
v 26.33333 28.00000 44.66667
v -26.33333 26.33333 43.00000
v -28.00000 26.33333 44.66667
v -26.33333 28.00000 44.66667
v -26.33333 26.33333 43.00000
v -26.33333 -26.33333 43.00000
v -28.00000 -26.33333 44.66667
v -28.00000 26.33333 44.66667
v -28.00000 -26.33333 44.66667
v -26.33333 -28.00000 44.66667
v -26.33333 -28.00000 51.33333
v -28.00000 -26.33333 51.33333
v -26.33333 -28.00000 44.66667
v 26.33333 -28.00000 44.66667
v 26.33333 -28.00000 51.33333
v -26.33333 -28.00000 51.33333
v 26.33333 -28.00000 44.66667
v 28.00000 -26.33333 44.66667
v 28.00000 -26.33333 51.33333
v 26.33333 -28.00000 51.33333
v 28.00000 -26.33333 44.66667
v 28.00000 26.33333 44.66667
v 28.00000 26.33333 51.33333
v 28.00000 -26.33333 51.33333
v 28.00000 26.33333 44.66667
v 26.33333 28.00000 44.66667
v 26.33333 28.00000 51.33333
v 28.00000 26.33333 51.33333
v 26.33333 28.00000 44.66667
v -26.33333 28.00000 44.66667
v -26.33333 28.00000 51.33333
v 26.33333 28.00000 51.33333
v -26.33333 28.00000 44.66667
v -28.00000 26.33333 44.66667
v -28.00000 26.33333 51.33333
v -26.33333 28.00000 51.33333
v -28.00000 26.33333 44.66667
v -28.00000 -26.33333 44.66667
v -28.00000 -26.33333 51.33333
v -28.00000 26.33333 51.33333
v -28.00000 -26.33333 51.33333
v -26.33333 -28.00000 51.33333
v -26.33333 -26.33333 53.00000
v -26.33333 -28.00000 51.33333
v 26.33333 -28.00000 51.33333
v 26.33333 -26.33333 53.00000
v -26.33333 -26.33333 53.00000
v 26.33333 -28.00000 51.33333
v 28.00000 -26.33333 51.33333
v 26.33333 -26.33333 53.00000
v 28.00000 -26.33333 51.33333
v 28.00000 26.33333 51.33333
v 26.33333 26.33333 53.00000
v 26.33333 -26.33333 53.00000
v 28.00000 26.33333 51.33333
v 26.33333 28.00000 51.33333
v 26.33333 26.33333 53.00000
v 26.33333 28.00000 51.33333
v -26.33333 28.00000 51.33333
v -26.33333 26.33333 53.00000
v 26.33333 26.33333 53.00000
v -26.33333 28.00000 51.33333
v -28.00000 26.33333 51.33333
v -26.33333 26.33333 53.00000
v -28.00000 26.33333 51.33333
v -28.00000 -26.33333 51.33333
v -26.33333 -26.33333 53.00000
v -26.33333 26.33333 53.00000
v -23.50000 -23.50000 0.00000
v -23.50000 -18.50000 0.00000
v -18.50000 -18.50000 0.00000
v -18.50000 -23.50000 0.00000
v -23.50000 -23.50000 46.00000
v -18.50000 -23.50000 46.00000
v -18.50000 -18.50000 46.00000
v -23.50000 -18.50000 46.00000
v -23.50000 -23.50000 0.00000
v -23.50000 -24.50000 1.00000
v -24.50000 -23.50000 1.00000
v -23.50000 -23.50000 0.00000
v -18.50000 -23.50000 0.00000
v -18.50000 -24.50000 1.00000
v -23.50000 -24.50000 1.00000
v -18.50000 -23.50000 0.00000
v -17.50000 -23.50000 1.00000
v -18.50000 -24.50000 1.00000
v -18.50000 -23.50000 0.00000
v -18.50000 -18.50000 0.00000
v -17.50000 -18.50000 1.00000
v -17.50000 -23.50000 1.00000
v -18.50000 -18.50000 0.00000
v -18.50000 -17.50000 1.00000
v -17.50000 -18.50000 1.00000
v -18.50000 -18.50000 0.00000
v -23.50000 -18.50000 0.00000
v -23.50000 -17.50000 1.00000
v -18.50000 -17.50000 1.00000
v -23.50000 -18.50000 0.00000
v -24.50000 -18.50000 1.00000
v -23.50000 -17.50000 1.00000
v -23.50000 -18.50000 0.00000
v -23.50000 -23.50000 0.00000
v -24.50000 -23.50000 1.00000
v -24.50000 -18.50000 1.00000
v -24.50000 -23.50000 1.00000
v -23.50000 -24.50000 1.00000
v -23.50000 -24.50000 45.00000
v -24.50000 -23.50000 45.00000
v -23.50000 -24.50000 1.00000
v -18.50000 -24.50000 1.00000
v -18.50000 -24.50000 45.00000
v -23.50000 -24.50000 45.00000
v -18.50000 -24.50000 1.00000
v -17.50000 -23.50000 1.00000
v -17.50000 -23.50000 45.00000
v -18.50000 -24.50000 45.00000
v -17.50000 -23.50000 1.00000
v -17.50000 -18.50000 1.00000
v -17.50000 -18.50000 45.00000
v -17.50000 -23.50000 45.00000
v -17.50000 -18.50000 1.00000
v -18.50000 -17.50000 1.00000
v -18.50000 -17.50000 45.00000
v -17.50000 -18.50000 45.00000
v -18.50000 -17.50000 1.00000
v -23.50000 -17.50000 1.00000
v -23.50000 -17.50000 45.00000
v -18.50000 -17.50000 45.00000
v -23.50000 -17.50000 1.00000
v -24.50000 -18.50000 1.00000
v -24.50000 -18.50000 45.00000
v -23.50000 -17.50000 45.00000
v -24.50000 -18.50000 1.00000
v -24.50000 -23.50000 1.00000
v -24.50000 -23.50000 45.00000
v -24.50000 -18.50000 45.00000
v -24.50000 -23.50000 45.00000
v -23.50000 -24.50000 45.00000
v -23.50000 -23.50000 46.00000
v -23.50000 -24.50000 45.00000
v -18.50000 -24.50000 45.00000
v -18.50000 -23.50000 46.00000
v -23.50000 -23.50000 46.00000
v -18.50000 -24.50000 45.00000
v -17.50000 -23.50000 45.00000
v -18.50000 -23.50000 46.00000
v -17.50000 -23.50000 45.00000
v -17.50000 -18.50000 45.00000
v -18.50000 -18.50000 46.00000
v -18.50000 -23.50000 46.00000
v -17.50000 -18.50000 45.00000
v -18.50000 -17.50000 45.00000
v -18.50000 -18.50000 46.00000
v -18.50000 -17.50000 45.00000
v -23.50000 -17.50000 45.00000
v -23.50000 -18.50000 46.00000
v -18.50000 -18.50000 46.00000
v -23.50000 -17.50000 45.00000
v -24.50000 -18.50000 45.00000
v -23.50000 -18.50000 46.00000
v -24.50000 -18.50000 45.00000
v -24.50000 -23.50000 45.00000
v -23.50000 -23.50000 46.00000
v -23.50000 -18.50000 46.00000
v -23.50000 18.50000 0.00000
v -23.50000 23.50000 0.00000
v -18.50000 23.50000 0.00000
v -18.50000 18.50000 0.00000
v -23.50000 18.50000 46.00000
v -18.50000 18.50000 46.00000
v -18.50000 23.50000 46.00000
v -23.50000 23.50000 46.00000
v -23.50000 18.50000 0.00000
v -23.50000 17.50000 1.00000
v -24.50000 18.50000 1.00000
v -23.50000 18.50000 0.00000
v -18.50000 18.50000 0.00000
v -18.50000 17.50000 1.00000
v -23.50000 17.50000 1.00000
v -18.50000 18.50000 0.00000
v -17.50000 18.50000 1.00000
v -18.50000 17.50000 1.00000
v -18.50000 18.50000 0.00000
v -18.50000 23.50000 0.00000
v -17.50000 23.50000 1.00000
v -17.50000 18.50000 1.00000
v -18.50000 23.50000 0.00000
v -18.50000 24.50000 1.00000
v -17.50000 23.50000 1.00000
v -18.50000 23.50000 0.00000
v -23.50000 23.50000 0.00000
v -23.50000 24.50000 1.00000
v -18.50000 24.50000 1.00000
v -23.50000 23.50000 0.00000
v -24.50000 23.50000 1.00000
v -23.50000 24.50000 1.00000
v -23.50000 23.50000 0.00000
v -23.50000 18.50000 0.00000
v -24.50000 18.50000 1.00000
v -24.50000 23.50000 1.00000
v -24.50000 18.50000 1.00000
v -23.50000 17.50000 1.00000
v -23.50000 17.50000 45.00000
v -24.50000 18.50000 45.00000
v -23.50000 17.50000 1.00000
v -18.50000 17.50000 1.00000
v -18.50000 17.50000 45.00000
v -23.50000 17.50000 45.00000
v -18.50000 17.50000 1.00000
v -17.50000 18.50000 1.00000
v -17.50000 18.50000 45.00000
v -18.50000 17.50000 45.00000
v -17.50000 18.50000 1.00000
v -17.50000 23.50000 1.00000
v -17.50000 23.50000 45.00000
v -17.50000 18.50000 45.00000
v -17.50000 23.50000 1.00000
v -18.50000 24.50000 1.00000
v -18.50000 24.50000 45.00000
v -17.50000 23.50000 45.00000
v -18.50000 24.50000 1.00000
v -23.50000 24.50000 1.00000
v -23.50000 24.50000 45.00000
v -18.50000 24.50000 45.00000
v -23.50000 24.50000 1.00000
v -24.50000 23.50000 1.00000
v -24.50000 23.50000 45.00000
v -23.50000 24.50000 45.00000
v -24.50000 23.50000 1.00000
v -24.50000 18.50000 1.00000
v -24.50000 18.50000 45.00000
v -24.50000 23.50000 45.00000
v -24.50000 18.50000 45.00000
v -23.50000 17.50000 45.00000
v -23.50000 18.50000 46.00000
v -23.50000 17.50000 45.00000
v -18.50000 17.50000 45.00000
v -18.50000 18.50000 46.00000
v -23.50000 18.50000 46.00000
v -18.50000 17.50000 45.00000
v -17.50000 18.50000 45.00000
v -18.50000 18.50000 46.00000
v -17.50000 18.50000 45.00000
v -17.50000 23.50000 45.00000
v -18.50000 23.50000 46.00000
v -18.50000 18.50000 46.00000
v -17.50000 23.50000 45.00000
v -18.50000 24.50000 45.00000
v -18.50000 23.50000 46.00000
v -18.50000 24.50000 45.00000
v -23.50000 24.50000 45.00000
v -23.50000 23.50000 46.00000
v -18.50000 23.50000 46.00000
v -23.50000 24.50000 45.00000
v -24.50000 23.50000 45.00000
v -23.50000 23.50000 46.00000
v -24.50000 23.50000 45.00000
v -24.50000 18.50000 45.00000
v -23.50000 18.50000 46.00000
v -23.50000 23.50000 46.00000
v 18.50000 -23.50000 0.00000
v 18.50000 -18.50000 0.00000
v 23.50000 -18.50000 0.00000
v 23.50000 -23.50000 0.00000
v 18.50000 -23.50000 46.00000
v 23.50000 -23.50000 46.00000
v 23.50000 -18.50000 46.00000
v 18.50000 -18.50000 46.00000
v 18.50000 -23.50000 0.00000
v 18.50000 -24.50000 1.00000
v 17.50000 -23.50000 1.00000
v 18.50000 -23.50000 0.00000
v 23.50000 -23.50000 0.00000
v 23.50000 -24.50000 1.00000
v 18.50000 -24.50000 1.00000
v 23.50000 -23.50000 0.00000
v 24.50000 -23.50000 1.00000
v 23.50000 -24.50000 1.00000
v 23.50000 -23.50000 0.00000
v 23.50000 -18.50000 0.00000
v 24.50000 -18.50000 1.00000
v 24.50000 -23.50000 1.00000
v 23.50000 -18.50000 0.00000
v 23.50000 -17.50000 1.00000
v 24.50000 -18.50000 1.00000
v 23.50000 -18.50000 0.00000
v 18.50000 -18.50000 0.00000
v 18.50000 -17.50000 1.00000
v 23.50000 -17.50000 1.00000
v 18.50000 -18.50000 0.00000
v 17.50000 -18.50000 1.00000
v 18.50000 -17.50000 1.00000
v 18.50000 -18.50000 0.00000
v 18.50000 -23.50000 0.00000
v 17.50000 -23.50000 1.00000
v 17.50000 -18.50000 1.00000
v 17.50000 -23.50000 1.00000
v 18.50000 -24.50000 1.00000
v 18.50000 -24.50000 45.00000
v 17.50000 -23.50000 45.00000
v 18.50000 -24.50000 1.00000
v 23.50000 -24.50000 1.00000
v 23.50000 -24.50000 45.00000
v 18.50000 -24.50000 45.00000
v 23.50000 -24.50000 1.00000
v 24.50000 -23.50000 1.00000
v 24.50000 -23.50000 45.00000
v 23.50000 -24.50000 45.00000
v 24.50000 -23.50000 1.00000
v 24.50000 -18.50000 1.00000
v 24.50000 -18.50000 45.00000
v 24.50000 -23.50000 45.00000
v 24.50000 -18.50000 1.00000
v 23.50000 -17.50000 1.00000
v 23.50000 -17.50000 45.00000
v 24.50000 -18.50000 45.00000
v 23.50000 -17.50000 1.00000
v 18.50000 -17.50000 1.00000
v 18.50000 -17.50000 45.00000
v 23.50000 -17.50000 45.00000
v 18.50000 -17.50000 1.00000
v 17.50000 -18.50000 1.00000
v 17.50000 -18.50000 45.00000
v 18.50000 -17.50000 45.00000
v 17.50000 -18.50000 1.00000
v 17.50000 -23.50000 1.00000
v 17.50000 -23.50000 45.00000
v 17.50000 -18.50000 45.00000
v 17.50000 -23.50000 45.00000
v 18.50000 -24.50000 45.00000
v 18.50000 -23.50000 46.00000
v 18.50000 -24.50000 45.00000
v 23.50000 -24.50000 45.00000
v 23.50000 -23.50000 46.00000
v 18.50000 -23.50000 46.00000
v 23.50000 -24.50000 45.00000
v 24.50000 -23.50000 45.00000
v 23.50000 -23.50000 46.00000
v 24.50000 -23.50000 45.00000
v 24.50000 -18.50000 45.00000
v 23.50000 -18.50000 46.00000
v 23.50000 -23.50000 46.00000
v 24.50000 -18.50000 45.00000
v 23.50000 -17.50000 45.00000
v 23.50000 -18.50000 46.00000
v 23.50000 -17.50000 45.00000
v 18.50000 -17.50000 45.00000
v 18.50000 -18.50000 46.00000
v 23.50000 -18.50000 46.00000
v 18.50000 -17.50000 45.00000
v 17.50000 -18.50000 45.00000
v 18.50000 -18.50000 46.00000
v 17.50000 -18.50000 45.00000
v 17.50000 -23.50000 45.00000
v 18.50000 -23.50000 46.00000
v 18.50000 -18.50000 46.00000
v 18.50000 18.50000 0.00000
v 18.50000 23.50000 0.00000
v 23.50000 23.50000 0.00000
v 23.50000 18.50000 0.00000
v 18.50000 18.50000 46.00000
v 23.50000 18.50000 46.00000
v 23.50000 23.50000 46.00000
v 18.50000 23.50000 46.00000
v 18.50000 18.50000 0.00000
v 18.50000 17.50000 1.00000
v 17.50000 18.50000 1.00000
v 18.50000 18.50000 0.00000
v 23.50000 18.50000 0.00000
v 23.50000 17.50000 1.00000
v 18.50000 17.50000 1.00000
v 23.50000 18.50000 0.00000
v 24.50000 18.50000 1.00000
v 23.50000 17.50000 1.00000
v 23.50000 18.50000 0.00000
v 23.50000 23.50000 0.00000
v 24.50000 23.50000 1.00000
v 24.50000 18.50000 1.00000
v 23.50000 23.50000 0.00000
v 23.50000 24.50000 1.00000
v 24.50000 23.50000 1.00000
v 23.50000 23.50000 0.00000
v 18.50000 23.50000 0.00000
v 18.50000 24.50000 1.00000
v 23.50000 24.50000 1.00000
v 18.50000 23.50000 0.00000
v 17.50000 23.50000 1.00000
v 18.50000 24.50000 1.00000
v 18.50000 23.50000 0.00000
v 18.50000 18.50000 0.00000
v 17.50000 18.50000 1.00000
v 17.50000 23.50000 1.00000
v 17.50000 18.50000 1.00000
v 18.50000 17.50000 1.00000
v 18.50000 17.50000 45.00000
v 17.50000 18.50000 45.00000
v 18.50000 17.50000 1.00000
v 23.50000 17.50000 1.00000
v 23.50000 17.50000 45.00000
v 18.50000 17.50000 45.00000
v 23.50000 17.50000 1.00000
v 24.50000 18.50000 1.00000
v 24.50000 18.50000 45.00000
v 23.50000 17.50000 45.00000
v 24.50000 18.50000 1.00000
v 24.50000 23.50000 1.00000
v 24.50000 23.50000 45.00000
v 24.50000 18.50000 45.00000
v 24.50000 23.50000 1.00000
v 23.50000 24.50000 1.00000
v 23.50000 24.50000 45.00000
v 24.50000 23.50000 45.00000
v 23.50000 24.50000 1.00000
v 18.50000 24.50000 1.00000
v 18.50000 24.50000 45.00000
v 23.50000 24.50000 45.00000
v 18.50000 24.50000 1.00000
v 17.50000 23.50000 1.00000
v 17.50000 23.50000 45.00000
v 18.50000 24.50000 45.00000
v 17.50000 23.50000 1.00000
v 17.50000 18.50000 1.00000
v 17.50000 18.50000 45.00000
v 17.50000 23.50000 45.00000
v 17.50000 18.50000 45.00000
v 18.50000 17.50000 45.00000
v 18.50000 18.50000 46.00000
v 18.50000 17.50000 45.00000
v 23.50000 17.50000 45.00000
v 23.50000 18.50000 46.00000
v 18.50000 18.50000 46.00000
v 23.50000 17.50000 45.00000
v 24.50000 18.50000 45.00000
v 23.50000 18.50000 46.00000
v 24.50000 18.50000 45.00000
v 24.50000 23.50000 45.00000
v 23.50000 23.50000 46.00000
v 23.50000 18.50000 46.00000
v 24.50000 23.50000 45.00000
v 23.50000 24.50000 45.00000
v 23.50000 23.50000 46.00000
v 23.50000 24.50000 45.00000
v 18.50000 24.50000 45.00000
v 18.50000 23.50000 46.00000
v 23.50000 23.50000 46.00000
v 18.50000 24.50000 45.00000
v 17.50000 23.50000 45.00000
v 18.50000 23.50000 46.00000
v 17.50000 23.50000 45.00000
v 17.50000 18.50000 45.00000
v 18.50000 18.50000 46.00000
v 18.50000 23.50000 46.00000
v -27.00000 -27.00000 49.50000
v -27.00000 -21.00000 49.50000
v -21.00000 -21.00000 49.50000
v -21.00000 -27.00000 49.50000
v -27.00000 -27.00000 144.50000
v -21.00000 -27.00000 144.50000
v -21.00000 -21.00000 144.50000
v -27.00000 -21.00000 144.50000
v -27.00000 -27.00000 49.50000
v -27.00000 -28.50000 51.00000
v -28.50000 -27.00000 51.00000
v -27.00000 -27.00000 49.50000
v -21.00000 -27.00000 49.50000
v -21.00000 -28.50000 51.00000
v -27.00000 -28.50000 51.00000
v -21.00000 -27.00000 49.50000
v -19.50000 -27.00000 51.00000
v -21.00000 -28.50000 51.00000
v -21.00000 -27.00000 49.50000
v -21.00000 -21.00000 49.50000
v -19.50000 -21.00000 51.00000
v -19.50000 -27.00000 51.00000
v -21.00000 -21.00000 49.50000
v -21.00000 -19.50000 51.00000
v -19.50000 -21.00000 51.00000
v -21.00000 -21.00000 49.50000
v -27.00000 -21.00000 49.50000
v -27.00000 -19.50000 51.00000
v -21.00000 -19.50000 51.00000
v -27.00000 -21.00000 49.50000
v -28.50000 -21.00000 51.00000
v -27.00000 -19.50000 51.00000
v -27.00000 -21.00000 49.50000
v -27.00000 -27.00000 49.50000
v -28.50000 -27.00000 51.00000
v -28.50000 -21.00000 51.00000
v -28.50000 -27.00000 51.00000
v -27.00000 -28.50000 51.00000
v -27.00000 -28.50000 143.00000
v -28.50000 -27.00000 143.00000
v -27.00000 -28.50000 51.00000
v -21.00000 -28.50000 51.00000
v -21.00000 -28.50000 143.00000
v -27.00000 -28.50000 143.00000
v -21.00000 -28.50000 51.00000
v -19.50000 -27.00000 51.00000
v -19.50000 -27.00000 143.00000
v -21.00000 -28.50000 143.00000
v -19.50000 -27.00000 51.00000
v -19.50000 -21.00000 51.00000
v -19.50000 -21.00000 143.00000
v -19.50000 -27.00000 143.00000
v -19.50000 -21.00000 51.00000
v -21.00000 -19.50000 51.00000
v -21.00000 -19.50000 143.00000
v -19.50000 -21.00000 143.00000
v -21.00000 -19.50000 51.00000
v -27.00000 -19.50000 51.00000
v -27.00000 -19.50000 143.00000
v -21.00000 -19.50000 143.00000
v -27.00000 -19.50000 51.00000
v -28.50000 -21.00000 51.00000
v -28.50000 -21.00000 143.00000
v -27.00000 -19.50000 143.00000
v -28.50000 -21.00000 51.00000
v -28.50000 -27.00000 51.00000
v -28.50000 -27.00000 143.00000
v -28.50000 -21.00000 143.00000
v -28.50000 -27.00000 143.00000
v -27.00000 -28.50000 143.00000
v -27.00000 -27.00000 144.50000
v -27.00000 -28.50000 143.00000
v -21.00000 -28.50000 143.00000
v -21.00000 -27.00000 144.50000
v -27.00000 -27.00000 144.50000
v -21.00000 -28.50000 143.00000
v -19.50000 -27.00000 143.00000
v -21.00000 -27.00000 144.50000
v -19.50000 -27.00000 143.00000
v -19.50000 -21.00000 143.00000
v -21.00000 -21.00000 144.50000
v -21.00000 -27.00000 144.50000
v -19.50000 -21.00000 143.00000
v -21.00000 -19.50000 143.00000
v -21.00000 -21.00000 144.50000
v -21.00000 -19.50000 143.00000
v -27.00000 -19.50000 143.00000
v -27.00000 -21.00000 144.50000
v -21.00000 -21.00000 144.50000
v -27.00000 -19.50000 143.00000
v -28.50000 -21.00000 143.00000
v -27.00000 -21.00000 144.50000
v -28.50000 -21.00000 143.00000
v -28.50000 -27.00000 143.00000
v -27.00000 -27.00000 144.50000
v -27.00000 -21.00000 144.50000
v -27.00000 21.00000 49.50000
v -27.00000 27.00000 49.50000
v -21.00000 27.00000 49.50000
v -21.00000 21.00000 49.50000
v -27.00000 21.00000 144.50000
v -21.00000 21.00000 144.50000
v -21.00000 27.00000 144.50000
v -27.00000 27.00000 144.50000
v -27.00000 21.00000 49.50000
v -27.00000 19.50000 51.00000
v -28.50000 21.00000 51.00000
v -27.00000 21.00000 49.50000
v -21.00000 21.00000 49.50000
v -21.00000 19.50000 51.00000
v -27.00000 19.50000 51.00000
v -21.00000 21.00000 49.50000
v -19.50000 21.00000 51.00000
v -21.00000 19.50000 51.00000
v -21.00000 21.00000 49.50000
v -21.00000 27.00000 49.50000
v -19.50000 27.00000 51.00000
v -19.50000 21.00000 51.00000
v -21.00000 27.00000 49.50000
v -21.00000 28.50000 51.00000
v -19.50000 27.00000 51.00000
v -21.00000 27.00000 49.50000
v -27.00000 27.00000 49.50000
v -27.00000 28.50000 51.00000
v -21.00000 28.50000 51.00000
v -27.00000 27.00000 49.50000
v -28.50000 27.00000 51.00000
v -27.00000 28.50000 51.00000
v -27.00000 27.00000 49.50000
v -27.00000 21.00000 49.50000
v -28.50000 21.00000 51.00000
v -28.50000 27.00000 51.00000
v -28.50000 21.00000 51.00000
v -27.00000 19.50000 51.00000
v -27.00000 19.50000 143.00000
v -28.50000 21.00000 143.00000
v -27.00000 19.50000 51.00000
v -21.00000 19.50000 51.00000
v -21.00000 19.50000 143.00000
v -27.00000 19.50000 143.00000
v -21.00000 19.50000 51.00000
v -19.50000 21.00000 51.00000
v -19.50000 21.00000 143.00000
v -21.00000 19.50000 143.00000
v -19.50000 21.00000 51.00000
v -19.50000 27.00000 51.00000
v -19.50000 27.00000 143.00000
v -19.50000 21.00000 143.00000
v -19.50000 27.00000 51.00000
v -21.00000 28.50000 51.00000
v -21.00000 28.50000 143.00000
v -19.50000 27.00000 143.00000
v -21.00000 28.50000 51.00000
v -27.00000 28.50000 51.00000
v -27.00000 28.50000 143.00000
v -21.00000 28.50000 143.00000
v -27.00000 28.50000 51.00000
v -28.50000 27.00000 51.00000
v -28.50000 27.00000 143.00000
v -27.00000 28.50000 143.00000
v -28.50000 27.00000 51.00000
v -28.50000 21.00000 51.00000
v -28.50000 21.00000 143.00000
v -28.50000 27.00000 143.00000
v -28.50000 21.00000 143.00000
v -27.00000 19.50000 143.00000
v -27.00000 21.00000 144.50000
v -27.00000 19.50000 143.00000
v -21.00000 19.50000 143.00000
v -21.00000 21.00000 144.50000
v -27.00000 21.00000 144.50000
v -21.00000 19.50000 143.00000
v -19.50000 21.00000 143.00000
v -21.00000 21.00000 144.50000
v -19.50000 21.00000 143.00000
v -19.50000 27.00000 143.00000
v -21.00000 27.00000 144.50000
v -21.00000 21.00000 144.50000
v -19.50000 27.00000 143.00000
v -21.00000 28.50000 143.00000
v -21.00000 27.00000 144.50000
v -21.00000 28.50000 143.00000
v -27.00000 28.50000 143.00000
v -27.00000 27.00000 144.50000
v -21.00000 27.00000 144.50000
v -27.00000 28.50000 143.00000
v -28.50000 27.00000 143.00000
v -27.00000 27.00000 144.50000
v -28.50000 27.00000 143.00000
v -28.50000 21.00000 143.00000
v -27.00000 21.00000 144.50000
v -27.00000 27.00000 144.50000
v -27.33333 -27.33333 128.00000
v -27.33333 27.33333 128.00000
v -20.66667 27.33333 128.00000
v -20.66667 -27.33333 128.00000
v -27.33333 -27.33333 140.00000
v -20.66667 -27.33333 140.00000
v -20.66667 27.33333 140.00000
v -27.33333 27.33333 140.00000
v -27.33333 -27.33333 128.00000
v -27.33333 -29.00000 129.66667
v -29.00000 -27.33333 129.66667
v -27.33333 -27.33333 128.00000
v -20.66667 -27.33333 128.00000
v -20.66667 -29.00000 129.66667
v -27.33333 -29.00000 129.66667
v -20.66667 -27.33333 128.00000
v -19.00000 -27.33333 129.66667
v -20.66667 -29.00000 129.66667
v -20.66667 -27.33333 128.00000
v -20.66667 27.33333 128.00000
v -19.00000 27.33333 129.66667
v -19.00000 -27.33333 129.66667
v -20.66667 27.33333 128.00000
v -20.66667 29.00000 129.66667
v -19.00000 27.33333 129.66667
v -20.66667 27.33333 128.00000
v -27.33333 27.33333 128.00000
v -27.33333 29.00000 129.66667
v -20.66667 29.00000 129.66667
v -27.33333 27.33333 128.00000
v -29.00000 27.33333 129.66667
v -27.33333 29.00000 129.66667
v -27.33333 27.33333 128.00000
v -27.33333 -27.33333 128.00000
v -29.00000 -27.33333 129.66667
v -29.00000 27.33333 129.66667
v -29.00000 -27.33333 129.66667
v -27.33333 -29.00000 129.66667
v -27.33333 -29.00000 138.33333
v -29.00000 -27.33333 138.33333
v -27.33333 -29.00000 129.66667
v -20.66667 -29.00000 129.66667
v -20.66667 -29.00000 138.33333
v -27.33333 -29.00000 138.33333
v -20.66667 -29.00000 129.66667
v -19.00000 -27.33333 129.66667
v -19.00000 -27.33333 138.33333
v -20.66667 -29.00000 138.33333
v -19.00000 -27.33333 129.66667
v -19.00000 27.33333 129.66667
v -19.00000 27.33333 138.33333
v -19.00000 -27.33333 138.33333
v -19.00000 27.33333 129.66667
v -20.66667 29.00000 129.66667
v -20.66667 29.00000 138.33333
v -19.00000 27.33333 138.33333
v -20.66667 29.00000 129.66667
v -27.33333 29.00000 129.66667
v -27.33333 29.00000 138.33333
v -20.66667 29.00000 138.33333
v -27.33333 29.00000 129.66667
v -29.00000 27.33333 129.66667
v -29.00000 27.33333 138.33333
v -27.33333 29.00000 138.33333
v -29.00000 27.33333 129.66667
v -29.00000 -27.33333 129.66667
v -29.00000 -27.33333 138.33333
v -29.00000 27.33333 138.33333
v -29.00000 -27.33333 138.33333
v -27.33333 -29.00000 138.33333
v -27.33333 -27.33333 140.00000
v -27.33333 -29.00000 138.33333
v -20.66667 -29.00000 138.33333
v -20.66667 -27.33333 140.00000
v -27.33333 -27.33333 140.00000
v -20.66667 -29.00000 138.33333
v -19.00000 -27.33333 138.33333
v -20.66667 -27.33333 140.00000
v -19.00000 -27.33333 138.33333
v -19.00000 27.33333 138.33333
v -20.66667 27.33333 140.00000
v -20.66667 -27.33333 140.00000
v -19.00000 27.33333 138.33333
v -20.66667 29.00000 138.33333
v -20.66667 27.33333 140.00000
v -20.66667 29.00000 138.33333
v -27.33333 29.00000 138.33333
v -27.33333 27.33333 140.00000
v -20.66667 27.33333 140.00000
v -27.33333 29.00000 138.33333
v -29.00000 27.33333 138.33333
v -27.33333 27.33333 140.00000
v -29.00000 27.33333 138.33333
v -29.00000 -27.33333 138.33333
v -27.33333 -27.33333 140.00000
v -27.33333 27.33333 140.00000
v -26.00000 -16.50000 80.00000
v -26.00000 -11.50000 80.00000
v -22.00000 -11.50000 80.00000
v -22.00000 -16.50000 80.00000
v -26.00000 -16.50000 128.00000
v -22.00000 -16.50000 128.00000
v -22.00000 -11.50000 128.00000
v -26.00000 -11.50000 128.00000
v -26.00000 -16.50000 80.00000
v -26.00000 -17.50000 81.00000
v -27.00000 -16.50000 81.00000
v -26.00000 -16.50000 80.00000
v -22.00000 -16.50000 80.00000
v -22.00000 -17.50000 81.00000
v -26.00000 -17.50000 81.00000
v -22.00000 -16.50000 80.00000
v -21.00000 -16.50000 81.00000
v -22.00000 -17.50000 81.00000
v -22.00000 -16.50000 80.00000
v -22.00000 -11.50000 80.00000
v -21.00000 -11.50000 81.00000
v -21.00000 -16.50000 81.00000
v -22.00000 -11.50000 80.00000
v -22.00000 -10.50000 81.00000
v -21.00000 -11.50000 81.00000
v -22.00000 -11.50000 80.00000
v -26.00000 -11.50000 80.00000
v -26.00000 -10.50000 81.00000
v -22.00000 -10.50000 81.00000
v -26.00000 -11.50000 80.00000
v -27.00000 -11.50000 81.00000
v -26.00000 -10.50000 81.00000
v -26.00000 -11.50000 80.00000
v -26.00000 -16.50000 80.00000
v -27.00000 -16.50000 81.00000
v -27.00000 -11.50000 81.00000
v -27.00000 -16.50000 81.00000
v -26.00000 -17.50000 81.00000
v -26.00000 -17.50000 127.00000
v -27.00000 -16.50000 127.00000
v -26.00000 -17.50000 81.00000
v -22.00000 -17.50000 81.00000
v -22.00000 -17.50000 127.00000
v -26.00000 -17.50000 127.00000
v -22.00000 -17.50000 81.00000
v -21.00000 -16.50000 81.00000
v -21.00000 -16.50000 127.00000
v -22.00000 -17.50000 127.00000
v -21.00000 -16.50000 81.00000
v -21.00000 -11.50000 81.00000
v -21.00000 -11.50000 127.00000
v -21.00000 -16.50000 127.00000
v -21.00000 -11.50000 81.00000
v -22.00000 -10.50000 81.00000
v -22.00000 -10.50000 127.00000
v -21.00000 -11.50000 127.00000
v -22.00000 -10.50000 81.00000
v -26.00000 -10.50000 81.00000
v -26.00000 -10.50000 127.00000
v -22.00000 -10.50000 127.00000
v -26.00000 -10.50000 81.00000
v -27.00000 -11.50000 81.00000
v -27.00000 -11.50000 127.00000
v -26.00000 -10.50000 127.00000
v -27.00000 -11.50000 81.00000
v -27.00000 -16.50000 81.00000
v -27.00000 -16.50000 127.00000
v -27.00000 -11.50000 127.00000
v -27.00000 -16.50000 127.00000
v -26.00000 -17.50000 127.00000
v -26.00000 -16.50000 128.00000
v -26.00000 -17.50000 127.00000
v -22.00000 -17.50000 127.00000
v -22.00000 -16.50000 128.00000
v -26.00000 -16.50000 128.00000
v -22.00000 -17.50000 127.00000
v -21.00000 -16.50000 127.00000
v -22.00000 -16.50000 128.00000
v -21.00000 -16.50000 127.00000
v -21.00000 -11.50000 127.00000
v -22.00000 -11.50000 128.00000
v -22.00000 -16.50000 128.00000
v -21.00000 -11.50000 127.00000
v -22.00000 -10.50000 127.00000
v -22.00000 -11.50000 128.00000
v -22.00000 -10.50000 127.00000
v -26.00000 -10.50000 127.00000
v -26.00000 -11.50000 128.00000
v -22.00000 -11.50000 128.00000
v -26.00000 -10.50000 127.00000
v -27.00000 -11.50000 127.00000
v -26.00000 -11.50000 128.00000
v -27.00000 -11.50000 127.00000
v -27.00000 -16.50000 127.00000
v -26.00000 -16.50000 128.00000
v -26.00000 -11.50000 128.00000
v -26.00000 -2.50000 80.00000
v -26.00000 2.50000 80.00000
v -22.00000 2.50000 80.00000
v -22.00000 -2.50000 80.00000
v -26.00000 -2.50000 128.00000
v -22.00000 -2.50000 128.00000
v -22.00000 2.50000 128.00000
v -26.00000 2.50000 128.00000
v -26.00000 -2.50000 80.00000
v -26.00000 -3.50000 81.00000
v -27.00000 -2.50000 81.00000
v -26.00000 -2.50000 80.00000
v -22.00000 -2.50000 80.00000
v -22.00000 -3.50000 81.00000
v -26.00000 -3.50000 81.00000
v -22.00000 -2.50000 80.00000
v -21.00000 -2.50000 81.00000
v -22.00000 -3.50000 81.00000
v -22.00000 -2.50000 80.00000
v -22.00000 2.50000 80.00000
v -21.00000 2.50000 81.00000
v -21.00000 -2.50000 81.00000
v -22.00000 2.50000 80.00000
v -22.00000 3.50000 81.00000
v -21.00000 2.50000 81.00000
v -22.00000 2.50000 80.00000
v -26.00000 2.50000 80.00000
v -26.00000 3.50000 81.00000
v -22.00000 3.50000 81.00000
v -26.00000 2.50000 80.00000
v -27.00000 2.50000 81.00000
v -26.00000 3.50000 81.00000
v -26.00000 2.50000 80.00000
v -26.00000 -2.50000 80.00000
v -27.00000 -2.50000 81.00000
v -27.00000 2.50000 81.00000
v -27.00000 -2.50000 81.00000
v -26.00000 -3.50000 81.00000
v -26.00000 -3.50000 127.00000
v -27.00000 -2.50000 127.00000
v -26.00000 -3.50000 81.00000
v -22.00000 -3.50000 81.00000
v -22.00000 -3.50000 127.00000
v -26.00000 -3.50000 127.00000
v -22.00000 -3.50000 81.00000
v -21.00000 -2.50000 81.00000
v -21.00000 -2.50000 127.00000
v -22.00000 -3.50000 127.00000
v -21.00000 -2.50000 81.00000
v -21.00000 2.50000 81.00000
v -21.00000 2.50000 127.00000
v -21.00000 -2.50000 127.00000
v -21.00000 2.50000 81.00000
v -22.00000 3.50000 81.00000
v -22.00000 3.50000 127.00000
v -21.00000 2.50000 127.00000
v -22.00000 3.50000 81.00000
v -26.00000 3.50000 81.00000
v -26.00000 3.50000 127.00000
v -22.00000 3.50000 127.00000
v -26.00000 3.50000 81.00000
v -27.00000 2.50000 81.00000
v -27.00000 2.50000 127.00000
v -26.00000 3.50000 127.00000
v -27.00000 2.50000 81.00000
v -27.00000 -2.50000 81.00000
v -27.00000 -2.50000 127.00000
v -27.00000 2.50000 127.00000
v -27.00000 -2.50000 127.00000
v -26.00000 -3.50000 127.00000
v -26.00000 -2.50000 128.00000
v -26.00000 -3.50000 127.00000
v -22.00000 -3.50000 127.00000
v -22.00000 -2.50000 128.00000
v -26.00000 -2.50000 128.00000
v -22.00000 -3.50000 127.00000
v -21.00000 -2.50000 127.00000
v -22.00000 -2.50000 128.00000
v -21.00000 -2.50000 127.00000
v -21.00000 2.50000 127.00000
v -22.00000 2.50000 128.00000
v -22.00000 -2.50000 128.00000
v -21.00000 2.50000 127.00000
v -22.00000 3.50000 127.00000
v -22.00000 2.50000 128.00000
v -22.00000 3.50000 127.00000
v -26.00000 3.50000 127.00000
v -26.00000 2.50000 128.00000
v -22.00000 2.50000 128.00000
v -26.00000 3.50000 127.00000
v -27.00000 2.50000 127.00000
v -26.00000 2.50000 128.00000
v -27.00000 2.50000 127.00000
v -27.00000 -2.50000 127.00000
v -26.00000 -2.50000 128.00000
v -26.00000 2.50000 128.00000
v -26.00000 11.50000 80.00000
v -26.00000 16.50000 80.00000
v -22.00000 16.50000 80.00000
v -22.00000 11.50000 80.00000
v -26.00000 11.50000 128.00000
v -22.00000 11.50000 128.00000
v -22.00000 16.50000 128.00000
v -26.00000 16.50000 128.00000
v -26.00000 11.50000 80.00000
v -26.00000 10.50000 81.00000
v -27.00000 11.50000 81.00000
v -26.00000 11.50000 80.00000
v -22.00000 11.50000 80.00000
v -22.00000 10.50000 81.00000
v -26.00000 10.50000 81.00000
v -22.00000 11.50000 80.00000
v -21.00000 11.50000 81.00000
v -22.00000 10.50000 81.00000
v -22.00000 11.50000 80.00000
v -22.00000 16.50000 80.00000
v -21.00000 16.50000 81.00000
v -21.00000 11.50000 81.00000
v -22.00000 16.50000 80.00000
v -22.00000 17.50000 81.00000
v -21.00000 16.50000 81.00000
v -22.00000 16.50000 80.00000
v -26.00000 16.50000 80.00000
v -26.00000 17.50000 81.00000
v -22.00000 17.50000 81.00000
v -26.00000 16.50000 80.00000
v -27.00000 16.50000 81.00000
v -26.00000 17.50000 81.00000
v -26.00000 16.50000 80.00000
v -26.00000 11.50000 80.00000
v -27.00000 11.50000 81.00000
v -27.00000 16.50000 81.00000
v -27.00000 11.50000 81.00000
v -26.00000 10.50000 81.00000
v -26.00000 10.50000 127.00000
v -27.00000 11.50000 127.00000
v -26.00000 10.50000 81.00000
v -22.00000 10.50000 81.00000
v -22.00000 10.50000 127.00000
v -26.00000 10.50000 127.00000
v -22.00000 10.50000 81.00000
v -21.00000 11.50000 81.00000
v -21.00000 11.50000 127.00000
v -22.00000 10.50000 127.00000
v -21.00000 11.50000 81.00000
v -21.00000 16.50000 81.00000
v -21.00000 16.50000 127.00000
v -21.00000 11.50000 127.00000
v -21.00000 16.50000 81.00000
v -22.00000 17.50000 81.00000
v -22.00000 17.50000 127.00000
v -21.00000 16.50000 127.00000
v -22.00000 17.50000 81.00000
v -26.00000 17.50000 81.00000
v -26.00000 17.50000 127.00000
v -22.00000 17.50000 127.00000
v -26.00000 17.50000 81.00000
v -27.00000 16.50000 81.00000
v -27.00000 16.50000 127.00000
v -26.00000 17.50000 127.00000
v -27.00000 16.50000 81.00000
v -27.00000 11.50000 81.00000
v -27.00000 11.50000 127.00000
v -27.00000 16.50000 127.00000
v -27.00000 11.50000 127.00000
v -26.00000 10.50000 127.00000
v -26.00000 11.50000 128.00000
v -26.00000 10.50000 127.00000
v -22.00000 10.50000 127.00000
v -22.00000 11.50000 128.00000
v -26.00000 11.50000 128.00000
v -22.00000 10.50000 127.00000
v -21.00000 11.50000 127.00000
v -22.00000 11.50000 128.00000
v -21.00000 11.50000 127.00000
v -21.00000 16.50000 127.00000
v -22.00000 16.50000 128.00000
v -22.00000 11.50000 128.00000
v -21.00000 16.50000 127.00000
v -22.00000 17.50000 127.00000
v -22.00000 16.50000 128.00000
v -22.00000 17.50000 127.00000
v -26.00000 17.50000 127.00000
v -26.00000 16.50000 128.00000
v -22.00000 16.50000 128.00000
v -26.00000 17.50000 127.00000
v -27.00000 16.50000 127.00000
v -26.00000 16.50000 128.00000
v -27.00000 16.50000 127.00000
v -27.00000 11.50000 127.00000
v -26.00000 11.50000 128.00000
v -26.00000 16.50000 128.00000
v -23.00000 -23.50000 18.50000
v -23.00000 -18.50000 18.50000
v 23.00000 -18.50000 18.50000
v 23.00000 -23.50000 18.50000
v -23.00000 -23.50000 23.50000
v 23.00000 -23.50000 23.50000
v 23.00000 -18.50000 23.50000
v -23.00000 -18.50000 23.50000
v -23.00000 -23.50000 18.50000
v 23.00000 -23.50000 18.50000
v 23.00000 -23.50000 23.50000
v -23.00000 -23.50000 23.50000
v 23.00000 -23.50000 18.50000
v 23.00000 -18.50000 18.50000
v 23.00000 -18.50000 23.50000
v 23.00000 -23.50000 23.50000
v 23.00000 -18.50000 18.50000
v -23.00000 -18.50000 18.50000
v -23.00000 -18.50000 23.50000
v 23.00000 -18.50000 23.50000
v -23.00000 -18.50000 18.50000
v -23.00000 -23.50000 18.50000
v -23.00000 -23.50000 23.50000
v -23.00000 -18.50000 23.50000
v -23.00000 18.50000 18.50000
v -23.00000 23.50000 18.50000
v 23.00000 23.50000 18.50000
v 23.00000 18.50000 18.50000
v -23.00000 18.50000 23.50000
v 23.00000 18.50000 23.50000
v 23.00000 23.50000 23.50000
v -23.00000 23.50000 23.50000
v -23.00000 18.50000 18.50000
v 23.00000 18.50000 18.50000
v 23.00000 18.50000 23.50000
v -23.00000 18.50000 23.50000
v 23.00000 18.50000 18.50000
v 23.00000 23.50000 18.50000
v 23.00000 23.50000 23.50000
v 23.00000 18.50000 23.50000
v 23.00000 23.50000 18.50000
v -23.00000 23.50000 18.50000
v -23.00000 23.50000 23.50000
v 23.00000 23.50000 23.50000
v -23.00000 23.50000 18.50000
v -23.00000 18.50000 18.50000
v -23.00000 18.50000 23.50000
v -23.00000 23.50000 23.50000
vt 0.00000 0.00000
vt 1.00000 0.00000
vt 1.00000 1.00000
vt 0.00000 1.00000
vt 0.00000 0.00000
vt 1.00000 0.00000
vt 1.00000 1.00000
vt 0.00000 1.00000
vt 0.00000 0.00000
vt 1.00000 0.00000
vt 1.00000 1.00000
vt 0.00000 0.00000
vt 1.00000 0.00000
vt 1.00000 1.00000
vt 0.00000 1.00000
vt 0.00000 0.00000
vt 1.00000 0.00000
vt 1.00000 1.00000
vt 0.00000 0.00000
vt 1.00000 0.00000
vt 1.00000 1.00000
vt 0.00000 1.00000
vt 0.00000 0.00000
vt 1.00000 0.00000
vt 1.00000 1.00000
vt 0.00000 0.00000
vt 1.00000 0.00000
vt 1.00000 1.00000
vt 0.00000 1.00000
vt 0.00000 0.00000
vt 1.00000 0.00000
vt 1.00000 1.00000
vt 0.00000 0.00000
vt 1.00000 0.00000
vt 1.00000 1.00000
vt 0.00000 1.00000
vt 0.00000 0.00000
vt 1.00000 0.00000
vt 1.00000 1.00000
vt 0.00000 1.00000
vt 0.00000 0.00000
vt 1.00000 0.00000
vt 1.00000 1.00000
vt 0.00000 1.00000
vt 0.00000 0.00000
vt 1.00000 0.00000
vt 1.00000 1.00000
vt 0.00000 1.00000
vt 0.00000 0.00000
vt 1.00000 0.00000
vt 1.00000 1.00000
vt 0.00000 1.00000
vt 0.00000 0.00000
vt 1.00000 0.00000
vt 1.00000 1.00000
vt 0.00000 1.00000
vt 0.00000 0.00000
vt 1.00000 0.00000
vt 1.00000 1.00000
vt 0.00000 1.00000
vt 0.00000 0.00000
vt 1.00000 0.00000
vt 1.00000 1.00000
vt 0.00000 1.00000
vt 0.00000 0.00000
vt 1.00000 0.00000
vt 1.00000 1.00000
vt 0.00000 1.00000
vt 0.00000 0.00000
vt 1.00000 0.00000
vt 1.00000 1.00000
vt 0.00000 0.00000
vt 1.00000 0.00000
vt 1.00000 1.00000
vt 0.00000 1.00000
vt 0.00000 0.00000
vt 1.00000 0.00000
vt 1.00000 1.00000
vt 0.00000 0.00000
vt 1.00000 0.00000
vt 1.00000 1.00000
vt 0.00000 1.00000
vt 0.00000 0.00000
vt 1.00000 0.00000
vt 1.00000 1.00000
vt 0.00000 0.00000
vt 1.00000 0.00000
vt 1.00000 1.00000
vt 0.00000 1.00000
vt 0.00000 0.00000
vt 1.00000 0.00000
vt 1.00000 1.00000
vt 0.00000 0.00000
vt 1.00000 0.00000
vt 1.00000 1.00000
vt 0.00000 1.00000
vt 0.00000 0.00000
vt 1.00000 0.00000
vt 1.00000 1.00000
vt 0.00000 1.00000
vt 0.00000 0.00000
vt 1.00000 0.00000
vt 1.00000 1.00000
vt 0.00000 1.00000
vt 0.00000 0.00000
vt 1.00000 0.00000
vt 1.00000 1.00000
vt 0.00000 0.00000
vt 1.00000 0.00000
vt 1.00000 1.00000
vt 0.00000 1.00000
vt 0.00000 0.00000
vt 1.00000 0.00000
vt 1.00000 1.00000
vt 0.00000 0.00000
vt 1.00000 0.00000
vt 1.00000 1.00000
vt 0.00000 1.00000
vt 0.00000 0.00000
vt 1.00000 0.00000
vt 1.00000 1.00000
vt 0.00000 0.00000
vt 1.00000 0.00000
vt 1.00000 1.00000
vt 0.00000 1.00000
vt 0.00000 0.00000
vt 1.00000 0.00000
vt 1.00000 1.00000
vt 0.00000 0.00000
vt 1.00000 0.00000
vt 1.00000 1.00000
vt 0.00000 1.00000
vt 0.00000 0.00000
vt 1.00000 0.00000
vt 1.00000 1.00000
vt 0.00000 1.00000
vt 0.00000 0.00000
vt 1.00000 0.00000
vt 1.00000 1.00000
vt 0.00000 1.00000
vt 0.00000 0.00000
vt 1.00000 0.00000
vt 1.00000 1.00000
vt 0.00000 1.00000
vt 0.00000 0.00000
vt 1.00000 0.00000
vt 1.00000 1.00000
vt 0.00000 1.00000
vt 0.00000 0.00000
vt 1.00000 0.00000
vt 1.00000 1.00000
vt 0.00000 1.00000
vt 0.00000 0.00000
vt 1.00000 0.00000
vt 1.00000 1.00000
vt 0.00000 1.00000
vt 0.00000 0.00000
vt 1.00000 0.00000
vt 1.00000 1.00000
vt 0.00000 1.00000
vt 0.00000 0.00000
vt 1.00000 0.00000
vt 1.00000 1.00000
vt 0.00000 1.00000
vt 0.00000 0.00000
vt 1.00000 0.00000
vt 1.00000 1.00000
vt 0.00000 0.00000
vt 1.00000 0.00000
vt 1.00000 1.00000
vt 0.00000 1.00000
vt 0.00000 0.00000
vt 1.00000 0.00000
vt 1.00000 1.00000
vt 0.00000 0.00000
vt 1.00000 0.00000
vt 1.00000 1.00000
vt 0.00000 1.00000
vt 0.00000 0.00000
vt 1.00000 0.00000
vt 1.00000 1.00000
vt 0.00000 0.00000
vt 1.00000 0.00000
vt 1.00000 1.00000
vt 0.00000 1.00000
vt 0.00000 0.00000
vt 1.00000 0.00000
vt 1.00000 1.00000
vt 0.00000 0.00000
vt 1.00000 0.00000
vt 1.00000 1.00000
vt 0.00000 1.00000
vt 0.00000 0.00000
vt 1.00000 0.00000
vt 1.00000 1.00000
vt 0.00000 1.00000
vt 0.00000 0.00000
vt 1.00000 0.00000
vt 1.00000 1.00000
vt 0.00000 1.00000
vt 0.00000 0.00000
vt 1.00000 0.00000
vt 1.00000 1.00000
vt 0.00000 0.00000
vt 1.00000 0.00000
vt 1.00000 1.00000
vt 0.00000 1.00000
vt 0.00000 0.00000
vt 1.00000 0.00000
vt 1.00000 1.00000
vt 0.00000 0.00000
vt 1.00000 0.00000
vt 1.00000 1.00000
vt 0.00000 1.00000
vt 0.00000 0.00000
vt 1.00000 0.00000
vt 1.00000 1.00000
vt 0.00000 0.00000
vt 1.00000 0.00000
vt 1.00000 1.00000
vt 0.00000 1.00000
vt 0.00000 0.00000
vt 1.00000 0.00000
vt 1.00000 1.00000
vt 0.00000 0.00000
vt 1.00000 0.00000
vt 1.00000 1.00000
vt 0.00000 1.00000
vt 0.00000 0.00000
vt 1.00000 0.00000
vt 1.00000 1.00000
vt 0.00000 1.00000
vt 0.00000 0.00000
vt 1.00000 0.00000
vt 1.00000 1.00000
vt 0.00000 1.00000
vt 0.00000 0.00000
vt 1.00000 0.00000
vt 1.00000 1.00000
vt 0.00000 1.00000
vt 0.00000 0.00000
vt 1.00000 0.00000
vt 1.00000 1.00000
vt 0.00000 1.00000
vt 0.00000 0.00000
vt 1.00000 0.00000
vt 1.00000 1.00000
vt 0.00000 1.00000
vt 0.00000 0.00000
vt 1.00000 0.00000
vt 1.00000 1.00000
vt 0.00000 1.00000
vt 0.00000 0.00000
vt 1.00000 0.00000
vt 1.00000 1.00000
vt 0.00000 1.00000
vt 0.00000 0.00000
vt 1.00000 0.00000
vt 1.00000 1.00000
vt 0.00000 1.00000
vt 0.00000 0.00000
vt 1.00000 0.00000
vt 1.00000 1.00000
vt 0.00000 0.00000
vt 1.00000 0.00000
vt 1.00000 1.00000
vt 0.00000 1.00000
vt 0.00000 0.00000
vt 1.00000 0.00000
vt 1.00000 1.00000
vt 0.00000 0.00000
vt 1.00000 0.00000
vt 1.00000 1.00000
vt 0.00000 1.00000
vt 0.00000 0.00000
vt 1.00000 0.00000
vt 1.00000 1.00000
vt 0.00000 0.00000
vt 1.00000 0.00000
vt 1.00000 1.00000
vt 0.00000 1.00000
vt 0.00000 0.00000
vt 1.00000 0.00000
vt 1.00000 1.00000
vt 0.00000 0.00000
vt 1.00000 0.00000
vt 1.00000 1.00000
vt 0.00000 1.00000
vt 0.00000 0.00000
vt 1.00000 0.00000
vt 1.00000 1.00000
vt 0.00000 1.00000
vt 0.00000 0.00000
vt 1.00000 0.00000
vt 1.00000 1.00000
vt 0.00000 1.00000
vt 0.00000 0.00000
vt 1.00000 0.00000
vt 1.00000 1.00000
vt 0.00000 0.00000
vt 1.00000 0.00000
vt 1.00000 1.00000
vt 0.00000 1.00000
vt 0.00000 0.00000
vt 1.00000 0.00000
vt 1.00000 1.00000
vt 0.00000 0.00000
vt 1.00000 0.00000
vt 1.00000 1.00000
vt 0.00000 1.00000
vt 0.00000 0.00000
vt 1.00000 0.00000
vt 1.00000 1.00000
vt 0.00000 0.00000
vt 1.00000 0.00000
vt 1.00000 1.00000
vt 0.00000 1.00000
vt 0.00000 0.00000
vt 1.00000 0.00000
vt 1.00000 1.00000
vt 0.00000 0.00000
vt 1.00000 0.00000
vt 1.00000 1.00000
vt 0.00000 1.00000
vt 0.00000 0.00000
vt 1.00000 0.00000
vt 1.00000 1.00000
vt 0.00000 1.00000
vt 0.00000 0.00000
vt 1.00000 0.00000
vt 1.00000 1.00000
vt 0.00000 1.00000
vt 0.00000 0.00000
vt 1.00000 0.00000
vt 1.00000 1.00000
vt 0.00000 1.00000
vt 0.00000 0.00000
vt 1.00000 0.00000
vt 1.00000 1.00000
vt 0.00000 1.00000
vt 0.00000 0.00000
vt 1.00000 0.00000
vt 1.00000 1.00000
vt 0.00000 1.00000
vt 0.00000 0.00000
vt 1.00000 0.00000
vt 1.00000 1.00000
vt 0.00000 1.00000
vt 0.00000 0.00000
vt 1.00000 0.00000
vt 1.00000 1.00000
vt 0.00000 1.00000
vt 0.00000 0.00000
vt 1.00000 0.00000
vt 1.00000 1.00000
vt 0.00000 1.00000
vt 0.00000 0.00000
vt 1.00000 0.00000
vt 1.00000 1.00000
vt 0.00000 0.00000
vt 1.00000 0.00000
vt 1.00000 1.00000
vt 0.00000 1.00000
vt 0.00000 0.00000
vt 1.00000 0.00000
vt 1.00000 1.00000
vt 0.00000 0.00000
vt 1.00000 0.00000
vt 1.00000 1.00000
vt 0.00000 1.00000
vt 0.00000 0.00000
vt 1.00000 0.00000
vt 1.00000 1.00000
vt 0.00000 0.00000
vt 1.00000 0.00000
vt 1.00000 1.00000
vt 0.00000 1.00000
vt 0.00000 0.00000
vt 1.00000 0.00000
vt 1.00000 1.00000
vt 0.00000 0.00000
vt 1.00000 0.00000
vt 1.00000 1.00000
vt 0.00000 1.00000
vt 0.00000 0.00000
vt 1.00000 0.00000
vt 1.00000 1.00000
vt 0.00000 1.00000
vt 0.00000 0.00000
vt 1.00000 0.00000
vt 1.00000 1.00000
vt 0.00000 1.00000
vt 0.00000 0.00000
vt 1.00000 0.00000
vt 1.00000 1.00000
vt 0.00000 0.00000
vt 1.00000 0.00000
vt 1.00000 1.00000
vt 0.00000 1.00000
vt 0.00000 0.00000
vt 1.00000 0.00000
vt 1.00000 1.00000
vt 0.00000 0.00000
vt 1.00000 0.00000
vt 1.00000 1.00000
vt 0.00000 1.00000
vt 0.00000 0.00000
vt 1.00000 0.00000
vt 1.00000 1.00000
vt 0.00000 0.00000
vt 1.00000 0.00000
vt 1.00000 1.00000
vt 0.00000 1.00000
vt 0.00000 0.00000
vt 1.00000 0.00000
vt 1.00000 1.00000
vt 0.00000 0.00000
vt 1.00000 0.00000
vt 1.00000 1.00000
vt 0.00000 1.00000
vt 0.00000 0.00000
vt 1.00000 0.00000
vt 1.00000 1.00000
vt 0.00000 1.00000
vt 0.00000 0.00000
vt 1.00000 0.00000
vt 1.00000 1.00000
vt 0.00000 1.00000
vt 0.00000 0.00000
vt 1.00000 0.00000
vt 1.00000 1.00000
vt 0.00000 1.00000
vt 0.00000 0.00000
vt 1.00000 0.00000
vt 1.00000 1.00000
vt 0.00000 1.00000
vt 0.00000 0.00000
vt 1.00000 0.00000
vt 1.00000 1.00000
vt 0.00000 1.00000
vt 0.00000 0.00000
vt 1.00000 0.00000
vt 1.00000 1.00000
vt 0.00000 1.00000
vt 0.00000 0.00000
vt 1.00000 0.00000
vt 1.00000 1.00000
vt 0.00000 1.00000
vt 0.00000 0.00000
vt 1.00000 0.00000
vt 1.00000 1.00000
vt 0.00000 1.00000
vt 0.00000 0.00000
vt 1.00000 0.00000
vt 1.00000 1.00000
vt 0.00000 0.00000
vt 1.00000 0.00000
vt 1.00000 1.00000
vt 0.00000 1.00000
vt 0.00000 0.00000
vt 1.00000 0.00000
vt 1.00000 1.00000
vt 0.00000 0.00000
vt 1.00000 0.00000
vt 1.00000 1.00000
vt 0.00000 1.00000
vt 0.00000 0.00000
vt 1.00000 0.00000
vt 1.00000 1.00000
vt 0.00000 0.00000
vt 1.00000 0.00000
vt 1.00000 1.00000
vt 0.00000 1.00000
vt 0.00000 0.00000
vt 1.00000 0.00000
vt 1.00000 1.00000
vt 0.00000 0.00000
vt 1.00000 0.00000
vt 1.00000 1.00000
vt 0.00000 1.00000
vt 0.00000 0.00000
vt 1.00000 0.00000
vt 1.00000 1.00000
vt 0.00000 1.00000
vt 0.00000 0.00000
vt 1.00000 0.00000
vt 1.00000 1.00000
vt 0.00000 1.00000
vt 0.00000 0.00000
vt 1.00000 0.00000
vt 1.00000 1.00000
vt 0.00000 0.00000
vt 1.00000 0.00000
vt 1.00000 1.00000
vt 0.00000 1.00000
vt 0.00000 0.00000
vt 1.00000 0.00000
vt 1.00000 1.00000
vt 0.00000 0.00000
vt 1.00000 0.00000
vt 1.00000 1.00000
vt 0.00000 1.00000
vt 0.00000 0.00000
vt 1.00000 0.00000
vt 1.00000 1.00000
vt 0.00000 0.00000
vt 1.00000 0.00000
vt 1.00000 1.00000
vt 0.00000 1.00000
vt 0.00000 0.00000
vt 1.00000 0.00000
vt 1.00000 1.00000
vt 0.00000 0.00000
vt 1.00000 0.00000
vt 1.00000 1.00000
vt 0.00000 1.00000
vt 0.00000 0.00000
vt 1.00000 0.00000
vt 1.00000 1.00000
vt 0.00000 1.00000
vt 0.00000 0.00000
vt 1.00000 0.00000
vt 1.00000 1.00000
vt 0.00000 1.00000
vt 0.00000 0.00000
vt 1.00000 0.00000
vt 1.00000 1.00000
vt 0.00000 1.00000
vt 0.00000 0.00000
vt 1.00000 0.00000
vt 1.00000 1.00000
vt 0.00000 1.00000
vt 0.00000 0.00000
vt 1.00000 0.00000
vt 1.00000 1.00000
vt 0.00000 1.00000
vt 0.00000 0.00000
vt 1.00000 0.00000
vt 1.00000 1.00000
vt 0.00000 1.00000
vt 0.00000 0.00000
vt 1.00000 0.00000
vt 1.00000 1.00000
vt 0.00000 1.00000
vt 0.00000 0.00000
vt 1.00000 0.00000
vt 1.00000 1.00000
vt 0.00000 1.00000
vt 0.00000 0.00000
vt 1.00000 0.00000
vt 1.00000 1.00000
vt 0.00000 0.00000
vt 1.00000 0.00000
vt 1.00000 1.00000
vt 0.00000 1.00000
vt 0.00000 0.00000
vt 1.00000 0.00000
vt 1.00000 1.00000
vt 0.00000 0.00000
vt 1.00000 0.00000
vt 1.00000 1.00000
vt 0.00000 1.00000
vt 0.00000 0.00000
vt 1.00000 0.00000
vt 1.00000 1.00000
vt 0.00000 0.00000
vt 1.00000 0.00000
vt 1.00000 1.00000
vt 0.00000 1.00000
vt 0.00000 0.00000
vt 1.00000 0.00000
vt 1.00000 1.00000
vt 0.00000 0.00000
vt 1.00000 0.00000
vt 1.00000 1.00000
vt 0.00000 1.00000
vt 0.00000 0.00000
vt 1.00000 0.00000
vt 1.00000 1.00000
vt 0.00000 1.00000
vt 0.00000 0.00000
vt 1.00000 0.00000
vt 1.00000 1.00000
vt 0.00000 1.00000
vt 0.00000 0.00000
vt 1.00000 0.00000
vt 1.00000 1.00000
vt 0.00000 0.00000
vt 1.00000 0.00000
vt 1.00000 1.00000
vt 0.00000 1.00000
vt 0.00000 0.00000
vt 1.00000 0.00000
vt 1.00000 1.00000
vt 0.00000 0.00000
vt 1.00000 0.00000
vt 1.00000 1.00000
vt 0.00000 1.00000
vt 0.00000 0.00000
vt 1.00000 0.00000
vt 1.00000 1.00000
vt 0.00000 0.00000
vt 1.00000 0.00000
vt 1.00000 1.00000
vt 0.00000 1.00000
vt 0.00000 0.00000
vt 1.00000 0.00000
vt 1.00000 1.00000
vt 0.00000 0.00000
vt 1.00000 0.00000
vt 1.00000 1.00000
vt 0.00000 1.00000
vt 0.00000 0.00000
vt 1.00000 0.00000
vt 1.00000 1.00000
vt 0.00000 1.00000
vt 0.00000 0.00000
vt 1.00000 0.00000
vt 1.00000 1.00000
vt 0.00000 1.00000
vt 0.00000 0.00000
vt 1.00000 0.00000
vt 1.00000 1.00000
vt 0.00000 1.00000
vt 0.00000 0.00000
vt 1.00000 0.00000
vt 1.00000 1.00000
vt 0.00000 1.00000
vt 0.00000 0.00000
vt 1.00000 0.00000
vt 1.00000 1.00000
vt 0.00000 1.00000
vt 0.00000 0.00000
vt 1.00000 0.00000
vt 1.00000 1.00000
vt 0.00000 1.00000
vt 0.00000 0.00000
vt 1.00000 0.00000
vt 1.00000 1.00000
vt 0.00000 1.00000
vt 0.00000 0.00000
vt 1.00000 0.00000
vt 1.00000 1.00000
vt 0.00000 1.00000
vt 0.00000 0.00000
vt 1.00000 0.00000
vt 1.00000 1.00000
vt 0.00000 0.00000
vt 1.00000 0.00000
vt 1.00000 1.00000
vt 0.00000 1.00000
vt 0.00000 0.00000
vt 1.00000 0.00000
vt 1.00000 1.00000
vt 0.00000 0.00000
vt 1.00000 0.00000
vt 1.00000 1.00000
vt 0.00000 1.00000
vt 0.00000 0.00000
vt 1.00000 0.00000
vt 1.00000 1.00000
vt 0.00000 0.00000
vt 1.00000 0.00000
vt 1.00000 1.00000
vt 0.00000 1.00000
vt 0.00000 0.00000
vt 1.00000 0.00000
vt 1.00000 1.00000
vt 0.00000 0.00000
vt 1.00000 0.00000
vt 1.00000 1.00000
vt 0.00000 1.00000
vt 0.00000 0.00000
vt 1.00000 0.00000
vt 1.00000 1.00000
vt 0.00000 1.00000
vt 0.00000 0.00000
vt 1.00000 0.00000
vt 1.00000 1.00000
vt 0.00000 1.00000
vt 0.00000 0.00000
vt 1.00000 0.00000
vt 1.00000 1.00000
vt 0.00000 0.00000
vt 1.00000 0.00000
vt 1.00000 1.00000
vt 0.00000 1.00000
vt 0.00000 0.00000
vt 1.00000 0.00000
vt 1.00000 1.00000
vt 0.00000 0.00000
vt 1.00000 0.00000
vt 1.00000 1.00000
vt 0.00000 1.00000
vt 0.00000 0.00000
vt 1.00000 0.00000
vt 1.00000 1.00000
vt 0.00000 0.00000
vt 1.00000 0.00000
vt 1.00000 1.00000
vt 0.00000 1.00000
vt 0.00000 0.00000
vt 1.00000 0.00000
vt 1.00000 1.00000
vt 0.00000 0.00000
vt 1.00000 0.00000
vt 1.00000 1.00000
vt 0.00000 1.00000
vt 0.00000 0.00000
vt 1.00000 0.00000
vt 1.00000 1.00000
vt 0.00000 1.00000
vt 0.00000 0.00000
vt 1.00000 0.00000
vt 1.00000 1.00000
vt 0.00000 1.00000
vt 0.00000 0.00000
vt 1.00000 0.00000
vt 1.00000 1.00000
vt 0.00000 1.00000
vt 0.00000 0.00000
vt 1.00000 0.00000
vt 1.00000 1.00000
vt 0.00000 1.00000
vt 0.00000 0.00000
vt 1.00000 0.00000
vt 1.00000 1.00000
vt 0.00000 1.00000
vt 0.00000 0.00000
vt 1.00000 0.00000
vt 1.00000 1.00000
vt 0.00000 1.00000
vt 0.00000 0.00000
vt 1.00000 0.00000
vt 1.00000 1.00000
vt 0.00000 1.00000
vt 0.00000 0.00000
vt 1.00000 0.00000
vt 1.00000 1.00000
vt 0.00000 1.00000
vt 0.00000 0.00000
vt 1.00000 0.00000
vt 1.00000 1.00000
vt 0.00000 0.00000
vt 1.00000 0.00000
vt 1.00000 1.00000
vt 0.00000 1.00000
vt 0.00000 0.00000
vt 1.00000 0.00000
vt 1.00000 1.00000
vt 0.00000 0.00000
vt 1.00000 0.00000
vt 1.00000 1.00000
vt 0.00000 1.00000
vt 0.00000 0.00000
vt 1.00000 0.00000
vt 1.00000 1.00000
vt 0.00000 0.00000
vt 1.00000 0.00000
vt 1.00000 1.00000
vt 0.00000 1.00000
vt 0.00000 0.00000
vt 1.00000 0.00000
vt 1.00000 1.00000
vt 0.00000 0.00000
vt 1.00000 0.00000
vt 1.00000 1.00000
vt 0.00000 1.00000
vt 0.00000 0.00000
vt 1.00000 0.00000
vt 1.00000 1.00000
vt 0.00000 1.00000
vt 0.00000 0.00000
vt 1.00000 0.00000
vt 1.00000 1.00000
vt 0.00000 1.00000
vt 0.00000 0.00000
vt 1.00000 0.00000
vt 1.00000 1.00000
vt 0.00000 0.00000
vt 1.00000 0.00000
vt 1.00000 1.00000
vt 0.00000 1.00000
vt 0.00000 0.00000
vt 1.00000 0.00000
vt 1.00000 1.00000
vt 0.00000 0.00000
vt 1.00000 0.00000
vt 1.00000 1.00000
vt 0.00000 1.00000
vt 0.00000 0.00000
vt 1.00000 0.00000
vt 1.00000 1.00000
vt 0.00000 0.00000
vt 1.00000 0.00000
vt 1.00000 1.00000
vt 0.00000 1.00000
vt 0.00000 0.00000
vt 1.00000 0.00000
vt 1.00000 1.00000
vt 0.00000 0.00000
vt 1.00000 0.00000
vt 1.00000 1.00000
vt 0.00000 1.00000
vt 0.00000 0.00000
vt 1.00000 0.00000
vt 1.00000 1.00000
vt 0.00000 1.00000
vt 0.00000 0.00000
vt 1.00000 0.00000
vt 1.00000 1.00000
vt 0.00000 1.00000
vt 0.00000 0.00000
vt 1.00000 0.00000
vt 1.00000 1.00000
vt 0.00000 1.00000
vt 0.00000 0.00000
vt 1.00000 0.00000
vt 1.00000 1.00000
vt 0.00000 1.00000
vt 0.00000 0.00000
vt 1.00000 0.00000
vt 1.00000 1.00000
vt 0.00000 1.00000
vt 0.00000 0.00000
vt 1.00000 0.00000
vt 1.00000 1.00000
vt 0.00000 1.00000
vt 0.00000 0.00000
vt 1.00000 0.00000
vt 1.00000 1.00000
vt 0.00000 1.00000
vt 0.00000 0.00000
vt 1.00000 0.00000
vt 1.00000 1.00000
vt 0.00000 1.00000
vt 0.00000 0.00000
vt 1.00000 0.00000
vt 1.00000 1.00000
vt 0.00000 0.00000
vt 1.00000 0.00000
vt 1.00000 1.00000
vt 0.00000 1.00000
vt 0.00000 0.00000
vt 1.00000 0.00000
vt 1.00000 1.00000
vt 0.00000 0.00000
vt 1.00000 0.00000
vt 1.00000 1.00000
vt 0.00000 1.00000
vt 0.00000 0.00000
vt 1.00000 0.00000
vt 1.00000 1.00000
vt 0.00000 0.00000
vt 1.00000 0.00000
vt 1.00000 1.00000
vt 0.00000 1.00000
vt 0.00000 0.00000
vt 1.00000 0.00000
vt 1.00000 1.00000
vt 0.00000 0.00000
vt 1.00000 0.00000
vt 1.00000 1.00000
vt 0.00000 1.00000
vt 0.00000 0.00000
vt 1.00000 0.00000
vt 1.00000 1.00000
vt 0.00000 1.00000
vt 0.00000 0.00000
vt 1.00000 0.00000
vt 1.00000 1.00000
vt 0.00000 1.00000
vt 0.00000 0.00000
vt 1.00000 0.00000
vt 1.00000 1.00000
vt 0.00000 0.00000
vt 1.00000 0.00000
vt 1.00000 1.00000
vt 0.00000 1.00000
vt 0.00000 0.00000
vt 1.00000 0.00000
vt 1.00000 1.00000
vt 0.00000 0.00000
vt 1.00000 0.00000
vt 1.00000 1.00000
vt 0.00000 1.00000
vt 0.00000 0.00000
vt 1.00000 0.00000
vt 1.00000 1.00000
vt 0.00000 0.00000
vt 1.00000 0.00000
vt 1.00000 1.00000
vt 0.00000 1.00000
vt 0.00000 0.00000
vt 1.00000 0.00000
vt 1.00000 1.00000
vt 0.00000 0.00000
vt 1.00000 0.00000
vt 1.00000 1.00000
vt 0.00000 1.00000
vt 0.00000 0.00000
vt 1.00000 0.00000
vt 1.00000 1.00000
vt 0.00000 1.00000
vt 0.00000 0.00000
vt 1.00000 0.00000
vt 1.00000 1.00000
vt 0.00000 1.00000
vt 0.00000 0.00000
vt 1.00000 0.00000
vt 1.00000 1.00000
vt 0.00000 1.00000
vt 0.00000 0.00000
vt 1.00000 0.00000
vt 1.00000 1.00000
vt 0.00000 1.00000
vt 0.00000 0.00000
vt 1.00000 0.00000
vt 1.00000 1.00000
vt 0.00000 1.00000
vt 0.00000 0.00000
vt 1.00000 0.00000
vt 1.00000 1.00000
vt 0.00000 1.00000
vt 0.00000 0.00000
vt 1.00000 0.00000
vt 1.00000 1.00000
vt 0.00000 1.00000
vt 0.00000 0.00000
vt 1.00000 0.00000
vt 1.00000 1.00000
vt 0.00000 1.00000
vt 0.00000 0.00000
vt 1.00000 0.00000
vt 1.00000 1.00000
vt 0.00000 0.00000
vt 1.00000 0.00000
vt 1.00000 1.00000
vt 0.00000 1.00000
vt 0.00000 0.00000
vt 1.00000 0.00000
vt 1.00000 1.00000
vt 0.00000 0.00000
vt 1.00000 0.00000
vt 1.00000 1.00000
vt 0.00000 1.00000
vt 0.00000 0.00000
vt 1.00000 0.00000
vt 1.00000 1.00000
vt 0.00000 0.00000
vt 1.00000 0.00000
vt 1.00000 1.00000
vt 0.00000 1.00000
vt 0.00000 0.00000
vt 1.00000 0.00000
vt 1.00000 1.00000
vt 0.00000 0.00000
vt 1.00000 0.00000
vt 1.00000 1.00000
vt 0.00000 1.00000
vt 0.00000 0.00000
vt 1.00000 0.00000
vt 1.00000 1.00000
vt 0.00000 1.00000
vt 0.00000 0.00000
vt 1.00000 0.00000
vt 1.00000 1.00000
vt 0.00000 1.00000
vt 0.00000 0.00000
vt 1.00000 0.00000
vt 1.00000 1.00000
vt 0.00000 0.00000
vt 1.00000 0.00000
vt 1.00000 1.00000
vt 0.00000 1.00000
vt 0.00000 0.00000
vt 1.00000 0.00000
vt 1.00000 1.00000
vt 0.00000 0.00000
vt 1.00000 0.00000
vt 1.00000 1.00000
vt 0.00000 1.00000
vt 0.00000 0.00000
vt 1.00000 0.00000
vt 1.00000 1.00000
vt 0.00000 0.00000
vt 1.00000 0.00000
vt 1.00000 1.00000
vt 0.00000 1.00000
vt 0.00000 0.00000
vt 1.00000 0.00000
vt 1.00000 1.00000
vt 0.00000 0.00000
vt 1.00000 0.00000
vt 1.00000 1.00000
vt 0.00000 1.00000
vt 0.00000 0.00000
vt 1.00000 0.00000
vt 1.00000 1.00000
vt 0.00000 1.00000
vt 0.00000 0.00000
vt 1.00000 0.00000
vt 1.00000 1.00000
vt 0.00000 1.00000
vt 0.00000 0.00000
vt 1.00000 0.00000
vt 1.00000 1.00000
vt 0.00000 1.00000
vt 0.00000 0.00000
vt 1.00000 0.00000
vt 1.00000 1.00000
vt 0.00000 1.00000
vt 0.00000 0.00000
vt 1.00000 0.00000
vt 1.00000 1.00000
vt 0.00000 1.00000
vt 0.00000 0.00000
vt 1.00000 0.00000
vt 1.00000 1.00000
vt 0.00000 1.00000
vt 0.00000 0.00000
vt 1.00000 0.00000
vt 1.00000 1.00000
vt 0.00000 1.00000
vt 0.00000 0.00000
vt 1.00000 0.00000
vt 1.00000 1.00000
vt 0.00000 1.00000
vt 0.00000 0.00000
vt 1.00000 0.00000
vt 1.00000 1.00000
vt 0.00000 0.00000
vt 1.00000 0.00000
vt 1.00000 1.00000
vt 0.00000 1.00000
vt 0.00000 0.00000
vt 1.00000 0.00000
vt 1.00000 1.00000
vt 0.00000 0.00000
vt 1.00000 0.00000
vt 1.00000 1.00000
vt 0.00000 1.00000
vt 0.00000 0.00000
vt 1.00000 0.00000
vt 1.00000 1.00000
vt 0.00000 0.00000
vt 1.00000 0.00000
vt 1.00000 1.00000
vt 0.00000 1.00000
vt 0.00000 0.00000
vt 1.00000 0.00000
vt 1.00000 1.00000
vt 0.00000 0.00000
vt 1.00000 0.00000
vt 1.00000 1.00000
vt 0.00000 1.00000
vt 0.00000 0.00000
vt 1.00000 0.00000
vt 1.00000 1.00000
vt 0.00000 1.00000
vt 0.00000 0.00000
vt 1.00000 0.00000
vt 1.00000 1.00000
vt 0.00000 1.00000
vt 0.00000 0.00000
vt 1.00000 0.00000
vt 1.00000 1.00000
vt 0.00000 1.00000
vt 0.00000 0.00000
vt 1.00000 0.00000
vt 1.00000 1.00000
vt 0.00000 1.00000
vt 0.00000 0.00000
vt 1.00000 0.00000
vt 1.00000 1.00000
vt 0.00000 1.00000
vt 0.00000 0.00000
vt 1.00000 0.00000
vt 1.00000 1.00000
vt 0.00000 1.00000
vt 0.00000 0.00000
vt 1.00000 0.00000
vt 1.00000 1.00000
vt 0.00000 1.00000
vt 0.00000 0.00000
vt 1.00000 0.00000
vt 1.00000 1.00000
vt 0.00000 1.00000
vt 0.00000 0.00000
vt 1.00000 0.00000
vt 1.00000 1.00000
vt 0.00000 1.00000
vt 0.00000 0.00000
vt 1.00000 0.00000
vt 1.00000 1.00000
vt 0.00000 1.00000
vt 0.00000 0.00000
vt 1.00000 0.00000
vt 1.00000 1.00000
vt 0.00000 1.00000
vt 0.00000 0.00000
vt 1.00000 0.00000
vt 1.00000 1.00000
vt 0.00000 1.00000
f 1/1 2/2 3/3
f 1/1 3/3 4/4
f 5/5 6/6 7/7
f 5/5 7/7 8/8
f 9/9 10/10 11/11
f 12/12 13/13 14/14
f 12/12 14/14 15/15
f 16/16 17/17 18/18
f 19/19 20/20 21/21
f 19/19 21/21 22/22
f 23/23 24/24 25/25
f 26/26 27/27 28/28
f 26/26 28/28 29/29
f 30/30 31/31 32/32
f 33/33 34/34 35/35
f 33/33 35/35 36/36
f 37/37 38/38 39/39
f 37/37 39/39 40/40
f 41/41 42/42 43/43
f 41/41 43/43 44/44
f 45/45 46/46 47/47
f 45/45 47/47 48/48
f 49/49 50/50 51/51
f 49/49 51/51 52/52
f 53/53 54/54 55/55
f 53/53 55/55 56/56
f 57/57 58/58 59/59
f 57/57 59/59 60/60
f 61/61 62/62 63/63
f 61/61 63/63 64/64
f 65/65 66/66 67/67
f 65/65 67/67 68/68
f 69/69 70/70 71/71
f 72/72 73/73 74/74
f 72/72 74/74 75/75
f 76/76 77/77 78/78
f 79/79 80/80 81/81
f 79/79 81/81 82/82
f 83/83 84/84 85/85
f 86/86 87/87 88/88
f 86/86 88/88 89/89
f 90/90 91/91 92/92
f 93/93 94/94 95/95
f 93/93 95/95 96/96
f 97/97 98/98 99/99
f 97/97 99/99 100/100
f 101/101 102/102 103/103
f 101/101 103/103 104/104
f 105/105 106/106 107/107
f 108/108 109/109 110/110
f 108/108 110/110 111/111
f 112/112 113/113 114/114
f 115/115 116/116 117/117
f 115/115 117/117 118/118
f 119/119 120/120 121/121
f 122/122 123/123 124/124
f 122/122 124/124 125/125
f 126/126 127/127 128/128
f 129/129 130/130 131/131
f 129/129 131/131 132/132
f 133/133 134/134 135/135
f 133/133 135/135 136/136
f 137/137 138/138 139/139
f 137/137 139/139 140/140
f 141/141 142/142 143/143
f 141/141 143/143 144/144
f 145/145 146/146 147/147
f 145/145 147/147 148/148
f 149/149 150/150 151/151
f 149/149 151/151 152/152
f 153/153 154/154 155/155
f 153/153 155/155 156/156
f 157/157 158/158 159/159
f 157/157 159/159 160/160
f 161/161 162/162 163/163
f 161/161 163/163 164/164
f 165/165 166/166 167/167
f 168/168 169/169 170/170
f 168/168 170/170 171/171
f 172/172 173/173 174/174
f 175/175 176/176 177/177
f 175/175 177/177 178/178
f 179/179 180/180 181/181
f 182/182 183/183 184/184
f 182/182 184/184 185/185
f 186/186 187/187 188/188
f 189/189 190/190 191/191
f 189/189 191/191 192/192
f 193/193 194/194 195/195
f 193/193 195/195 196/196
f 197/197 198/198 199/199
f 197/197 199/199 200/200
f 201/201 202/202 203/203
f 204/204 205/205 206/206
f 204/204 206/206 207/207
f 208/208 209/209 210/210
f 211/211 212/212 213/213
f 211/211 213/213 214/214
f 215/215 216/216 217/217
f 218/218 219/219 220/220
f 218/218 220/220 221/221
f 222/222 223/223 224/224
f 225/225 226/226 227/227
f 225/225 227/227 228/228
f 229/229 230/230 231/231
f 229/229 231/231 232/232
f 233/233 234/234 235/235
f 233/233 235/235 236/236
f 237/237 238/238 239/239
f 237/237 239/239 240/240
f 241/241 242/242 243/243
f 241/241 243/243 244/244
f 245/245 246/246 247/247
f 245/245 247/247 248/248
f 249/249 250/250 251/251
f 249/249 251/251 252/252
f 253/253 254/254 255/255
f 253/253 255/255 256/256
f 257/257 258/258 259/259
f 257/257 259/259 260/260
f 261/261 262/262 263/263
f 264/264 265/265 266/266
f 264/264 266/266 267/267
f 268/268 269/269 270/270
f 271/271 272/272 273/273
f 271/271 273/273 274/274
f 275/275 276/276 277/277
f 278/278 279/279 280/280
f 278/278 280/280 281/281
f 282/282 283/283 284/284
f 285/285 286/286 287/287
f 285/285 287/287 288/288
f 289/289 290/290 291/291
f 289/289 291/291 292/292
f 293/293 294/294 295/295
f 293/293 295/295 296/296
f 297/297 298/298 299/299
f 300/300 301/301 302/302
f 300/300 302/302 303/303
f 304/304 305/305 306/306
f 307/307 308/308 309/309
f 307/307 309/309 310/310
f 311/311 312/312 313/313
f 314/314 315/315 316/316
f 314/314 316/316 317/317
f 318/318 319/319 320/320
f 321/321 322/322 323/323
f 321/321 323/323 324/324
f 325/325 326/326 327/327
f 325/325 327/327 328/328
f 329/329 330/330 331/331
f 329/329 331/331 332/332
f 333/333 334/334 335/335
f 333/333 335/335 336/336
f 337/337 338/338 339/339
f 337/337 339/339 340/340
f 341/341 342/342 343/343
f 341/341 343/343 344/344
f 345/345 346/346 347/347
f 345/345 347/347 348/348
f 349/349 350/350 351/351
f 349/349 351/351 352/352
f 353/353 354/354 355/355
f 353/353 355/355 356/356
f 357/357 358/358 359/359
f 360/360 361/361 362/362
f 360/360 362/362 363/363
f 364/364 365/365 366/366
f 367/367 368/368 369/369
f 367/367 369/369 370/370
f 371/371 372/372 373/373
f 374/374 375/375 376/376
f 374/374 376/376 377/377
f 378/378 379/379 380/380
f 381/381 382/382 383/383
f 381/381 383/383 384/384
f 385/385 386/386 387/387
f 385/385 387/387 388/388
f 389/389 390/390 391/391
f 389/389 391/391 392/392
f 393/393 394/394 395/395
f 396/396 397/397 398/398
f 396/396 398/398 399/399
f 400/400 401/401 402/402
f 403/403 404/404 405/405
f 403/403 405/405 406/406
f 407/407 408/408 409/409
f 410/410 411/411 412/412
f 410/410 412/412 413/413
f 414/414 415/415 416/416
f 417/417 418/418 419/419
f 417/417 419/419 420/420
f 421/421 422/422 423/423
f 421/421 423/423 424/424
f 425/425 426/426 427/427
f 425/425 427/427 428/428
f 429/429 430/430 431/431
f 429/429 431/431 432/432
f 433/433 434/434 435/435
f 433/433 435/435 436/436
f 437/437 438/438 439/439
f 437/437 439/439 440/440
f 441/441 442/442 443/443
f 441/441 443/443 444/444
f 445/445 446/446 447/447
f 445/445 447/447 448/448
f 449/449 450/450 451/451
f 449/449 451/451 452/452
f 453/453 454/454 455/455
f 456/456 457/457 458/458
f 456/456 458/458 459/459
f 460/460 461/461 462/462
f 463/463 464/464 465/465
f 463/463 465/465 466/466
f 467/467 468/468 469/469
f 470/470 471/471 472/472
f 470/470 472/472 473/473
f 474/474 475/475 476/476
f 477/477 478/478 479/479
f 477/477 479/479 480/480
f 481/481 482/482 483/483
f 481/481 483/483 484/484
f 485/485 486/486 487/487
f 485/485 487/487 488/488
f 489/489 490/490 491/491
f 492/492 493/493 494/494
f 492/492 494/494 495/495
f 496/496 497/497 498/498
f 499/499 500/500 501/501
f 499/499 501/501 502/502
f 503/503 504/504 505/505
f 506/506 507/507 508/508
f 506/506 508/508 509/509
f 510/510 511/511 512/512
f 513/513 514/514 515/515
f 513/513 515/515 516/516
f 517/517 518/518 519/519
f 517/517 519/519 520/520
f 521/521 522/522 523/523
f 521/521 523/523 524/524
f 525/525 526/526 527/527
f 525/525 527/527 528/528
f 529/529 530/530 531/531
f 529/529 531/531 532/532
f 533/533 534/534 535/535
f 533/533 535/535 536/536
f 537/537 538/538 539/539
f 537/537 539/539 540/540
f 541/541 542/542 543/543
f 541/541 543/543 544/544
f 545/545 546/546 547/547
f 545/545 547/547 548/548
f 549/549 550/550 551/551
f 552/552 553/553 554/554
f 552/552 554/554 555/555
f 556/556 557/557 558/558
f 559/559 560/560 561/561
f 559/559 561/561 562/562
f 563/563 564/564 565/565
f 566/566 567/567 568/568
f 566/566 568/568 569/569
f 570/570 571/571 572/572
f 573/573 574/574 575/575
f 573/573 575/575 576/576
f 577/577 578/578 579/579
f 577/577 579/579 580/580
f 581/581 582/582 583/583
f 581/581 583/583 584/584
f 585/585 586/586 587/587
f 588/588 589/589 590/590
f 588/588 590/590 591/591
f 592/592 593/593 594/594
f 595/595 596/596 597/597
f 595/595 597/597 598/598
f 599/599 600/600 601/601
f 602/602 603/603 604/604
f 602/602 604/604 605/605
f 606/606 607/607 608/608
f 609/609 610/610 611/611
f 609/609 611/611 612/612
f 613/613 614/614 615/615
f 613/613 615/615 616/616
f 617/617 618/618 619/619
f 617/617 619/619 620/620
f 621/621 622/622 623/623
f 621/621 623/623 624/624
f 625/625 626/626 627/627
f 625/625 627/627 628/628
f 629/629 630/630 631/631
f 629/629 631/631 632/632
f 633/633 634/634 635/635
f 633/633 635/635 636/636
f 637/637 638/638 639/639
f 637/637 639/639 640/640
f 641/641 642/642 643/643
f 641/641 643/643 644/644
f 645/645 646/646 647/647
f 648/648 649/649 650/650
f 648/648 650/650 651/651
f 652/652 653/653 654/654
f 655/655 656/656 657/657
f 655/655 657/657 658/658
f 659/659 660/660 661/661
f 662/662 663/663 664/664
f 662/662 664/664 665/665
f 666/666 667/667 668/668
f 669/669 670/670 671/671
f 669/669 671/671 672/672
f 673/673 674/674 675/675
f 673/673 675/675 676/676
f 677/677 678/678 679/679
f 677/677 679/679 680/680
f 681/681 682/682 683/683
f 684/684 685/685 686/686
f 684/684 686/686 687/687
f 688/688 689/689 690/690
f 691/691 692/692 693/693
f 691/691 693/693 694/694
f 695/695 696/696 697/697
f 698/698 699/699 700/700
f 698/698 700/700 701/701
f 702/702 703/703 704/704
f 705/705 706/706 707/707
f 705/705 707/707 708/708
f 709/709 710/710 711/711
f 709/709 711/711 712/712
f 713/713 714/714 715/715
f 713/713 715/715 716/716
f 717/717 718/718 719/719
f 717/717 719/719 720/720
f 721/721 722/722 723/723
f 721/721 723/723 724/724
f 725/725 726/726 727/727
f 725/725 727/727 728/728
f 729/729 730/730 731/731
f 729/729 731/731 732/732
f 733/733 734/734 735/735
f 733/733 735/735 736/736
f 737/737 738/738 739/739
f 737/737 739/739 740/740
f 741/741 742/742 743/743
f 744/744 745/745 746/746
f 744/744 746/746 747/747
f 748/748 749/749 750/750
f 751/751 752/752 753/753
f 751/751 753/753 754/754
f 755/755 756/756 757/757
f 758/758 759/759 760/760
f 758/758 760/760 761/761
f 762/762 763/763 764/764
f 765/765 766/766 767/767
f 765/765 767/767 768/768
f 769/769 770/770 771/771
f 769/769 771/771 772/772
f 773/773 774/774 775/775
f 773/773 775/775 776/776
f 777/777 778/778 779/779
f 780/780 781/781 782/782
f 780/780 782/782 783/783
f 784/784 785/785 786/786
f 787/787 788/788 789/789
f 787/787 789/789 790/790
f 791/791 792/792 793/793
f 794/794 795/795 796/796
f 794/794 796/796 797/797
f 798/798 799/799 800/800
f 801/801 802/802 803/803
f 801/801 803/803 804/804
f 805/805 806/806 807/807
f 805/805 807/807 808/808
f 809/809 810/810 811/811
f 809/809 811/811 812/812
f 813/813 814/814 815/815
f 813/813 815/815 816/816
f 817/817 818/818 819/819
f 817/817 819/819 820/820
f 821/821 822/822 823/823
f 821/821 823/823 824/824
f 825/825 826/826 827/827
f 825/825 827/827 828/828
f 829/829 830/830 831/831
f 829/829 831/831 832/832
f 833/833 834/834 835/835
f 833/833 835/835 836/836
f 837/837 838/838 839/839
f 840/840 841/841 842/842
f 840/840 842/842 843/843
f 844/844 845/845 846/846
f 847/847 848/848 849/849
f 847/847 849/849 850/850
f 851/851 852/852 853/853
f 854/854 855/855 856/856
f 854/854 856/856 857/857
f 858/858 859/859 860/860
f 861/861 862/862 863/863
f 861/861 863/863 864/864
f 865/865 866/866 867/867
f 865/865 867/867 868/868
f 869/869 870/870 871/871
f 869/869 871/871 872/872
f 873/873 874/874 875/875
f 876/876 877/877 878/878
f 876/876 878/878 879/879
f 880/880 881/881 882/882
f 883/883 884/884 885/885
f 883/883 885/885 886/886
f 887/887 888/888 889/889
f 890/890 891/891 892/892
f 890/890 892/892 893/893
f 894/894 895/895 896/896
f 897/897 898/898 899/899
f 897/897 899/899 900/900
f 901/901 902/902 903/903
f 901/901 903/903 904/904
f 905/905 906/906 907/907
f 905/905 907/907 908/908
f 909/909 910/910 911/911
f 909/909 911/911 912/912
f 913/913 914/914 915/915
f 913/913 915/915 916/916
f 917/917 918/918 919/919
f 917/917 919/919 920/920
f 921/921 922/922 923/923
f 921/921 923/923 924/924
f 925/925 926/926 927/927
f 925/925 927/927 928/928
f 929/929 930/930 931/931
f 929/929 931/931 932/932
f 933/933 934/934 935/935
f 936/936 937/937 938/938
f 936/936 938/938 939/939
f 940/940 941/941 942/942
f 943/943 944/944 945/945
f 943/943 945/945 946/946
f 947/947 948/948 949/949
f 950/950 951/951 952/952
f 950/950 952/952 953/953
f 954/954 955/955 956/956
f 957/957 958/958 959/959
f 957/957 959/959 960/960
f 961/961 962/962 963/963
f 961/961 963/963 964/964
f 965/965 966/966 967/967
f 965/965 967/967 968/968
f 969/969 970/970 971/971
f 972/972 973/973 974/974
f 972/972 974/974 975/975
f 976/976 977/977 978/978
f 979/979 980/980 981/981
f 979/979 981/981 982/982
f 983/983 984/984 985/985
f 986/986 987/987 988/988
f 986/986 988/988 989/989
f 990/990 991/991 992/992
f 993/993 994/994 995/995
f 993/993 995/995 996/996
f 997/997 998/998 999/999
f 997/997 999/999 1000/1000
f 1001/1001 1002/1002 1003/1003
f 1001/1001 1003/1003 1004/1004
f 1005/1005 1006/1006 1007/1007
f 1005/1005 1007/1007 1008/1008
f 1009/1009 1010/1010 1011/1011
f 1009/1009 1011/1011 1012/1012
f 1013/1013 1014/1014 1015/1015
f 1013/1013 1015/1015 1016/1016
f 1017/1017 1018/1018 1019/1019
f 1017/1017 1019/1019 1020/1020
f 1021/1021 1022/1022 1023/1023
f 1021/1021 1023/1023 1024/1024
f 1025/1025 1026/1026 1027/1027
f 1025/1025 1027/1027 1028/1028
f 1029/1029 1030/1030 1031/1031
f 1032/1032 1033/1033 1034/1034
f 1032/1032 1034/1034 1035/1035
f 1036/1036 1037/1037 1038/1038
f 1039/1039 1040/1040 1041/1041
f 1039/1039 1041/1041 1042/1042
f 1043/1043 1044/1044 1045/1045
f 1046/1046 1047/1047 1048/1048
f 1046/1046 1048/1048 1049/1049
f 1050/1050 1051/1051 1052/1052
f 1053/1053 1054/1054 1055/1055
f 1053/1053 1055/1055 1056/1056
f 1057/1057 1058/1058 1059/1059
f 1057/1057 1059/1059 1060/1060
f 1061/1061 1062/1062 1063/1063
f 1061/1061 1063/1063 1064/1064
f 1065/1065 1066/1066 1067/1067
f 1065/1065 1067/1067 1068/1068
f 1069/1069 1070/1070 1071/1071
f 1069/1069 1071/1071 1072/1072
f 1073/1073 1074/1074 1075/1075
f 1073/1073 1075/1075 1076/1076
f 1077/1077 1078/1078 1079/1079
f 1077/1077 1079/1079 1080/1080
f 1081/1081 1082/1082 1083/1083
f 1081/1081 1083/1083 1084/1084
f 1085/1085 1086/1086 1087/1087
f 1085/1085 1087/1087 1088/1088
f 1089/1089 1090/1090 1091/1091
f 1089/1089 1091/1091 1092/1092
f 1093/1093 1094/1094 1095/1095
f 1093/1093 1095/1095 1096/1096
f 1097/1097 1098/1098 1099/1099
f 1097/1097 1099/1099 1100/1100
f 1101/1101 1102/1102 1103/1103
f 1101/1101 1103/1103 1104/1104
