# ALMNSY original procedural source; centimetres, Z up
o SM_StoneBlock
v -47.00000 -47.00000 -50.00000
v -47.00000 47.00000 -50.00000
v 47.00000 47.00000 -50.00000
v 47.00000 -47.00000 -50.00000
v -47.00000 -47.00000 50.00000
v 47.00000 -47.00000 50.00000
v 47.00000 47.00000 50.00000
v -47.00000 47.00000 50.00000
v -47.00000 -47.00000 -50.00000
v -47.00000 -50.00000 -47.00000
v -50.00000 -47.00000 -47.00000
v -47.00000 -47.00000 -50.00000
v 47.00000 -47.00000 -50.00000
v 47.00000 -50.00000 -47.00000
v -47.00000 -50.00000 -47.00000
v 47.00000 -47.00000 -50.00000
v 50.00000 -47.00000 -47.00000
v 47.00000 -50.00000 -47.00000
v 47.00000 -47.00000 -50.00000
v 47.00000 47.00000 -50.00000
v 50.00000 47.00000 -47.00000
v 50.00000 -47.00000 -47.00000
v 47.00000 47.00000 -50.00000
v 47.00000 50.00000 -47.00000
v 50.00000 47.00000 -47.00000
v 47.00000 47.00000 -50.00000
v -47.00000 47.00000 -50.00000
v -47.00000 50.00000 -47.00000
v 47.00000 50.00000 -47.00000
v -47.00000 47.00000 -50.00000
v -50.00000 47.00000 -47.00000
v -47.00000 50.00000 -47.00000
v -47.00000 47.00000 -50.00000
v -47.00000 -47.00000 -50.00000
v -50.00000 -47.00000 -47.00000
v -50.00000 47.00000 -47.00000
v -50.00000 -47.00000 -47.00000
v -47.00000 -50.00000 -47.00000
v -47.00000 -50.00000 47.00000
v -50.00000 -47.00000 47.00000
v -47.00000 -50.00000 -47.00000
v 47.00000 -50.00000 -47.00000
v 47.00000 -50.00000 47.00000
v -47.00000 -50.00000 47.00000
v 47.00000 -50.00000 -47.00000
v 50.00000 -47.00000 -47.00000
v 50.00000 -47.00000 47.00000
v 47.00000 -50.00000 47.00000
v 50.00000 -47.00000 -47.00000
v 50.00000 47.00000 -47.00000
v 50.00000 47.00000 47.00000
v 50.00000 -47.00000 47.00000
v 50.00000 47.00000 -47.00000
v 47.00000 50.00000 -47.00000
v 47.00000 50.00000 47.00000
v 50.00000 47.00000 47.00000
v 47.00000 50.00000 -47.00000
v -47.00000 50.00000 -47.00000
v -47.00000 50.00000 47.00000
v 47.00000 50.00000 47.00000
v -47.00000 50.00000 -47.00000
v -50.00000 47.00000 -47.00000
v -50.00000 47.00000 47.00000
v -47.00000 50.00000 47.00000
v -50.00000 47.00000 -47.00000
v -50.00000 -47.00000 -47.00000
v -50.00000 -47.00000 47.00000
v -50.00000 47.00000 47.00000
v -50.00000 -47.00000 47.00000
v -47.00000 -50.00000 47.00000
v -47.00000 -47.00000 50.00000
v -47.00000 -50.00000 47.00000
v 47.00000 -50.00000 47.00000
v 47.00000 -47.00000 50.00000
v -47.00000 -47.00000 50.00000
v 47.00000 -50.00000 47.00000
v 50.00000 -47.00000 47.00000
v 47.00000 -47.00000 50.00000
v 50.00000 -47.00000 47.00000
v 50.00000 47.00000 47.00000
v 47.00000 47.00000 50.00000
v 47.00000 -47.00000 50.00000
v 50.00000 47.00000 47.00000
v 47.00000 50.00000 47.00000
v 47.00000 47.00000 50.00000
v 47.00000 50.00000 47.00000
v -47.00000 50.00000 47.00000
v -47.00000 47.00000 50.00000
v 47.00000 47.00000 50.00000
v -47.00000 50.00000 47.00000
v -50.00000 47.00000 47.00000
v -47.00000 47.00000 50.00000
v -50.00000 47.00000 47.00000
v -50.00000 -47.00000 47.00000
v -47.00000 -47.00000 50.00000
v -47.00000 47.00000 50.00000
vt 0.00000 0.00000
vt 1.00000 0.00000
vt 1.00000 1.00000
vt 0.00000 1.00000
vt 0.00000 0.00000
vt 1.00000 0.00000
vt 1.00000 1.00000
vt 0.00000 1.00000
vt 0.00000 0.00000
vt 1.00000 0.00000
vt 1.00000 1.00000
vt 0.00000 0.00000
vt 1.00000 0.00000
vt 1.00000 1.00000
vt 0.00000 1.00000
vt 0.00000 0.00000
vt 1.00000 0.00000
vt 1.00000 1.00000
vt 0.00000 0.00000
vt 1.00000 0.00000
vt 1.00000 1.00000
vt 0.00000 1.00000
vt 0.00000 0.00000
vt 1.00000 0.00000
vt 1.00000 1.00000
vt 0.00000 0.00000
vt 1.00000 0.00000
vt 1.00000 1.00000
vt 0.00000 1.00000
vt 0.00000 0.00000
vt 1.00000 0.00000
vt 1.00000 1.00000
vt 0.00000 0.00000
vt 1.00000 0.00000
vt 1.00000 1.00000
vt 0.00000 1.00000
vt 0.00000 0.00000
vt 1.00000 0.00000
vt 1.00000 1.00000
vt 0.00000 1.00000
vt 0.00000 0.00000
vt 1.00000 0.00000
vt 1.00000 1.00000
vt 0.00000 1.00000
vt 0.00000 0.00000
vt 1.00000 0.00000
vt 1.00000 1.00000
vt 0.00000 1.00000
vt 0.00000 0.00000
vt 1.00000 0.00000
vt 1.00000 1.00000
vt 0.00000 1.00000
vt 0.00000 0.00000
vt 1.00000 0.00000
vt 1.00000 1.00000
vt 0.00000 1.00000
vt 0.00000 0.00000
vt 1.00000 0.00000
vt 1.00000 1.00000
vt 0.00000 1.00000
vt 0.00000 0.00000
vt 1.00000 0.00000
vt 1.00000 1.00000
vt 0.00000 1.00000
vt 0.00000 0.00000
vt 1.00000 0.00000
vt 1.00000 1.00000
vt 0.00000 1.00000
vt 0.00000 0.00000
vt 1.00000 0.00000
vt 1.00000 1.00000
vt 0.00000 0.00000
vt 1.00000 0.00000
vt 1.00000 1.00000
vt 0.00000 1.00000
vt 0.00000 0.00000
vt 1.00000 0.00000
vt 1.00000 1.00000
vt 0.00000 0.00000
vt 1.00000 0.00000
vt 1.00000 1.00000
vt 0.00000 1.00000
vt 0.00000 0.00000
vt 1.00000 0.00000
vt 1.00000 1.00000
vt 0.00000 0.00000
vt 1.00000 0.00000
vt 1.00000 1.00000
vt 0.00000 1.00000
vt 0.00000 0.00000
vt 1.00000 0.00000
vt 1.00000 1.00000
vt 0.00000 0.00000
vt 1.00000 0.00000
vt 1.00000 1.00000
vt 0.00000 1.00000
f 1/1 2/2 3/3
f 1/1 3/3 4/4
f 5/5 6/6 7/7
f 5/5 7/7 8/8
f 9/9 10/10 11/11
f 12/12 13/13 14/14
f 12/12 14/14 15/15
f 16/16 17/17 18/18
f 19/19 20/20 21/21
f 19/19 21/21 22/22
f 23/23 24/24 25/25
f 26/26 27/27 28/28
f 26/26 28/28 29/29
f 30/30 31/31 32/32
f 33/33 34/34 35/35
f 33/33 35/35 36/36
f 37/37 38/38 39/39
f 37/37 39/39 40/40
f 41/41 42/42 43/43
f 41/41 43/43 44/44
f 45/45 46/46 47/47
f 45/45 47/47 48/48
f 49/49 50/50 51/51
f 49/49 51/51 52/52
f 53/53 54/54 55/55
f 53/53 55/55 56/56
f 57/57 58/58 59/59
f 57/57 59/59 60/60
f 61/61 62/62 63/63
f 61/61 63/63 64/64
f 65/65 66/66 67/67
f 65/65 67/67 68/68
f 69/69 70/70 71/71
f 72/72 73/73 74/74
f 72/72 74/74 75/75
f 76/76 77/77 78/78
f 79/79 80/80 81/81
f 79/79 81/81 82/82
f 83/83 84/84 85/85
f 86/86 87/87 88/88
f 86/86 88/88 89/89
f 90/90 91/91 92/92
f 93/93 94/94 95/95
f 93/93 95/95 96/96
