# ALMNSY original procedural source; centimetres, Z up
o SM_Candle
v 0.00000 0.00000 0.00000
v 3.86370 1.03528 0.00000
v 4.00000 0.00000 0.00000
v 0.00000 0.00000 0.00000
v 3.46410 2.00000 0.00000
v 3.86370 1.03528 0.00000
v 0.00000 0.00000 0.00000
v 2.82843 2.82843 0.00000
v 3.46410 2.00000 0.00000
v 0.00000 0.00000 0.00000
v 2.00000 3.46410 0.00000
v 2.82843 2.82843 0.00000
v 0.00000 0.00000 0.00000
v 1.03528 3.86370 0.00000
v 2.00000 3.46410 0.00000
v 0.00000 0.00000 0.00000
v 0.00000 4.00000 0.00000
v 1.03528 3.86370 0.00000
v 0.00000 0.00000 0.00000
v -1.03528 3.86370 0.00000
v 0.00000 4.00000 0.00000
v 0.00000 0.00000 0.00000
v -2.00000 3.46410 0.00000
v -1.03528 3.86370 0.00000
v 0.00000 0.00000 0.00000
v -2.82843 2.82843 0.00000
v -2.00000 3.46410 0.00000
v 0.00000 0.00000 0.00000
v -3.46410 2.00000 0.00000
v -2.82843 2.82843 0.00000
v 0.00000 0.00000 0.00000
v -3.86370 1.03528 0.00000
v -3.46410 2.00000 0.00000
v 0.00000 0.00000 0.00000
v -4.00000 0.00000 0.00000
v -3.86370 1.03528 0.00000
v 0.00000 0.00000 0.00000
v -3.86370 -1.03528 0.00000
v -4.00000 0.00000 0.00000
v 0.00000 0.00000 0.00000
v -3.46410 -2.00000 0.00000
v -3.86370 -1.03528 0.00000
v 0.00000 0.00000 0.00000
v -2.82843 -2.82843 0.00000
v -3.46410 -2.00000 0.00000
v 0.00000 0.00000 0.00000
v -2.00000 -3.46410 0.00000
v -2.82843 -2.82843 0.00000
v 0.00000 0.00000 0.00000
v -1.03528 -3.86370 0.00000
v -2.00000 -3.46410 0.00000
v 0.00000 0.00000 0.00000
v -0.00000 -4.00000 0.00000
v -1.03528 -3.86370 0.00000
v 0.00000 0.00000 0.00000
v 1.03528 -3.86370 0.00000
v -0.00000 -4.00000 0.00000
v 0.00000 0.00000 0.00000
v 2.00000 -3.46410 0.00000
v 1.03528 -3.86370 0.00000
v 0.00000 0.00000 0.00000
v 2.82843 -2.82843 0.00000
v 2.00000 -3.46410 0.00000
v 0.00000 0.00000 0.00000
v 3.46410 -2.00000 0.00000
v 2.82843 -2.82843 0.00000
v 0.00000 0.00000 0.00000
v 3.86370 -1.03528 0.00000
v 3.46410 -2.00000 0.00000
v 0.00000 0.00000 0.00000
v 4.00000 -0.00000 0.00000
v 3.86370 -1.03528 0.00000
v 4.00000 0.00000 0.00000
v 3.86370 1.03528 0.00000
v 3.86370 1.03528 24.00000
v 4.00000 0.00000 24.00000
v 3.86370 1.03528 0.00000
v 3.46410 2.00000 0.00000
v 3.46410 2.00000 24.00000
v 3.86370 1.03528 24.00000
v 3.46410 2.00000 0.00000
v 2.82843 2.82843 0.00000
v 2.82843 2.82843 24.00000
v 3.46410 2.00000 24.00000
v 2.82843 2.82843 0.00000
v 2.00000 3.46410 0.00000
v 2.00000 3.46410 24.00000
v 2.82843 2.82843 24.00000
v 2.00000 3.46410 0.00000
v 1.03528 3.86370 0.00000
v 1.03528 3.86370 24.00000
v 2.00000 3.46410 24.00000
v 1.03528 3.86370 0.00000
v 0.00000 4.00000 0.00000
v 0.00000 4.00000 24.00000
v 1.03528 3.86370 24.00000
v 0.00000 4.00000 0.00000
v -1.03528 3.86370 0.00000
v -1.03528 3.86370 24.00000
v 0.00000 4.00000 24.00000
v -1.03528 3.86370 0.00000
v -2.00000 3.46410 0.00000
v -2.00000 3.46410 24.00000
v -1.03528 3.86370 24.00000
v -2.00000 3.46410 0.00000
v -2.82843 2.82843 0.00000
v -2.82843 2.82843 24.00000
v -2.00000 3.46410 24.00000
v -2.82843 2.82843 0.00000
v -3.46410 2.00000 0.00000
v -3.46410 2.00000 24.00000
v -2.82843 2.82843 24.00000
v -3.46410 2.00000 0.00000
v -3.86370 1.03528 0.00000
v -3.86370 1.03528 24.00000
v -3.46410 2.00000 24.00000
v -3.86370 1.03528 0.00000
v -4.00000 0.00000 0.00000
v -4.00000 0.00000 24.00000
v -3.86370 1.03528 24.00000
v -4.00000 0.00000 0.00000
v -3.86370 -1.03528 0.00000
v -3.86370 -1.03528 24.00000
v -4.00000 0.00000 24.00000
v -3.86370 -1.03528 0.00000
v -3.46410 -2.00000 0.00000
v -3.46410 -2.00000 24.00000
v -3.86370 -1.03528 24.00000
v -3.46410 -2.00000 0.00000
v -2.82843 -2.82843 0.00000
v -2.82843 -2.82843 24.00000
v -3.46410 -2.00000 24.00000
v -2.82843 -2.82843 0.00000
v -2.00000 -3.46410 0.00000
v -2.00000 -3.46410 24.00000
v -2.82843 -2.82843 24.00000
v -2.00000 -3.46410 0.00000
v -1.03528 -3.86370 0.00000
v -1.03528 -3.86370 24.00000
v -2.00000 -3.46410 24.00000
v -1.03528 -3.86370 0.00000
v -0.00000 -4.00000 0.00000
v -0.00000 -4.00000 24.00000
v -1.03528 -3.86370 24.00000
v -0.00000 -4.00000 0.00000
v 1.03528 -3.86370 0.00000
v 1.03528 -3.86370 24.00000
v -0.00000 -4.00000 24.00000
v 1.03528 -3.86370 0.00000
v 2.00000 -3.46410 0.00000
v 2.00000 -3.46410 24.00000
v 1.03528 -3.86370 24.00000
v 2.00000 -3.46410 0.00000
v 2.82843 -2.82843 0.00000
v 2.82843 -2.82843 24.00000
v 2.00000 -3.46410 24.00000
v 2.82843 -2.82843 0.00000
v 3.46410 -2.00000 0.00000
v 3.46410 -2.00000 24.00000
v 2.82843 -2.82843 24.00000
v 3.46410 -2.00000 0.00000
v 3.86370 -1.03528 0.00000
v 3.86370 -1.03528 24.00000
v 3.46410 -2.00000 24.00000
v 3.86370 -1.03528 0.00000
v 4.00000 -0.00000 0.00000
v 4.00000 -0.00000 24.00000
v 3.86370 -1.03528 24.00000
v 4.00000 0.00000 24.00000
v 3.86370 1.03528 24.00000
v 2.89778 0.77646 26.00000
v 3.00000 0.00000 26.00000
v 3.86370 1.03528 24.00000
v 3.46410 2.00000 24.00000
v 2.59808 1.50000 26.00000
v 2.89778 0.77646 26.00000
v 3.46410 2.00000 24.00000
v 2.82843 2.82843 24.00000
v 2.12132 2.12132 26.00000
v 2.59808 1.50000 26.00000
v 2.82843 2.82843 24.00000
v 2.00000 3.46410 24.00000
v 1.50000 2.59808 26.00000
v 2.12132 2.12132 26.00000
v 2.00000 3.46410 24.00000
v 1.03528 3.86370 24.00000
v 0.77646 2.89778 26.00000
v 1.50000 2.59808 26.00000
v 1.03528 3.86370 24.00000
v 0.00000 4.00000 24.00000
v 0.00000 3.00000 26.00000
v 0.77646 2.89778 26.00000
v 0.00000 4.00000 24.00000
v -1.03528 3.86370 24.00000
v -0.77646 2.89778 26.00000
v 0.00000 3.00000 26.00000
v -1.03528 3.86370 24.00000
v -2.00000 3.46410 24.00000
v -1.50000 2.59808 26.00000
v -0.77646 2.89778 26.00000
v -2.00000 3.46410 24.00000
v -2.82843 2.82843 24.00000
v -2.12132 2.12132 26.00000
v -1.50000 2.59808 26.00000
v -2.82843 2.82843 24.00000
v -3.46410 2.00000 24.00000
v -2.59808 1.50000 26.00000
v -2.12132 2.12132 26.00000
v -3.46410 2.00000 24.00000
v -3.86370 1.03528 24.00000
v -2.89778 0.77646 26.00000
v -2.59808 1.50000 26.00000
v -3.86370 1.03528 24.00000
v -4.00000 0.00000 24.00000
v -3.00000 0.00000 26.00000
v -2.89778 0.77646 26.00000
v -4.00000 0.00000 24.00000
v -3.86370 -1.03528 24.00000
v -2.89778 -0.77646 26.00000
v -3.00000 0.00000 26.00000
v -3.86370 -1.03528 24.00000
v -3.46410 -2.00000 24.00000
v -2.59808 -1.50000 26.00000
v -2.89778 -0.77646 26.00000
v -3.46410 -2.00000 24.00000
v -2.82843 -2.82843 24.00000
v -2.12132 -2.12132 26.00000
v -2.59808 -1.50000 26.00000
v -2.82843 -2.82843 24.00000
v -2.00000 -3.46410 24.00000
v -1.50000 -2.59808 26.00000
v -2.12132 -2.12132 26.00000
v -2.00000 -3.46410 24.00000
v -1.03528 -3.86370 24.00000
v -0.77646 -2.89778 26.00000
v -1.50000 -2.59808 26.00000
v -1.03528 -3.86370 24.00000
v -0.00000 -4.00000 24.00000
v -0.00000 -3.00000 26.00000
v -0.77646 -2.89778 26.00000
v -0.00000 -4.00000 24.00000
v 1.03528 -3.86370 24.00000
v 0.77646 -2.89778 26.00000
v -0.00000 -3.00000 26.00000
v 1.03528 -3.86370 24.00000
v 2.00000 -3.46410 24.00000
v 1.50000 -2.59808 26.00000
v 0.77646 -2.89778 26.00000
v 2.00000 -3.46410 24.00000
v 2.82843 -2.82843 24.00000
v 2.12132 -2.12132 26.00000
v 1.50000 -2.59808 26.00000
v 2.82843 -2.82843 24.00000
v 3.46410 -2.00000 24.00000
v 2.59808 -1.50000 26.00000
v 2.12132 -2.12132 26.00000
v 3.46410 -2.00000 24.00000
v 3.86370 -1.03528 24.00000
v 2.89778 -0.77646 26.00000
v 2.59808 -1.50000 26.00000
v 3.86370 -1.03528 24.00000
v 4.00000 -0.00000 24.00000
v 3.00000 -0.00000 26.00000
v 2.89778 -0.77646 26.00000
v 3.00000 0.00000 26.00000
v 2.89778 0.77646 26.00000
v 0.00000 0.00000 25.00000
v 2.89778 0.77646 26.00000
v 2.59808 1.50000 26.00000
v 0.00000 0.00000 25.00000
v 2.59808 1.50000 26.00000
v 2.12132 2.12132 26.00000
v 0.00000 0.00000 25.00000
v 2.12132 2.12132 26.00000
v 1.50000 2.59808 26.00000
v 0.00000 0.00000 25.00000
v 1.50000 2.59808 26.00000
v 0.77646 2.89778 26.00000
v 0.00000 0.00000 25.00000
v 0.77646 2.89778 26.00000
v 0.00000 3.00000 26.00000
v 0.00000 0.00000 25.00000
v 0.00000 3.00000 26.00000
v -0.77646 2.89778 26.00000
v 0.00000 0.00000 25.00000
v -0.77646 2.89778 26.00000
v -1.50000 2.59808 26.00000
v 0.00000 0.00000 25.00000
v -1.50000 2.59808 26.00000
v -2.12132 2.12132 26.00000
v 0.00000 0.00000 25.00000
v -2.12132 2.12132 26.00000
v -2.59808 1.50000 26.00000
v 0.00000 0.00000 25.00000
v -2.59808 1.50000 26.00000
v -2.89778 0.77646 26.00000
v 0.00000 0.00000 25.00000
v -2.89778 0.77646 26.00000
v -3.00000 0.00000 26.00000
v 0.00000 0.00000 25.00000
v -3.00000 0.00000 26.00000
v -2.89778 -0.77646 26.00000
v 0.00000 0.00000 25.00000
v -2.89778 -0.77646 26.00000
v -2.59808 -1.50000 26.00000
v 0.00000 0.00000 25.00000
v -2.59808 -1.50000 26.00000
v -2.12132 -2.12132 26.00000
v 0.00000 0.00000 25.00000
v -2.12132 -2.12132 26.00000
v -1.50000 -2.59808 26.00000
v 0.00000 0.00000 25.00000
v -1.50000 -2.59808 26.00000
v -0.77646 -2.89778 26.00000
v 0.00000 0.00000 25.00000
v -0.77646 -2.89778 26.00000
v -0.00000 -3.00000 26.00000
v 0.00000 0.00000 25.00000
v -0.00000 -3.00000 26.00000
v 0.77646 -2.89778 26.00000
v 0.00000 0.00000 25.00000
v 0.77646 -2.89778 26.00000
v 1.50000 -2.59808 26.00000
v 0.00000 0.00000 25.00000
v 1.50000 -2.59808 26.00000
v 2.12132 -2.12132 26.00000
v 0.00000 0.00000 25.00000
v 2.12132 -2.12132 26.00000
v 2.59808 -1.50000 26.00000
v 0.00000 0.00000 25.00000
v 2.59808 -1.50000 26.00000
v 2.89778 -0.77646 26.00000
v 0.00000 0.00000 25.00000
v 2.89778 -0.77646 26.00000
v 3.00000 -0.00000 26.00000
v 0.00000 0.00000 25.00000
vt 0.00000 0.00000
vt 0.04167 0.00000
vt 0.00000 0.00000
vt 0.04167 0.00000
vt 0.08333 0.00000
vt 0.04167 0.00000
vt 0.08333 0.00000
vt 0.12500 0.00000
vt 0.08333 0.00000
vt 0.12500 0.00000
vt 0.16667 0.00000
vt 0.12500 0.00000
vt 0.16667 0.00000
vt 0.20833 0.00000
vt 0.16667 0.00000
vt 0.20833 0.00000
vt 0.25000 0.00000
vt 0.20833 0.00000
vt 0.25000 0.00000
vt 0.29167 0.00000
vt 0.25000 0.00000
vt 0.29167 0.00000
vt 0.33333 0.00000
vt 0.29167 0.00000
vt 0.33333 0.00000
vt 0.37500 0.00000
vt 0.33333 0.00000
vt 0.37500 0.00000
vt 0.41667 0.00000
vt 0.37500 0.00000
vt 0.41667 0.00000
vt 0.45833 0.00000
vt 0.41667 0.00000
vt 0.45833 0.00000
vt 0.50000 0.00000
vt 0.45833 0.00000
vt 0.50000 0.00000
vt 0.54167 0.00000
vt 0.50000 0.00000
vt 0.54167 0.00000
vt 0.58333 0.00000
vt 0.54167 0.00000
vt 0.58333 0.00000
vt 0.62500 0.00000
vt 0.58333 0.00000
vt 0.62500 0.00000
vt 0.66667 0.00000
vt 0.62500 0.00000
vt 0.66667 0.00000
vt 0.70833 0.00000
vt 0.66667 0.00000
vt 0.70833 0.00000
vt 0.75000 0.00000
vt 0.70833 0.00000
vt 0.75000 0.00000
vt 0.79167 0.00000
vt 0.75000 0.00000
vt 0.79167 0.00000
vt 0.83333 0.00000
vt 0.79167 0.00000
vt 0.83333 0.00000
vt 0.87500 0.00000
vt 0.83333 0.00000
vt 0.87500 0.00000
vt 0.91667 0.00000
vt 0.87500 0.00000
vt 0.91667 0.00000
vt 0.95833 0.00000
vt 0.91667 0.00000
vt 0.95833 0.00000
vt 1.00000 0.00000
vt 0.95833 0.00000
vt 0.00000 0.00000
vt 0.04167 0.00000
vt 0.04167 0.24000
vt 0.00000 0.24000
vt 0.04167 0.00000
vt 0.08333 0.00000
vt 0.08333 0.24000
vt 0.04167 0.24000
vt 0.08333 0.00000
vt 0.12500 0.00000
vt 0.12500 0.24000
vt 0.08333 0.24000
vt 0.12500 0.00000
vt 0.16667 0.00000
vt 0.16667 0.24000
vt 0.12500 0.24000
vt 0.16667 0.00000
vt 0.20833 0.00000
vt 0.20833 0.24000
vt 0.16667 0.24000
vt 0.20833 0.00000
vt 0.25000 0.00000
vt 0.25000 0.24000
vt 0.20833 0.24000
vt 0.25000 0.00000
vt 0.29167 0.00000
vt 0.29167 0.24000
vt 0.25000 0.24000
vt 0.29167 0.00000
vt 0.33333 0.00000
vt 0.33333 0.24000
vt 0.29167 0.24000
vt 0.33333 0.00000
vt 0.37500 0.00000
vt 0.37500 0.24000
vt 0.33333 0.24000
vt 0.37500 0.00000
vt 0.41667 0.00000
vt 0.41667 0.24000
vt 0.37500 0.24000
vt 0.41667 0.00000
vt 0.45833 0.00000
vt 0.45833 0.24000
vt 0.41667 0.24000
vt 0.45833 0.00000
vt 0.50000 0.00000
vt 0.50000 0.24000
vt 0.45833 0.24000
vt 0.50000 0.00000
vt 0.54167 0.00000
vt 0.54167 0.24000
vt 0.50000 0.24000
vt 0.54167 0.00000
vt 0.58333 0.00000
vt 0.58333 0.24000
vt 0.54167 0.24000
vt 0.58333 0.00000
vt 0.62500 0.00000
vt 0.62500 0.24000
vt 0.58333 0.24000
vt 0.62500 0.00000
vt 0.66667 0.00000
vt 0.66667 0.24000
vt 0.62500 0.24000
vt 0.66667 0.00000
vt 0.70833 0.00000
vt 0.70833 0.24000
vt 0.66667 0.24000
vt 0.70833 0.00000
vt 0.75000 0.00000
vt 0.75000 0.24000
vt 0.70833 0.24000
vt 0.75000 0.00000
vt 0.79167 0.00000
vt 0.79167 0.24000
vt 0.75000 0.24000
vt 0.79167 0.00000
vt 0.83333 0.00000
vt 0.83333 0.24000
vt 0.79167 0.24000
vt 0.83333 0.00000
vt 0.87500 0.00000
vt 0.87500 0.24000
vt 0.83333 0.24000
vt 0.87500 0.00000
vt 0.91667 0.00000
vt 0.91667 0.24000
vt 0.87500 0.24000
vt 0.91667 0.00000
vt 0.95833 0.00000
vt 0.95833 0.24000
vt 0.91667 0.24000
vt 0.95833 0.00000
vt 1.00000 0.00000
vt 1.00000 0.24000
vt 0.95833 0.24000
vt 0.00000 0.24000
vt 0.04167 0.24000
vt 0.04167 0.26000
vt 0.00000 0.26000
vt 0.04167 0.24000
vt 0.08333 0.24000
vt 0.08333 0.26000
vt 0.04167 0.26000
vt 0.08333 0.24000
vt 0.12500 0.24000
vt 0.12500 0.26000
vt 0.08333 0.26000
vt 0.12500 0.24000
vt 0.16667 0.24000
vt 0.16667 0.26000
vt 0.12500 0.26000
vt 0.16667 0.24000
vt 0.20833 0.24000
vt 0.20833 0.26000
vt 0.16667 0.26000
vt 0.20833 0.24000
vt 0.25000 0.24000
vt 0.25000 0.26000
vt 0.20833 0.26000
vt 0.25000 0.24000
vt 0.29167 0.24000
vt 0.29167 0.26000
vt 0.25000 0.26000
vt 0.29167 0.24000
vt 0.33333 0.24000
vt 0.33333 0.26000
vt 0.29167 0.26000
vt 0.33333 0.24000
vt 0.37500 0.24000
vt 0.37500 0.26000
vt 0.33333 0.26000
vt 0.37500 0.24000
vt 0.41667 0.24000
vt 0.41667 0.26000
vt 0.37500 0.26000
vt 0.41667 0.24000
vt 0.45833 0.24000
vt 0.45833 0.26000
vt 0.41667 0.26000
vt 0.45833 0.24000
vt 0.50000 0.24000
vt 0.50000 0.26000
vt 0.45833 0.26000
vt 0.50000 0.24000
vt 0.54167 0.24000
vt 0.54167 0.26000
vt 0.50000 0.26000
vt 0.54167 0.24000
vt 0.58333 0.24000
vt 0.58333 0.26000
vt 0.54167 0.26000
vt 0.58333 0.24000
vt 0.62500 0.24000
vt 0.62500 0.26000
vt 0.58333 0.26000
vt 0.62500 0.24000
vt 0.66667 0.24000
vt 0.66667 0.26000
vt 0.62500 0.26000
vt 0.66667 0.24000
vt 0.70833 0.24000
vt 0.70833 0.26000
vt 0.66667 0.26000
vt 0.70833 0.24000
vt 0.75000 0.24000
vt 0.75000 0.26000
vt 0.70833 0.26000
vt 0.75000 0.24000
vt 0.79167 0.24000
vt 0.79167 0.26000
vt 0.75000 0.26000
vt 0.79167 0.24000
vt 0.83333 0.24000
vt 0.83333 0.26000
vt 0.79167 0.26000
vt 0.83333 0.24000
vt 0.87500 0.24000
vt 0.87500 0.26000
vt 0.83333 0.26000
vt 0.87500 0.24000
vt 0.91667 0.24000
vt 0.91667 0.26000
vt 0.87500 0.26000
vt 0.91667 0.24000
vt 0.95833 0.24000
vt 0.95833 0.26000
vt 0.91667 0.26000
vt 0.95833 0.24000
vt 1.00000 0.24000
vt 1.00000 0.26000
vt 0.95833 0.26000
vt 0.00000 0.26000
vt 0.04167 0.26000
vt 0.00000 0.25000
vt 0.04167 0.26000
vt 0.08333 0.26000
vt 0.04167 0.25000
vt 0.08333 0.26000
vt 0.12500 0.26000
vt 0.08333 0.25000
vt 0.12500 0.26000
vt 0.16667 0.26000
vt 0.12500 0.25000
vt 0.16667 0.26000
vt 0.20833 0.26000
vt 0.16667 0.25000
vt 0.20833 0.26000
vt 0.25000 0.26000
vt 0.20833 0.25000
vt 0.25000 0.26000
vt 0.29167 0.26000
vt 0.25000 0.25000
vt 0.29167 0.26000
vt 0.33333 0.26000
vt 0.29167 0.25000
vt 0.33333 0.26000
vt 0.37500 0.26000
vt 0.33333 0.25000
vt 0.37500 0.26000
vt 0.41667 0.26000
vt 0.37500 0.25000
vt 0.41667 0.26000
vt 0.45833 0.26000
vt 0.41667 0.25000
vt 0.45833 0.26000
vt 0.50000 0.26000
vt 0.45833 0.25000
vt 0.50000 0.26000
vt 0.54167 0.26000
vt 0.50000 0.25000
vt 0.54167 0.26000
vt 0.58333 0.26000
vt 0.54167 0.25000
vt 0.58333 0.26000
vt 0.62500 0.26000
vt 0.58333 0.25000
vt 0.62500 0.26000
vt 0.66667 0.26000
vt 0.62500 0.25000
vt 0.66667 0.26000
vt 0.70833 0.26000
vt 0.66667 0.25000
vt 0.70833 0.26000
vt 0.75000 0.26000
vt 0.70833 0.25000
vt 0.75000 0.26000
vt 0.79167 0.26000
vt 0.75000 0.25000
vt 0.79167 0.26000
vt 0.83333 0.26000
vt 0.79167 0.25000
vt 0.83333 0.26000
vt 0.87500 0.26000
vt 0.83333 0.25000
vt 0.87500 0.26000
vt 0.91667 0.26000
vt 0.87500 0.25000
vt 0.91667 0.26000
vt 0.95833 0.26000
vt 0.91667 0.25000
vt 0.95833 0.26000
vt 1.00000 0.26000
vt 0.95833 0.25000
f 1/1 2/2 3/3
f 4/4 5/5 6/6
f 7/7 8/8 9/9
f 10/10 11/11 12/12
f 13/13 14/14 15/15
f 16/16 17/17 18/18
f 19/19 20/20 21/21
f 22/22 23/23 24/24
f 25/25 26/26 27/27
f 28/28 29/29 30/30
f 31/31 32/32 33/33
f 34/34 35/35 36/36
f 37/37 38/38 39/39
f 40/40 41/41 42/42
f 43/43 44/44 45/45
f 46/46 47/47 48/48
f 49/49 50/50 51/51
f 52/52 53/53 54/54
f 55/55 56/56 57/57
f 58/58 59/59 60/60
f 61/61 62/62 63/63
f 64/64 65/65 66/66
f 67/67 68/68 69/69
f 70/70 71/71 72/72
f 73/73 74/74 75/75
f 73/73 75/75 76/76
f 77/77 78/78 79/79
f 77/77 79/79 80/80
f 81/81 82/82 83/83
f 81/81 83/83 84/84
f 85/85 86/86 87/87
f 85/85 87/87 88/88
f 89/89 90/90 91/91
f 89/89 91/91 92/92
f 93/93 94/94 95/95
f 93/93 95/95 96/96
f 97/97 98/98 99/99
f 97/97 99/99 100/100
f 101/101 102/102 103/103
f 101/101 103/103 104/104
f 105/105 106/106 107/107
f 105/105 107/107 108/108
f 109/109 110/110 111/111
f 109/109 111/111 112/112
f 113/113 114/114 115/115
f 113/113 115/115 116/116
f 117/117 118/118 119/119
f 117/117 119/119 120/120
f 121/121 122/122 123/123
f 121/121 123/123 124/124
f 125/125 126/126 127/127
f 125/125 127/127 128/128
f 129/129 130/130 131/131
f 129/129 131/131 132/132
f 133/133 134/134 135/135
f 133/133 135/135 136/136
f 137/137 138/138 139/139
f 137/137 139/139 140/140
f 141/141 142/142 143/143
f 141/141 143/143 144/144
f 145/145 146/146 147/147
f 145/145 147/147 148/148
f 149/149 150/150 151/151
f 149/149 151/151 152/152
f 153/153 154/154 155/155
f 153/153 155/155 156/156
f 157/157 158/158 159/159
f 157/157 159/159 160/160
f 161/161 162/162 163/163
f 161/161 163/163 164/164
f 165/165 166/166 167/167
f 165/165 167/167 168/168
f 169/169 170/170 171/171
f 169/169 171/171 172/172
f 173/173 174/174 175/175
f 173/173 175/175 176/176
f 177/177 178/178 179/179
f 177/177 179/179 180/180
f 181/181 182/182 183/183
f 181/181 183/183 184/184
f 185/185 186/186 187/187
f 185/185 187/187 188/188
f 189/189 190/190 191/191
f 189/189 191/191 192/192
f 193/193 194/194 195/195
f 193/193 195/195 196/196
f 197/197 198/198 199/199
f 197/197 199/199 200/200
f 201/201 202/202 203/203
f 201/201 203/203 204/204
f 205/205 206/206 207/207
f 205/205 207/207 208/208
f 209/209 210/210 211/211
f 209/209 211/211 212/212
f 213/213 214/214 215/215
f 213/213 215/215 216/216
f 217/217 218/218 219/219
f 217/217 219/219 220/220
f 221/221 222/222 223/223
f 221/221 223/223 224/224
f 225/225 226/226 227/227
f 225/225 227/227 228/228
f 229/229 230/230 231/231
f 229/229 231/231 232/232
f 233/233 234/234 235/235
f 233/233 235/235 236/236
f 237/237 238/238 239/239
f 237/237 239/239 240/240
f 241/241 242/242 243/243
f 241/241 243/243 244/244
f 245/245 246/246 247/247
f 245/245 247/247 248/248
f 249/249 250/250 251/251
f 249/249 251/251 252/252
f 253/253 254/254 255/255
f 253/253 255/255 256/256
f 257/257 258/258 259/259
f 257/257 259/259 260/260
f 261/261 262/262 263/263
f 261/261 263/263 264/264
f 265/265 266/266 267/267
f 268/268 269/269 270/270
f 271/271 272/272 273/273
f 274/274 275/275 276/276
f 277/277 278/278 279/279
f 280/280 281/281 282/282
f 283/283 284/284 285/285
f 286/286 287/287 288/288
f 289/289 290/290 291/291
f 292/292 293/293 294/294
f 295/295 296/296 297/297
f 298/298 299/299 300/300
f 301/301 302/302 303/303
f 304/304 305/305 306/306
f 307/307 308/308 309/309
f 310/310 311/311 312/312
f 313/313 314/314 315/315
f 316/316 317/317 318/318
f 319/319 320/320 321/321
f 322/322 323/323 324/324
f 325/325 326/326 327/327
f 328/328 329/329 330/330
f 331/331 332/332 333/333
f 334/334 335/335 336/336
