# ALMNSY original procedural source; centimetres, Z up
o SM_Flame
v 0.00000 0.00000 0.00000
v 2.89778 0.77646 3.00000
v 3.00000 0.00000 3.00000
v 0.00000 0.00000 0.00000
v 2.59808 1.50000 3.00000
v 2.89778 0.77646 3.00000
v 0.00000 0.00000 0.00000
v 2.12132 2.12132 3.00000
v 2.59808 1.50000 3.00000
v 0.00000 0.00000 0.00000
v 1.50000 2.59808 3.00000
v 2.12132 2.12132 3.00000
v 0.00000 0.00000 0.00000
v 0.77646 2.89778 3.00000
v 1.50000 2.59808 3.00000
v 0.00000 0.00000 0.00000
v 0.00000 3.00000 3.00000
v 0.77646 2.89778 3.00000
v 0.00000 0.00000 0.00000
v -0.77646 2.89778 3.00000
v 0.00000 3.00000 3.00000
v 0.00000 0.00000 0.00000
v -1.50000 2.59808 3.00000
v -0.77646 2.89778 3.00000
v 0.00000 0.00000 0.00000
v -2.12132 2.12132 3.00000
v -1.50000 2.59808 3.00000
v 0.00000 0.00000 0.00000
v -2.59808 1.50000 3.00000
v -2.12132 2.12132 3.00000
v 0.00000 0.00000 0.00000
v -2.89778 0.77646 3.00000
v -2.59808 1.50000 3.00000
v 0.00000 0.00000 0.00000
v -3.00000 0.00000 3.00000
v -2.89778 0.77646 3.00000
v 0.00000 0.00000 0.00000
v -2.89778 -0.77646 3.00000
v -3.00000 0.00000 3.00000
v 0.00000 0.00000 0.00000
v -2.59808 -1.50000 3.00000
v -2.89778 -0.77646 3.00000
v 0.00000 0.00000 0.00000
v -2.12132 -2.12132 3.00000
v -2.59808 -1.50000 3.00000
v 0.00000 0.00000 0.00000
v -1.50000 -2.59808 3.00000
v -2.12132 -2.12132 3.00000
v 0.00000 0.00000 0.00000
v -0.77646 -2.89778 3.00000
v -1.50000 -2.59808 3.00000
v 0.00000 0.00000 0.00000
v -0.00000 -3.00000 3.00000
v -0.77646 -2.89778 3.00000
v 0.00000 0.00000 0.00000
v 0.77646 -2.89778 3.00000
v -0.00000 -3.00000 3.00000
v 0.00000 0.00000 0.00000
v 1.50000 -2.59808 3.00000
v 0.77646 -2.89778 3.00000
v 0.00000 0.00000 0.00000
v 2.12132 -2.12132 3.00000
v 1.50000 -2.59808 3.00000
v 0.00000 0.00000 0.00000
v 2.59808 -1.50000 3.00000
v 2.12132 -2.12132 3.00000
v 0.00000 0.00000 0.00000
v 2.89778 -0.77646 3.00000
v 2.59808 -1.50000 3.00000
v 0.00000 0.00000 0.00000
v 3.00000 -0.00000 3.00000
v 2.89778 -0.77646 3.00000
v 3.00000 0.00000 3.00000
v 2.89778 0.77646 3.00000
v 1.93185 0.51764 9.00000
v 2.00000 0.00000 9.00000
v 2.89778 0.77646 3.00000
v 2.59808 1.50000 3.00000
v 1.73205 1.00000 9.00000
v 1.93185 0.51764 9.00000
v 2.59808 1.50000 3.00000
v 2.12132 2.12132 3.00000
v 1.41421 1.41421 9.00000
v 1.73205 1.00000 9.00000
v 2.12132 2.12132 3.00000
v 1.50000 2.59808 3.00000
v 1.00000 1.73205 9.00000
v 1.41421 1.41421 9.00000
v 1.50000 2.59808 3.00000
v 0.77646 2.89778 3.00000
v 0.51764 1.93185 9.00000
v 1.00000 1.73205 9.00000
v 0.77646 2.89778 3.00000
v 0.00000 3.00000 3.00000
v 0.00000 2.00000 9.00000
v 0.51764 1.93185 9.00000
v 0.00000 3.00000 3.00000
v -0.77646 2.89778 3.00000
v -0.51764 1.93185 9.00000
v 0.00000 2.00000 9.00000
v -0.77646 2.89778 3.00000
v -1.50000 2.59808 3.00000
v -1.00000 1.73205 9.00000
v -0.51764 1.93185 9.00000
v -1.50000 2.59808 3.00000
v -2.12132 2.12132 3.00000
v -1.41421 1.41421 9.00000
v -1.00000 1.73205 9.00000
v -2.12132 2.12132 3.00000
v -2.59808 1.50000 3.00000
v -1.73205 1.00000 9.00000
v -1.41421 1.41421 9.00000
v -2.59808 1.50000 3.00000
v -2.89778 0.77646 3.00000
v -1.93185 0.51764 9.00000
v -1.73205 1.00000 9.00000
v -2.89778 0.77646 3.00000
v -3.00000 0.00000 3.00000
v -2.00000 0.00000 9.00000
v -1.93185 0.51764 9.00000
v -3.00000 0.00000 3.00000
v -2.89778 -0.77646 3.00000
v -1.93185 -0.51764 9.00000
v -2.00000 0.00000 9.00000
v -2.89778 -0.77646 3.00000
v -2.59808 -1.50000 3.00000
v -1.73205 -1.00000 9.00000
v -1.93185 -0.51764 9.00000
v -2.59808 -1.50000 3.00000
v -2.12132 -2.12132 3.00000
v -1.41421 -1.41421 9.00000
v -1.73205 -1.00000 9.00000
v -2.12132 -2.12132 3.00000
v -1.50000 -2.59808 3.00000
v -1.00000 -1.73205 9.00000
v -1.41421 -1.41421 9.00000
v -1.50000 -2.59808 3.00000
v -0.77646 -2.89778 3.00000
v -0.51764 -1.93185 9.00000
v -1.00000 -1.73205 9.00000
v -0.77646 -2.89778 3.00000
v -0.00000 -3.00000 3.00000
v -0.00000 -2.00000 9.00000
v -0.51764 -1.93185 9.00000
v -0.00000 -3.00000 3.00000
v 0.77646 -2.89778 3.00000
v 0.51764 -1.93185 9.00000
v -0.00000 -2.00000 9.00000
v 0.77646 -2.89778 3.00000
v 1.50000 -2.59808 3.00000
v 1.00000 -1.73205 9.00000
v 0.51764 -1.93185 9.00000
v 1.50000 -2.59808 3.00000
v 2.12132 -2.12132 3.00000
v 1.41421 -1.41421 9.00000
v 1.00000 -1.73205 9.00000
v 2.12132 -2.12132 3.00000
v 2.59808 -1.50000 3.00000
v 1.73205 -1.00000 9.00000
v 1.41421 -1.41421 9.00000
v 2.59808 -1.50000 3.00000
v 2.89778 -0.77646 3.00000
v 1.93185 -0.51764 9.00000
v 1.73205 -1.00000 9.00000
v 2.89778 -0.77646 3.00000
v 3.00000 -0.00000 3.00000
v 2.00000 -0.00000 9.00000
v 1.93185 -0.51764 9.00000
v 2.00000 0.00000 9.00000
v 1.93185 0.51764 9.00000
v 0.00000 0.00000 17.00000
v 1.93185 0.51764 9.00000
v 1.73205 1.00000 9.00000
v 0.00000 0.00000 17.00000
v 1.73205 1.00000 9.00000
v 1.41421 1.41421 9.00000
v 0.00000 0.00000 17.00000
v 1.41421 1.41421 9.00000
v 1.00000 1.73205 9.00000
v 0.00000 0.00000 17.00000
v 1.00000 1.73205 9.00000
v 0.51764 1.93185 9.00000
v 0.00000 0.00000 17.00000
v 0.51764 1.93185 9.00000
v 0.00000 2.00000 9.00000
v 0.00000 0.00000 17.00000
v 0.00000 2.00000 9.00000
v -0.51764 1.93185 9.00000
v 0.00000 0.00000 17.00000
v -0.51764 1.93185 9.00000
v -1.00000 1.73205 9.00000
v 0.00000 0.00000 17.00000
v -1.00000 1.73205 9.00000
v -1.41421 1.41421 9.00000
v 0.00000 0.00000 17.00000
v -1.41421 1.41421 9.00000
v -1.73205 1.00000 9.00000
v 0.00000 0.00000 17.00000
v -1.73205 1.00000 9.00000
v -1.93185 0.51764 9.00000
v 0.00000 0.00000 17.00000
v -1.93185 0.51764 9.00000
v -2.00000 0.00000 9.00000
v 0.00000 0.00000 17.00000
v -2.00000 0.00000 9.00000
v -1.93185 -0.51764 9.00000
v 0.00000 0.00000 17.00000
v -1.93185 -0.51764 9.00000
v -1.73205 -1.00000 9.00000
v 0.00000 0.00000 17.00000
v -1.73205 -1.00000 9.00000
v -1.41421 -1.41421 9.00000
v 0.00000 0.00000 17.00000
v -1.41421 -1.41421 9.00000
v -1.00000 -1.73205 9.00000
v 0.00000 0.00000 17.00000
v -1.00000 -1.73205 9.00000
v -0.51764 -1.93185 9.00000
v 0.00000 0.00000 17.00000
v -0.51764 -1.93185 9.00000
v -0.00000 -2.00000 9.00000
v 0.00000 0.00000 17.00000
v -0.00000 -2.00000 9.00000
v 0.51764 -1.93185 9.00000
v 0.00000 0.00000 17.00000
v 0.51764 -1.93185 9.00000
v 1.00000 -1.73205 9.00000
v 0.00000 0.00000 17.00000
v 1.00000 -1.73205 9.00000
v 1.41421 -1.41421 9.00000
v 0.00000 0.00000 17.00000
v 1.41421 -1.41421 9.00000
v 1.73205 -1.00000 9.00000
v 0.00000 0.00000 17.00000
v 1.73205 -1.00000 9.00000
v 1.93185 -0.51764 9.00000
v 0.00000 0.00000 17.00000
v 1.93185 -0.51764 9.00000
v 2.00000 -0.00000 9.00000
v 0.00000 0.00000 17.00000
vt 0.00000 0.00000
vt 0.04167 0.03000
vt 0.00000 0.03000
vt 0.04167 0.00000
vt 0.08333 0.03000
vt 0.04167 0.03000
vt 0.08333 0.00000
vt 0.12500 0.03000
vt 0.08333 0.03000
vt 0.12500 0.00000
vt 0.16667 0.03000
vt 0.12500 0.03000
vt 0.16667 0.00000
vt 0.20833 0.03000
vt 0.16667 0.03000
vt 0.20833 0.00000
vt 0.25000 0.03000
vt 0.20833 0.03000
vt 0.25000 0.00000
vt 0.29167 0.03000
vt 0.25000 0.03000
vt 0.29167 0.00000
vt 0.33333 0.03000
vt 0.29167 0.03000
vt 0.33333 0.00000
vt 0.37500 0.03000
vt 0.33333 0.03000
vt 0.37500 0.00000
vt 0.41667 0.03000
vt 0.37500 0.03000
vt 0.41667 0.00000
vt 0.45833 0.03000
vt 0.41667 0.03000
vt 0.45833 0.00000
vt 0.50000 0.03000
vt 0.45833 0.03000
vt 0.50000 0.00000
vt 0.54167 0.03000
vt 0.50000 0.03000
vt 0.54167 0.00000
vt 0.58333 0.03000
vt 0.54167 0.03000
vt 0.58333 0.00000
vt 0.62500 0.03000
vt 0.58333 0.03000
vt 0.62500 0.00000
vt 0.66667 0.03000
vt 0.62500 0.03000
vt 0.66667 0.00000
vt 0.70833 0.03000
vt 0.66667 0.03000
vt 0.70833 0.00000
vt 0.75000 0.03000
vt 0.70833 0.03000
vt 0.75000 0.00000
vt 0.79167 0.03000
vt 0.75000 0.03000
vt 0.79167 0.00000
vt 0.83333 0.03000
vt 0.79167 0.03000
vt 0.83333 0.00000
vt 0.87500 0.03000
vt 0.83333 0.03000
vt 0.87500 0.00000
vt 0.91667 0.03000
vt 0.87500 0.03000
vt 0.91667 0.00000
vt 0.95833 0.03000
vt 0.91667 0.03000
vt 0.95833 0.00000
vt 1.00000 0.03000
vt 0.95833 0.03000
vt 0.00000 0.03000
vt 0.04167 0.03000
vt 0.04167 0.09000
vt 0.00000 0.09000
vt 0.04167 0.03000
vt 0.08333 0.03000
vt 0.08333 0.09000
vt 0.04167 0.09000
vt 0.08333 0.03000
vt 0.12500 0.03000
vt 0.12500 0.09000
vt 0.08333 0.09000
vt 0.12500 0.03000
vt 0.16667 0.03000
vt 0.16667 0.09000
vt 0.12500 0.09000
vt 0.16667 0.03000
vt 0.20833 0.03000
vt 0.20833 0.09000
vt 0.16667 0.09000
vt 0.20833 0.03000
vt 0.25000 0.03000
vt 0.25000 0.09000
vt 0.20833 0.09000
vt 0.25000 0.03000
vt 0.29167 0.03000
vt 0.29167 0.09000
vt 0.25000 0.09000
vt 0.29167 0.03000
vt 0.33333 0.03000
vt 0.33333 0.09000
vt 0.29167 0.09000
vt 0.33333 0.03000
vt 0.37500 0.03000
vt 0.37500 0.09000
vt 0.33333 0.09000
vt 0.37500 0.03000
vt 0.41667 0.03000
vt 0.41667 0.09000
vt 0.37500 0.09000
vt 0.41667 0.03000
vt 0.45833 0.03000
vt 0.45833 0.09000
vt 0.41667 0.09000
vt 0.45833 0.03000
vt 0.50000 0.03000
vt 0.50000 0.09000
vt 0.45833 0.09000
vt 0.50000 0.03000
vt 0.54167 0.03000
vt 0.54167 0.09000
vt 0.50000 0.09000
vt 0.54167 0.03000
vt 0.58333 0.03000
vt 0.58333 0.09000
vt 0.54167 0.09000
vt 0.58333 0.03000
vt 0.62500 0.03000
vt 0.62500 0.09000
vt 0.58333 0.09000
vt 0.62500 0.03000
vt 0.66667 0.03000
vt 0.66667 0.09000
vt 0.62500 0.09000
vt 0.66667 0.03000
vt 0.70833 0.03000
vt 0.70833 0.09000
vt 0.66667 0.09000
vt 0.70833 0.03000
vt 0.75000 0.03000
vt 0.75000 0.09000
vt 0.70833 0.09000
vt 0.75000 0.03000
vt 0.79167 0.03000
vt 0.79167 0.09000
vt 0.75000 0.09000
vt 0.79167 0.03000
vt 0.83333 0.03000
vt 0.83333 0.09000
vt 0.79167 0.09000
vt 0.83333 0.03000
vt 0.87500 0.03000
vt 0.87500 0.09000
vt 0.83333 0.09000
vt 0.87500 0.03000
vt 0.91667 0.03000
vt 0.91667 0.09000
vt 0.87500 0.09000
vt 0.91667 0.03000
vt 0.95833 0.03000
vt 0.95833 0.09000
vt 0.91667 0.09000
vt 0.95833 0.03000
vt 1.00000 0.03000
vt 1.00000 0.09000
vt 0.95833 0.09000
vt 0.00000 0.09000
vt 0.04167 0.09000
vt 0.00000 0.17000
vt 0.04167 0.09000
vt 0.08333 0.09000
vt 0.04167 0.17000
vt 0.08333 0.09000
vt 0.12500 0.09000
vt 0.08333 0.17000
vt 0.12500 0.09000
vt 0.16667 0.09000
vt 0.12500 0.17000
vt 0.16667 0.09000
vt 0.20833 0.09000
vt 0.16667 0.17000
vt 0.20833 0.09000
vt 0.25000 0.09000
vt 0.20833 0.17000
vt 0.25000 0.09000
vt 0.29167 0.09000
vt 0.25000 0.17000
vt 0.29167 0.09000
vt 0.33333 0.09000
vt 0.29167 0.17000
vt 0.33333 0.09000
vt 0.37500 0.09000
vt 0.33333 0.17000
vt 0.37500 0.09000
vt 0.41667 0.09000
vt 0.37500 0.17000
vt 0.41667 0.09000
vt 0.45833 0.09000
vt 0.41667 0.17000
vt 0.45833 0.09000
vt 0.50000 0.09000
vt 0.45833 0.17000
vt 0.50000 0.09000
vt 0.54167 0.09000
vt 0.50000 0.17000
vt 0.54167 0.09000
vt 0.58333 0.09000
vt 0.54167 0.17000
vt 0.58333 0.09000
vt 0.62500 0.09000
vt 0.58333 0.17000
vt 0.62500 0.09000
vt 0.66667 0.09000
vt 0.62500 0.17000
vt 0.66667 0.09000
vt 0.70833 0.09000
vt 0.66667 0.17000
vt 0.70833 0.09000
vt 0.75000 0.09000
vt 0.70833 0.17000
vt 0.75000 0.09000
vt 0.79167 0.09000
vt 0.75000 0.17000
vt 0.79167 0.09000
vt 0.83333 0.09000
vt 0.79167 0.17000
vt 0.83333 0.09000
vt 0.87500 0.09000
vt 0.83333 0.17000
vt 0.87500 0.09000
vt 0.91667 0.09000
vt 0.87500 0.17000
vt 0.91667 0.09000
vt 0.95833 0.09000
vt 0.91667 0.17000
vt 0.95833 0.09000
vt 1.00000 0.09000
vt 0.95833 0.17000
f 1/1 2/2 3/3
f 4/4 5/5 6/6
f 7/7 8/8 9/9
f 10/10 11/11 12/12
f 13/13 14/14 15/15
f 16/16 17/17 18/18
f 19/19 20/20 21/21
f 22/22 23/23 24/24
f 25/25 26/26 27/27
f 28/28 29/29 30/30
f 31/31 32/32 33/33
f 34/34 35/35 36/36
f 37/37 38/38 39/39
f 40/40 41/41 42/42
f 43/43 44/44 45/45
f 46/46 47/47 48/48
f 49/49 50/50 51/51
f 52/52 53/53 54/54
f 55/55 56/56 57/57
f 58/58 59/59 60/60
f 61/61 62/62 63/63
f 64/64 65/65 66/66
f 67/67 68/68 69/69
f 70/70 71/71 72/72
f 73/73 74/74 75/75
f 73/73 75/75 76/76
f 77/77 78/78 79/79
f 77/77 79/79 80/80
f 81/81 82/82 83/83
f 81/81 83/83 84/84
f 85/85 86/86 87/87
f 85/85 87/87 88/88
f 89/89 90/90 91/91
f 89/89 91/91 92/92
f 93/93 94/94 95/95
f 93/93 95/95 96/96
f 97/97 98/98 99/99
f 97/97 99/99 100/100
f 101/101 102/102 103/103
f 101/101 103/103 104/104
f 105/105 106/106 107/107
f 105/105 107/107 108/108
f 109/109 110/110 111/111
f 109/109 111/111 112/112
f 113/113 114/114 115/115
f 113/113 115/115 116/116
f 117/117 118/118 119/119
f 117/117 119/119 120/120
f 121/121 122/122 123/123
f 121/121 123/123 124/124
f 125/125 126/126 127/127
f 125/125 127/127 128/128
f 129/129 130/130 131/131
f 129/129 131/131 132/132
f 133/133 134/134 135/135
f 133/133 135/135 136/136
f 137/137 138/138 139/139
f 137/137 139/139 140/140
f 141/141 142/142 143/143
f 141/141 143/143 144/144
f 145/145 146/146 147/147
f 145/145 147/147 148/148
f 149/149 150/150 151/151
f 149/149 151/151 152/152
f 153/153 154/154 155/155
f 153/153 155/155 156/156
f 157/157 158/158 159/159
f 157/157 159/159 160/160
f 161/161 162/162 163/163
f 161/161 163/163 164/164
f 165/165 166/166 167/167
f 165/165 167/167 168/168
f 169/169 170/170 171/171
f 172/172 173/173 174/174
f 175/175 176/176 177/177
f 178/178 179/179 180/180
f 181/181 182/182 183/183
f 184/184 185/185 186/186
f 187/187 188/188 189/189
f 190/190 191/191 192/192
f 193/193 194/194 195/195
f 196/196 197/197 198/198
f 199/199 200/200 201/201
f 202/202 203/203 204/204
f 205/205 206/206 207/207
f 208/208 209/209 210/210
f 211/211 212/212 213/213
f 214/214 215/215 216/216
f 217/217 218/218 219/219
f 220/220 221/221 222/222
f 223/223 224/224 225/225
f 226/226 227/227 228/228
f 229/229 230/230 231/231
f 232/232 233/233 234/234
f 235/235 236/236 237/237
f 238/238 239/239 240/240
