# ALMNSY original procedural source; centimetres, Z up
o SM_PointedArch
v -375.00000 -55.00000 0.00000
v -375.00000 55.00000 0.00000
v -300.00000 55.00000 0.00000
v -300.00000 -55.00000 0.00000
v -375.00000 -55.00000 350.00000
v -300.00000 -55.00000 350.00000
v -300.00000 55.00000 350.00000
v -375.00000 55.00000 350.00000
v -375.00000 -55.00000 0.00000
v -300.00000 -55.00000 0.00000
v -300.00000 -55.00000 350.00000
v -375.00000 -55.00000 350.00000
v -300.00000 -55.00000 0.00000
v -300.00000 55.00000 0.00000
v -300.00000 55.00000 350.00000
v -300.00000 -55.00000 350.00000
v -300.00000 55.00000 0.00000
v -375.00000 55.00000 0.00000
v -375.00000 55.00000 350.00000
v -300.00000 55.00000 350.00000
v -375.00000 55.00000 0.00000
v -375.00000 -55.00000 0.00000
v -375.00000 -55.00000 350.00000
v -375.00000 55.00000 350.00000
v 300.00000 -55.00000 0.00000
v 300.00000 55.00000 0.00000
v 375.00000 55.00000 0.00000
v 375.00000 -55.00000 0.00000
v 300.00000 -55.00000 350.00000
v 375.00000 -55.00000 350.00000
v 375.00000 55.00000 350.00000
v 300.00000 55.00000 350.00000
v 300.00000 -55.00000 0.00000
v 375.00000 -55.00000 0.00000
v 375.00000 -55.00000 350.00000
v 300.00000 -55.00000 350.00000
v 375.00000 -55.00000 0.00000
v 375.00000 55.00000 0.00000
v 375.00000 55.00000 350.00000
v 375.00000 -55.00000 350.00000
v 375.00000 55.00000 0.00000
v 300.00000 55.00000 0.00000
v 300.00000 55.00000 350.00000
v 375.00000 55.00000 350.00000
v 300.00000 55.00000 0.00000
v 300.00000 -55.00000 0.00000
v 300.00000 -55.00000 350.00000
v 300.00000 55.00000 350.00000
v -300.00000 -55.00000 350.00000
v -298.82812 -55.00000 378.32031
v -373.76400 -55.00000 381.42111
v -374.93587 -55.00000 353.10079
v -374.93587 55.00000 353.10079
v -373.76400 55.00000 381.42111
v -298.82812 55.00000 378.32031
v -300.00000 55.00000 350.00000
v -300.00000 -55.00000 350.00000
v -300.00000 55.00000 350.00000
v -298.82812 55.00000 378.32031
v -298.82812 -55.00000 378.32031
v -298.82812 -55.00000 378.32031
v -298.82812 55.00000 378.32031
v -373.76400 55.00000 381.42111
v -373.76400 -55.00000 381.42111
v -373.76400 -55.00000 381.42111
v -373.76400 55.00000 381.42111
v -374.93587 55.00000 353.10079
v -374.93587 -55.00000 353.10079
v -374.93587 -55.00000 353.10079
v -374.93587 55.00000 353.10079
v -300.00000 55.00000 350.00000
v -300.00000 -55.00000 350.00000
v -298.82812 -55.00000 378.32031
v -295.31250 -55.00000 405.78125
v -369.70533 -55.00000 415.30523
v -373.22096 -55.00000 387.84429
v -373.22096 55.00000 387.84429
v -369.70533 55.00000 415.30523
v -295.31250 55.00000 405.78125
v -298.82812 55.00000 378.32031
v -298.82812 -55.00000 378.32031
v -298.82812 55.00000 378.32031
v -295.31250 55.00000 405.78125
v -295.31250 -55.00000 405.78125
v -295.31250 -55.00000 405.78125
v -295.31250 55.00000 405.78125
v -369.70533 55.00000 415.30523
v -369.70533 -55.00000 415.30523
v -369.70533 -55.00000 415.30523
v -369.70533 55.00000 415.30523
v -373.22096 55.00000 387.84429
v -373.22096 -55.00000 387.84429
v -373.22096 -55.00000 387.84429
v -373.22096 55.00000 387.84429
v -298.82812 55.00000 378.32031
v -298.82812 -55.00000 378.32031
v -295.31250 -55.00000 405.78125
v -289.45312 -55.00000 432.38281
v -362.69740 -55.00000 448.51591
v -368.55677 -55.00000 421.91435
v -368.55677 55.00000 421.91435
v -362.69740 55.00000 448.51591
v -289.45312 55.00000 432.38281
v -295.31250 55.00000 405.78125
v -295.31250 -55.00000 405.78125
v -295.31250 55.00000 405.78125
v -289.45312 55.00000 432.38281
v -289.45312 -55.00000 432.38281
v -289.45312 -55.00000 432.38281
v -289.45312 55.00000 432.38281
v -362.69740 55.00000 448.51591
v -362.69740 -55.00000 448.51591
v -362.69740 -55.00000 448.51591
v -362.69740 55.00000 448.51591
v -368.55677 55.00000 421.91435
v -368.55677 -55.00000 421.91435
v -368.55677 -55.00000 421.91435
v -368.55677 55.00000 421.91435
v -295.31250 55.00000 405.78125
v -295.31250 -55.00000 405.78125
v -289.45312 -55.00000 432.38281
v -281.25000 -55.00000 458.12500
v -352.70946 -55.00000 480.89660
v -360.91258 -55.00000 455.15442
v -360.91258 55.00000 455.15442
v -352.70946 55.00000 480.89660
v -281.25000 55.00000 458.12500
v -289.45312 55.00000 432.38281
v -289.45312 -55.00000 432.38281
v -289.45312 55.00000 432.38281
v -281.25000 55.00000 458.12500
v -281.25000 -55.00000 458.12500
v -281.25000 -55.00000 458.12500
v -281.25000 55.00000 458.12500
v -352.70946 55.00000 480.89660
v -352.70946 -55.00000 480.89660
v -352.70946 -55.00000 480.89660
v -352.70946 55.00000 480.89660
v -360.91258 55.00000 455.15442
v -360.91258 -55.00000 455.15442
v -360.91258 -55.00000 455.15442
v -360.91258 55.00000 455.15442
v -289.45312 55.00000 432.38281
v -289.45312 -55.00000 432.38281
v -281.25000 -55.00000 458.12500
v -270.70312 -55.00000 483.00781
v -339.75620 -55.00000 512.27678
v -350.30308 -55.00000 487.39397
v -350.30308 55.00000 487.39397
v -339.75620 55.00000 512.27678
v -270.70312 55.00000 483.00781
v -281.25000 55.00000 458.12500
v -281.25000 -55.00000 458.12500
v -281.25000 55.00000 458.12500
v -270.70312 55.00000 483.00781
v -270.70312 -55.00000 483.00781
v -270.70312 -55.00000 483.00781
v -270.70312 55.00000 483.00781
v -339.75620 55.00000 512.27678
v -339.75620 -55.00000 512.27678
v -339.75620 -55.00000 512.27678
v -339.75620 55.00000 512.27678
v -350.30308 55.00000 487.39397
v -350.30308 -55.00000 487.39397
v -350.30308 -55.00000 487.39397
v -350.30308 55.00000 487.39397
v -281.25000 55.00000 458.12500
v -281.25000 -55.00000 458.12500
v -270.70312 -55.00000 483.00781
v -257.81250 -55.00000 507.03125
v -323.89952 -55.00000 542.49258
v -336.79015 -55.00000 518.46914
v -336.79015 55.00000 518.46914
v -323.89952 55.00000 542.49258
v -257.81250 55.00000 507.03125
v -270.70312 55.00000 483.00781
v -270.70312 -55.00000 483.00781
v -270.70312 55.00000 483.00781
v -257.81250 55.00000 507.03125
v -257.81250 -55.00000 507.03125
v -257.81250 -55.00000 507.03125
v -257.81250 55.00000 507.03125
v -323.89952 55.00000 542.49258
v -323.89952 -55.00000 542.49258
v -323.89952 -55.00000 542.49258
v -323.89952 55.00000 542.49258
v -336.79015 55.00000 518.46914
v -336.79015 -55.00000 518.46914
v -336.79015 -55.00000 518.46914
v -336.79015 55.00000 518.46914
v -270.70312 55.00000 483.00781
v -270.70312 -55.00000 483.00781
v -257.81250 -55.00000 507.03125
v -242.57812 -55.00000 530.19531
v -305.24079 -55.00000 571.40685
v -320.47516 -55.00000 548.24278
v -320.47516 55.00000 548.24278
v -305.24079 55.00000 571.40685
v -242.57812 55.00000 530.19531
v -257.81250 55.00000 507.03125
v -257.81250 -55.00000 507.03125
v -257.81250 55.00000 507.03125
v -242.57812 55.00000 530.19531
v -242.57812 -55.00000 530.19531
v -242.57812 -55.00000 530.19531
v -242.57812 55.00000 530.19531
v -305.24079 55.00000 571.40685
v -305.24079 -55.00000 571.40685
v -305.24079 -55.00000 571.40685
v -305.24079 55.00000 571.40685
v -320.47516 55.00000 548.24278
v -320.47516 -55.00000 548.24278
v -320.47516 -55.00000 548.24278
v -320.47516 55.00000 548.24278
v -257.81250 55.00000 507.03125
v -257.81250 -55.00000 507.03125
v -242.57812 -55.00000 530.19531
v -225.00000 -55.00000 552.50000
v -283.90580 -55.00000 598.92313
v -301.48392 -55.00000 576.61844
v -301.48392 55.00000 576.61844
v -283.90580 55.00000 598.92313
v -225.00000 55.00000 552.50000
v -242.57812 55.00000 530.19531
v -242.57812 -55.00000 530.19531
v -242.57812 55.00000 530.19531
v -225.00000 55.00000 552.50000
v -225.00000 -55.00000 552.50000
v -225.00000 -55.00000 552.50000
v -225.00000 55.00000 552.50000
v -283.90580 55.00000 598.92313
v -283.90580 -55.00000 598.92313
v -283.90580 -55.00000 598.92313
v -283.90580 55.00000 598.92313
v -301.48392 55.00000 576.61844
v -301.48392 -55.00000 576.61844
v -301.48392 -55.00000 576.61844
v -301.48392 55.00000 576.61844
v -242.57812 55.00000 530.19531
v -242.57812 -55.00000 530.19531
v -225.00000 -55.00000 552.50000
v -205.07812 -55.00000 573.94531
v -260.02694 -55.00000 624.99066
v -279.94882 -55.00000 603.54535
v -279.94882 55.00000 603.54535
v -260.02694 55.00000 624.99066
v -205.07812 55.00000 573.94531
v -225.00000 55.00000 552.50000
v -225.00000 -55.00000 552.50000
v -225.00000 55.00000 552.50000
v -205.07812 55.00000 573.94531
v -205.07812 -55.00000 573.94531
v -205.07812 -55.00000 573.94531
v -205.07812 55.00000 573.94531
v -260.02694 55.00000 624.99066
v -260.02694 -55.00000 624.99066
v -260.02694 -55.00000 624.99066
v -260.02694 55.00000 624.99066
v -279.94882 55.00000 603.54535
v -279.94882 -55.00000 603.54535
v -279.94882 -55.00000 603.54535
v -279.94882 55.00000 603.54535
v -225.00000 55.00000 552.50000
v -225.00000 -55.00000 552.50000
v -205.07812 -55.00000 573.94531
v -182.81250 -55.00000 594.53125
v -233.72763 -55.00000 649.60075
v -255.99326 -55.00000 629.01481
v -255.99326 55.00000 629.01481
v -233.72763 55.00000 649.60075
v -182.81250 55.00000 594.53125
v -205.07812 55.00000 573.94531
v -205.07812 -55.00000 573.94531
v -205.07812 55.00000 573.94531
v -182.81250 55.00000 594.53125
v -182.81250 -55.00000 594.53125
v -182.81250 -55.00000 594.53125
v -182.81250 55.00000 594.53125
v -233.72763 55.00000 649.60075
v -233.72763 -55.00000 649.60075
v -233.72763 -55.00000 649.60075
v -233.72763 55.00000 649.60075
v -255.99326 55.00000 629.01481
v -255.99326 -55.00000 629.01481
v -255.99326 -55.00000 629.01481
v -255.99326 55.00000 629.01481
v -205.07812 55.00000 573.94531
v -205.07812 -55.00000 573.94531
v -182.81250 -55.00000 594.53125
v -158.20312 -55.00000 614.25781
v -205.11187 -55.00000 672.77763
v -229.72125 -55.00000 653.05107
v -229.72125 55.00000 653.05107
v -205.11187 55.00000 672.77763
v -158.20312 55.00000 614.25781
v -182.81250 55.00000 594.53125
v -182.81250 -55.00000 594.53125
v -182.81250 55.00000 594.53125
v -158.20312 55.00000 614.25781
v -158.20312 -55.00000 614.25781
v -158.20312 -55.00000 614.25781
v -158.20312 55.00000 614.25781
v -205.11187 55.00000 672.77763
v -205.11187 -55.00000 672.77763
v -205.11187 -55.00000 672.77763
v -205.11187 55.00000 672.77763
v -229.72125 55.00000 653.05107
v -229.72125 -55.00000 653.05107
v -229.72125 -55.00000 653.05107
v -229.72125 55.00000 653.05107
v -182.81250 55.00000 594.53125
v -182.81250 -55.00000 594.53125
v -158.20312 -55.00000 614.25781
v -131.25000 -55.00000 633.12500
v -174.25968 -55.00000 694.56739
v -201.21280 -55.00000 675.70021
v -201.21280 55.00000 675.70021
v -174.25968 55.00000 694.56739
v -131.25000 55.00000 633.12500
v -158.20312 55.00000 614.25781
v -158.20312 -55.00000 614.25781
v -158.20312 55.00000 614.25781
v -131.25000 55.00000 633.12500
v -131.25000 -55.00000 633.12500
v -131.25000 -55.00000 633.12500
v -131.25000 55.00000 633.12500
v -174.25968 55.00000 694.56739
v -174.25968 -55.00000 694.56739
v -174.25968 -55.00000 694.56739
v -174.25968 55.00000 694.56739
v -201.21280 55.00000 675.70021
v -201.21280 -55.00000 675.70021
v -201.21280 -55.00000 675.70021
v -201.21280 55.00000 675.70021
v -158.20312 55.00000 614.25781
v -158.20312 -55.00000 614.25781
v -131.25000 -55.00000 633.12500
v -101.95312 -55.00000 651.13281
v -141.22715 -55.00000 715.02765
v -170.52403 -55.00000 697.01984
v -170.52403 55.00000 697.01984
v -141.22715 55.00000 715.02765
v -101.95312 55.00000 651.13281
v -131.25000 55.00000 633.12500
v -131.25000 -55.00000 633.12500
v -131.25000 55.00000 633.12500
v -101.95312 55.00000 651.13281
v -101.95312 -55.00000 651.13281
v -101.95312 -55.00000 651.13281
v -101.95312 55.00000 651.13281
v -141.22715 55.00000 715.02765
v -141.22715 -55.00000 715.02765
v -141.22715 -55.00000 715.02765
v -141.22715 55.00000 715.02765
v -170.52403 55.00000 697.01984
v -170.52403 -55.00000 697.01984
v -170.52403 -55.00000 697.01984
v -170.52403 55.00000 697.01984
v -131.25000 55.00000 633.12500
v -131.25000 -55.00000 633.12500
v -101.95312 -55.00000 651.13281
v -70.31250 -55.00000 668.28125
v -106.04947 -55.00000 734.21962
v -137.69009 -55.00000 717.07119
v -137.69009 55.00000 717.07119
v -106.04947 55.00000 734.21962
v -70.31250 55.00000 668.28125
v -101.95312 55.00000 651.13281
v -101.95312 -55.00000 651.13281
v -101.95312 55.00000 651.13281
v -70.31250 55.00000 668.28125
v -70.31250 -55.00000 668.28125
v -70.31250 -55.00000 668.28125
v -70.31250 55.00000 668.28125
v -106.04947 55.00000 734.21962
v -106.04947 -55.00000 734.21962
v -106.04947 -55.00000 734.21962
v -106.04947 55.00000 734.21962
v -137.69009 55.00000 717.07119
v -137.69009 -55.00000 717.07119
v -137.69009 -55.00000 717.07119
v -137.69009 55.00000 717.07119
v -101.95312 55.00000 651.13281
v -101.95312 -55.00000 651.13281
v -70.31250 -55.00000 668.28125
v -36.32812 -55.00000 684.57031
v -68.74504 -55.00000 752.20273
v -102.72942 -55.00000 735.91366
v -102.72942 55.00000 735.91366
v -68.74504 55.00000 752.20273
v -36.32812 55.00000 684.57031
v -70.31250 55.00000 668.28125
v -70.31250 -55.00000 668.28125
v -70.31250 55.00000 668.28125
v -36.32812 55.00000 684.57031
v -36.32812 -55.00000 684.57031
v -36.32812 -55.00000 684.57031
v -36.32812 55.00000 684.57031
v -68.74504 55.00000 752.20273
v -68.74504 -55.00000 752.20273
v -68.74504 -55.00000 752.20273
v -68.74504 55.00000 752.20273
v -102.72942 55.00000 735.91366
v -102.72942 -55.00000 735.91366
v -102.72942 -55.00000 735.91366
v -102.72942 55.00000 735.91366
v -70.31250 55.00000 668.28125
v -70.31250 -55.00000 668.28125
v -36.32812 -55.00000 684.57031
v -0.00000 -55.00000 700.00000
v -29.31983 -55.00000 769.03150
v -65.64795 -55.00000 753.60181
v -65.64795 55.00000 753.60181
v -29.31983 55.00000 769.03150
v -0.00000 55.00000 700.00000
v -36.32812 55.00000 684.57031
v -36.32812 -55.00000 684.57031
v -36.32812 55.00000 684.57031
v -0.00000 55.00000 700.00000
v -0.00000 -55.00000 700.00000
v -0.00000 -55.00000 700.00000
v -0.00000 55.00000 700.00000
v -29.31983 55.00000 769.03150
v -29.31983 -55.00000 769.03150
v -29.31983 -55.00000 769.03150
v -29.31983 55.00000 769.03150
v -65.64795 55.00000 753.60181
v -65.64795 -55.00000 753.60181
v -65.64795 -55.00000 753.60181
v -65.64795 55.00000 753.60181
v -36.32812 55.00000 684.57031
v -36.32812 -55.00000 684.57031
v -0.00000 -55.00000 700.00000
v 36.32812 -55.00000 684.57031
v 65.64795 -55.00000 753.60181
v 29.31983 -55.00000 769.03150
v 29.31983 55.00000 769.03150
v 65.64795 55.00000 753.60181
v 36.32812 55.00000 684.57031
v -0.00000 55.00000 700.00000
v -0.00000 -55.00000 700.00000
v -0.00000 55.00000 700.00000
v 36.32812 55.00000 684.57031
v 36.32812 -55.00000 684.57031
v 36.32812 -55.00000 684.57031
v 36.32812 55.00000 684.57031
v 65.64795 55.00000 753.60181
v 65.64795 -55.00000 753.60181
v 65.64795 -55.00000 753.60181
v 65.64795 55.00000 753.60181
v 29.31983 55.00000 769.03150
v 29.31983 -55.00000 769.03150
v 29.31983 -55.00000 769.03150
v 29.31983 55.00000 769.03150
v -0.00000 55.00000 700.00000
v -0.00000 -55.00000 700.00000
v 36.32812 -55.00000 684.57031
v 70.31250 -55.00000 668.28125
v 102.72942 -55.00000 735.91366
v 68.74504 -55.00000 752.20273
v 68.74504 55.00000 752.20273
v 102.72942 55.00000 735.91366
v 70.31250 55.00000 668.28125
v 36.32812 55.00000 684.57031
v 36.32812 -55.00000 684.57031
v 36.32812 55.00000 684.57031
v 70.31250 55.00000 668.28125
v 70.31250 -55.00000 668.28125
v 70.31250 -55.00000 668.28125
v 70.31250 55.00000 668.28125
v 102.72942 55.00000 735.91366
v 102.72942 -55.00000 735.91366
v 102.72942 -55.00000 735.91366
v 102.72942 55.00000 735.91366
v 68.74504 55.00000 752.20273
v 68.74504 -55.00000 752.20273
v 68.74504 -55.00000 752.20273
v 68.74504 55.00000 752.20273
v 36.32812 55.00000 684.57031
v 36.32812 -55.00000 684.57031
v 70.31250 -55.00000 668.28125
v 101.95312 -55.00000 651.13281
v 137.69009 -55.00000 717.07119
v 106.04947 -55.00000 734.21962
v 106.04947 55.00000 734.21962
v 137.69009 55.00000 717.07119
v 101.95312 55.00000 651.13281
v 70.31250 55.00000 668.28125
v 70.31250 -55.00000 668.28125
v 70.31250 55.00000 668.28125
v 101.95312 55.00000 651.13281
v 101.95312 -55.00000 651.13281
v 101.95312 -55.00000 651.13281
v 101.95312 55.00000 651.13281
v 137.69009 55.00000 717.07119
v 137.69009 -55.00000 717.07119
v 137.69009 -55.00000 717.07119
v 137.69009 55.00000 717.07119
v 106.04947 55.00000 734.21962
v 106.04947 -55.00000 734.21962
v 106.04947 -55.00000 734.21962
v 106.04947 55.00000 734.21962
v 70.31250 55.00000 668.28125
v 70.31250 -55.00000 668.28125
v 101.95312 -55.00000 651.13281
v 131.25000 -55.00000 633.12500
v 170.52403 -55.00000 697.01984
v 141.22715 -55.00000 715.02765
v 141.22715 55.00000 715.02765
v 170.52403 55.00000 697.01984
v 131.25000 55.00000 633.12500
v 101.95312 55.00000 651.13281
v 101.95312 -55.00000 651.13281
v 101.95312 55.00000 651.13281
v 131.25000 55.00000 633.12500
v 131.25000 -55.00000 633.12500
v 131.25000 -55.00000 633.12500
v 131.25000 55.00000 633.12500
v 170.52403 55.00000 697.01984
v 170.52403 -55.00000 697.01984
v 170.52403 -55.00000 697.01984
v 170.52403 55.00000 697.01984
v 141.22715 55.00000 715.02765
v 141.22715 -55.00000 715.02765
v 141.22715 -55.00000 715.02765
v 141.22715 55.00000 715.02765
v 101.95312 55.00000 651.13281
v 101.95312 -55.00000 651.13281
v 131.25000 -55.00000 633.12500
v 158.20312 -55.00000 614.25781
v 201.21280 -55.00000 675.70021
v 174.25968 -55.00000 694.56739
v 174.25968 55.00000 694.56739
v 201.21280 55.00000 675.70021
v 158.20312 55.00000 614.25781
v 131.25000 55.00000 633.12500
v 131.25000 -55.00000 633.12500
v 131.25000 55.00000 633.12500
v 158.20312 55.00000 614.25781
v 158.20312 -55.00000 614.25781
v 158.20312 -55.00000 614.25781
v 158.20312 55.00000 614.25781
v 201.21280 55.00000 675.70021
v 201.21280 -55.00000 675.70021
v 201.21280 -55.00000 675.70021
v 201.21280 55.00000 675.70021
v 174.25968 55.00000 694.56739
v 174.25968 -55.00000 694.56739
v 174.25968 -55.00000 694.56739
v 174.25968 55.00000 694.56739
v 131.25000 55.00000 633.12500
v 131.25000 -55.00000 633.12500
v 158.20312 -55.00000 614.25781
v 182.81250 -55.00000 594.53125
v 229.72125 -55.00000 653.05107
v 205.11187 -55.00000 672.77763
v 205.11187 55.00000 672.77763
v 229.72125 55.00000 653.05107
v 182.81250 55.00000 594.53125
v 158.20312 55.00000 614.25781
v 158.20312 -55.00000 614.25781
v 158.20312 55.00000 614.25781
v 182.81250 55.00000 594.53125
v 182.81250 -55.00000 594.53125
v 182.81250 -55.00000 594.53125
v 182.81250 55.00000 594.53125
v 229.72125 55.00000 653.05107
v 229.72125 -55.00000 653.05107
v 229.72125 -55.00000 653.05107
v 229.72125 55.00000 653.05107
v 205.11187 55.00000 672.77763
v 205.11187 -55.00000 672.77763
v 205.11187 -55.00000 672.77763
v 205.11187 55.00000 672.77763
v 158.20312 55.00000 614.25781
v 158.20312 -55.00000 614.25781
v 182.81250 -55.00000 594.53125
v 205.07812 -55.00000 573.94531
v 255.99326 -55.00000 629.01481
v 233.72763 -55.00000 649.60075
v 233.72763 55.00000 649.60075
v 255.99326 55.00000 629.01481
v 205.07812 55.00000 573.94531
v 182.81250 55.00000 594.53125
v 182.81250 -55.00000 594.53125
v 182.81250 55.00000 594.53125
v 205.07812 55.00000 573.94531
v 205.07812 -55.00000 573.94531
v 205.07812 -55.00000 573.94531
v 205.07812 55.00000 573.94531
v 255.99326 55.00000 629.01481
v 255.99326 -55.00000 629.01481
v 255.99326 -55.00000 629.01481
v 255.99326 55.00000 629.01481
v 233.72763 55.00000 649.60075
v 233.72763 -55.00000 649.60075
v 233.72763 -55.00000 649.60075
v 233.72763 55.00000 649.60075
v 182.81250 55.00000 594.53125
v 182.81250 -55.00000 594.53125
v 205.07812 -55.00000 573.94531
v 225.00000 -55.00000 552.50000
v 279.94882 -55.00000 603.54535
v 260.02694 -55.00000 624.99066
v 260.02694 55.00000 624.99066
v 279.94882 55.00000 603.54535
v 225.00000 55.00000 552.50000
v 205.07812 55.00000 573.94531
v 205.07812 -55.00000 573.94531
v 205.07812 55.00000 573.94531
v 225.00000 55.00000 552.50000
v 225.00000 -55.00000 552.50000
v 225.00000 -55.00000 552.50000
v 225.00000 55.00000 552.50000
v 279.94882 55.00000 603.54535
v 279.94882 -55.00000 603.54535
v 279.94882 -55.00000 603.54535
v 279.94882 55.00000 603.54535
v 260.02694 55.00000 624.99066
v 260.02694 -55.00000 624.99066
v 260.02694 -55.00000 624.99066
v 260.02694 55.00000 624.99066
v 205.07812 55.00000 573.94531
v 205.07812 -55.00000 573.94531
v 225.00000 -55.00000 552.50000
v 242.57812 -55.00000 530.19531
v 301.48392 -55.00000 576.61844
v 283.90580 -55.00000 598.92313
v 283.90580 55.00000 598.92313
v 301.48392 55.00000 576.61844
v 242.57812 55.00000 530.19531
v 225.00000 55.00000 552.50000
v 225.00000 -55.00000 552.50000
v 225.00000 55.00000 552.50000
v 242.57812 55.00000 530.19531
v 242.57812 -55.00000 530.19531
v 242.57812 -55.00000 530.19531
v 242.57812 55.00000 530.19531
v 301.48392 55.00000 576.61844
v 301.48392 -55.00000 576.61844
v 301.48392 -55.00000 576.61844
v 301.48392 55.00000 576.61844
v 283.90580 55.00000 598.92313
v 283.90580 -55.00000 598.92313
v 283.90580 -55.00000 598.92313
v 283.90580 55.00000 598.92313
v 225.00000 55.00000 552.50000
v 225.00000 -55.00000 552.50000
v 242.57812 -55.00000 530.19531
v 257.81250 -55.00000 507.03125
v 320.47516 -55.00000 548.24278
v 305.24079 -55.00000 571.40685
v 305.24079 55.00000 571.40685
v 320.47516 55.00000 548.24278
v 257.81250 55.00000 507.03125
v 242.57812 55.00000 530.19531
v 242.57812 -55.00000 530.19531
v 242.57812 55.00000 530.19531
v 257.81250 55.00000 507.03125
v 257.81250 -55.00000 507.03125
v 257.81250 -55.00000 507.03125
v 257.81250 55.00000 507.03125
v 320.47516 55.00000 548.24278
v 320.47516 -55.00000 548.24278
v 320.47516 -55.00000 548.24278
v 320.47516 55.00000 548.24278
v 305.24079 55.00000 571.40685
v 305.24079 -55.00000 571.40685
v 305.24079 -55.00000 571.40685
v 305.24079 55.00000 571.40685
v 242.57812 55.00000 530.19531
v 242.57812 -55.00000 530.19531
v 257.81250 -55.00000 507.03125
v 270.70312 -55.00000 483.00781
v 336.79015 -55.00000 518.46914
v 323.89952 -55.00000 542.49258
v 323.89952 55.00000 542.49258
v 336.79015 55.00000 518.46914
v 270.70312 55.00000 483.00781
v 257.81250 55.00000 507.03125
v 257.81250 -55.00000 507.03125
v 257.81250 55.00000 507.03125
v 270.70312 55.00000 483.00781
v 270.70312 -55.00000 483.00781
v 270.70312 -55.00000 483.00781
v 270.70312 55.00000 483.00781
v 336.79015 55.00000 518.46914
v 336.79015 -55.00000 518.46914
v 336.79015 -55.00000 518.46914
v 336.79015 55.00000 518.46914
v 323.89952 55.00000 542.49258
v 323.89952 -55.00000 542.49258
v 323.89952 -55.00000 542.49258
v 323.89952 55.00000 542.49258
v 257.81250 55.00000 507.03125
v 257.81250 -55.00000 507.03125
v 270.70312 -55.00000 483.00781
v 281.25000 -55.00000 458.12500
v 350.30308 -55.00000 487.39397
v 339.75620 -55.00000 512.27678
v 339.75620 55.00000 512.27678
v 350.30308 55.00000 487.39397
v 281.25000 55.00000 458.12500
v 270.70312 55.00000 483.00781
v 270.70312 -55.00000 483.00781
v 270.70312 55.00000 483.00781
v 281.25000 55.00000 458.12500
v 281.25000 -55.00000 458.12500
v 281.25000 -55.00000 458.12500
v 281.25000 55.00000 458.12500
v 350.30308 55.00000 487.39397
v 350.30308 -55.00000 487.39397
v 350.30308 -55.00000 487.39397
v 350.30308 55.00000 487.39397
v 339.75620 55.00000 512.27678
v 339.75620 -55.00000 512.27678
v 339.75620 -55.00000 512.27678
v 339.75620 55.00000 512.27678
v 270.70312 55.00000 483.00781
v 270.70312 -55.00000 483.00781
v 281.25000 -55.00000 458.12500
v 289.45312 -55.00000 432.38281
v 360.91258 -55.00000 455.15442
v 352.70946 -55.00000 480.89660
v 352.70946 55.00000 480.89660
v 360.91258 55.00000 455.15442
v 289.45312 55.00000 432.38281
v 281.25000 55.00000 458.12500
v 281.25000 -55.00000 458.12500
v 281.25000 55.00000 458.12500
v 289.45312 55.00000 432.38281
v 289.45312 -55.00000 432.38281
v 289.45312 -55.00000 432.38281
v 289.45312 55.00000 432.38281
v 360.91258 55.00000 455.15442
v 360.91258 -55.00000 455.15442
v 360.91258 -55.00000 455.15442
v 360.91258 55.00000 455.15442
v 352.70946 55.00000 480.89660
v 352.70946 -55.00000 480.89660
v 352.70946 -55.00000 480.89660
v 352.70946 55.00000 480.89660
v 281.25000 55.00000 458.12500
v 281.25000 -55.00000 458.12500
v 289.45312 -55.00000 432.38281
v 295.31250 -55.00000 405.78125
v 368.55677 -55.00000 421.91435
v 362.69740 -55.00000 448.51591
v 362.69740 55.00000 448.51591
v 368.55677 55.00000 421.91435
v 295.31250 55.00000 405.78125
v 289.45312 55.00000 432.38281
v 289.45312 -55.00000 432.38281
v 289.45312 55.00000 432.38281
v 295.31250 55.00000 405.78125
v 295.31250 -55.00000 405.78125
v 295.31250 -55.00000 405.78125
v 295.31250 55.00000 405.78125
v 368.55677 55.00000 421.91435
v 368.55677 -55.00000 421.91435
v 368.55677 -55.00000 421.91435
v 368.55677 55.00000 421.91435
v 362.69740 55.00000 448.51591
v 362.69740 -55.00000 448.51591
v 362.69740 -55.00000 448.51591
v 362.69740 55.00000 448.51591
v 289.45312 55.00000 432.38281
v 289.45312 -55.00000 432.38281
v 295.31250 -55.00000 405.78125
v 298.82812 -55.00000 378.32031
v 373.22096 -55.00000 387.84429
v 369.70533 -55.00000 415.30523
v 369.70533 55.00000 415.30523
v 373.22096 55.00000 387.84429
v 298.82812 55.00000 378.32031
v 295.31250 55.00000 405.78125
v 295.31250 -55.00000 405.78125
v 295.31250 55.00000 405.78125
v 298.82812 55.00000 378.32031
v 298.82812 -55.00000 378.32031
v 298.82812 -55.00000 378.32031
v 298.82812 55.00000 378.32031
v 373.22096 55.00000 387.84429
v 373.22096 -55.00000 387.84429
v 373.22096 -55.00000 387.84429
v 373.22096 55.00000 387.84429
v 369.70533 55.00000 415.30523
v 369.70533 -55.00000 415.30523
v 369.70533 -55.00000 415.30523
v 369.70533 55.00000 415.30523
v 295.31250 55.00000 405.78125
v 295.31250 -55.00000 405.78125
v 298.82812 -55.00000 378.32031
v 300.00000 -55.00000 350.00000
v 374.93587 -55.00000 353.10079
v 373.76400 -55.00000 381.42111
v 373.76400 55.00000 381.42111
v 374.93587 55.00000 353.10079
v 300.00000 55.00000 350.00000
v 298.82812 55.00000 378.32031
v 298.82812 -55.00000 378.32031
v 298.82812 55.00000 378.32031
v 300.00000 55.00000 350.00000
v 300.00000 -55.00000 350.00000
v 300.00000 -55.00000 350.00000
v 300.00000 55.00000 350.00000
v 374.93587 55.00000 353.10079
v 374.93587 -55.00000 353.10079
v 374.93587 -55.00000 353.10079
v 374.93587 55.00000 353.10079
v 373.76400 55.00000 381.42111
v 373.76400 -55.00000 381.42111
v 373.76400 -55.00000 381.42111
v 373.76400 55.00000 381.42111
v 298.82812 55.00000 378.32031
v 298.82812 -55.00000 378.32031
vt 0.00000 0.00000
vt 1.00000 0.00000
vt 1.00000 1.00000
vt 0.00000 1.00000
vt 0.00000 0.00000
vt 1.00000 0.00000
vt 1.00000 1.00000
vt 0.00000 1.00000
vt 0.00000 0.00000
vt 1.00000 0.00000
vt 1.00000 1.00000
vt 0.00000 1.00000
vt 0.00000 0.00000
vt 1.00000 0.00000
vt 1.00000 1.00000
vt 0.00000 1.00000
vt 0.00000 0.00000
vt 1.00000 0.00000
vt 1.00000 1.00000
vt 0.00000 1.00000
vt 0.00000 0.00000
vt 1.00000 0.00000
vt 1.00000 1.00000
vt 0.00000 1.00000
vt 0.00000 0.00000
vt 1.00000 0.00000
vt 1.00000 1.00000
vt 0.00000 1.00000
vt 0.00000 0.00000
vt 1.00000 0.00000
vt 1.00000 1.00000
vt 0.00000 1.00000
vt 0.00000 0.00000
vt 1.00000 0.00000
vt 1.00000 1.00000
vt 0.00000 1.00000
vt 0.00000 0.00000
vt 1.00000 0.00000
vt 1.00000 1.00000
vt 0.00000 1.00000
vt 0.00000 0.00000
vt 1.00000 0.00000
vt 1.00000 1.00000
vt 0.00000 1.00000
vt 0.00000 0.00000
vt 1.00000 0.00000
vt 1.00000 1.00000
vt 0.00000 1.00000
vt 0.00000 0.00000
vt 1.00000 0.00000
vt 1.00000 1.00000
vt 0.00000 1.00000
vt 0.00000 0.00000
vt 1.00000 0.00000
vt 1.00000 1.00000
vt 0.00000 1.00000
vt 0.00000 0.00000
vt 1.00000 0.00000
vt 1.00000 1.00000
vt 0.00000 1.00000
vt 0.00000 0.00000
vt 1.00000 0.00000
vt 1.00000 1.00000
vt 0.00000 1.00000
vt 0.00000 0.00000
vt 1.00000 0.00000
vt 1.00000 1.00000
vt 0.00000 1.00000
vt 0.00000 0.00000
vt 1.00000 0.00000
vt 1.00000 1.00000
vt 0.00000 1.00000
vt 0.00000 0.00000
vt 1.00000 0.00000
vt 1.00000 1.00000
vt 0.00000 1.00000
vt 0.00000 0.00000
vt 1.00000 0.00000
vt 1.00000 1.00000
vt 0.00000 1.00000
vt 0.00000 0.00000
vt 1.00000 0.00000
vt 1.00000 1.00000
vt 0.00000 1.00000
vt 0.00000 0.00000
vt 1.00000 0.00000
vt 1.00000 1.00000
vt 0.00000 1.00000
vt 0.00000 0.00000
vt 1.00000 0.00000
vt 1.00000 1.00000
vt 0.00000 1.00000
vt 0.00000 0.00000
vt 1.00000 0.00000
vt 1.00000 1.00000
vt 0.00000 1.00000
vt 0.00000 0.00000
vt 1.00000 0.00000
vt 1.00000 1.00000
vt 0.00000 1.00000
vt 0.00000 0.00000
vt 1.00000 0.00000
vt 1.00000 1.00000
vt 0.00000 1.00000
vt 0.00000 0.00000
vt 1.00000 0.00000
vt 1.00000 1.00000
vt 0.00000 1.00000
vt 0.00000 0.00000
vt 1.00000 0.00000
vt 1.00000 1.00000
vt 0.00000 1.00000
vt 0.00000 0.00000
vt 1.00000 0.00000
vt 1.00000 1.00000
vt 0.00000 1.00000
vt 0.00000 0.00000
vt 1.00000 0.00000
vt 1.00000 1.00000
vt 0.00000 1.00000
vt 0.00000 0.00000
vt 1.00000 0.00000
vt 1.00000 1.00000
vt 0.00000 1.00000
vt 0.00000 0.00000
vt 1.00000 0.00000
vt 1.00000 1.00000
vt 0.00000 1.00000
vt 0.00000 0.00000
vt 1.00000 0.00000
vt 1.00000 1.00000
vt 0.00000 1.00000
vt 0.00000 0.00000
vt 1.00000 0.00000
vt 1.00000 1.00000
vt 0.00000 1.00000
vt 0.00000 0.00000
vt 1.00000 0.00000
vt 1.00000 1.00000
vt 0.00000 1.00000
vt 0.00000 0.00000
vt 1.00000 0.00000
vt 1.00000 1.00000
vt 0.00000 1.00000
vt 0.00000 0.00000
vt 1.00000 0.00000
vt 1.00000 1.00000
vt 0.00000 1.00000
vt 0.00000 0.00000
vt 1.00000 0.00000
vt 1.00000 1.00000
vt 0.00000 1.00000
vt 0.00000 0.00000
vt 1.00000 0.00000
vt 1.00000 1.00000
vt 0.00000 1.00000
vt 0.00000 0.00000
vt 1.00000 0.00000
vt 1.00000 1.00000
vt 0.00000 1.00000
vt 0.00000 0.00000
vt 1.00000 0.00000
vt 1.00000 1.00000
vt 0.00000 1.00000
vt 0.00000 0.00000
vt 1.00000 0.00000
vt 1.00000 1.00000
vt 0.00000 1.00000
vt 0.00000 0.00000
vt 1.00000 0.00000
vt 1.00000 1.00000
vt 0.00000 1.00000
vt 0.00000 0.00000
vt 1.00000 0.00000
vt 1.00000 1.00000
vt 0.00000 1.00000
vt 0.00000 0.00000
vt 1.00000 0.00000
vt 1.00000 1.00000
vt 0.00000 1.00000
vt 0.00000 0.00000
vt 1.00000 0.00000
vt 1.00000 1.00000
vt 0.00000 1.00000
vt 0.00000 0.00000
vt 1.00000 0.00000
vt 1.00000 1.00000
vt 0.00000 1.00000
vt 0.00000 0.00000
vt 1.00000 0.00000
vt 1.00000 1.00000
vt 0.00000 1.00000
vt 0.00000 0.00000
vt 1.00000 0.00000
vt 1.00000 1.00000
vt 0.00000 1.00000
vt 0.00000 0.00000
vt 1.00000 0.00000
vt 1.00000 1.00000
vt 0.00000 1.00000
vt 0.00000 0.00000
vt 1.00000 0.00000
vt 1.00000 1.00000
vt 0.00000 1.00000
vt 0.00000 0.00000
vt 1.00000 0.00000
vt 1.00000 1.00000
vt 0.00000 1.00000
vt 0.00000 0.00000
vt 1.00000 0.00000
vt 1.00000 1.00000
vt 0.00000 1.00000
vt 0.00000 0.00000
vt 1.00000 0.00000
vt 1.00000 1.00000
vt 0.00000 1.00000
vt 0.00000 0.00000
vt 1.00000 0.00000
vt 1.00000 1.00000
vt 0.00000 1.00000
vt 0.00000 0.00000
vt 1.00000 0.00000
vt 1.00000 1.00000
vt 0.00000 1.00000
vt 0.00000 0.00000
vt 1.00000 0.00000
vt 1.00000 1.00000
vt 0.00000 1.00000
vt 0.00000 0.00000
vt 1.00000 0.00000
vt 1.00000 1.00000
vt 0.00000 1.00000
vt 0.00000 0.00000
vt 1.00000 0.00000
vt 1.00000 1.00000
vt 0.00000 1.00000
vt 0.00000 0.00000
vt 1.00000 0.00000
vt 1.00000 1.00000
vt 0.00000 1.00000
vt 0.00000 0.00000
vt 1.00000 0.00000
vt 1.00000 1.00000
vt 0.00000 1.00000
vt 0.00000 0.00000
vt 1.00000 0.00000
vt 1.00000 1.00000
vt 0.00000 1.00000
vt 0.00000 0.00000
vt 1.00000 0.00000
vt 1.00000 1.00000
vt 0.00000 1.00000
vt 0.00000 0.00000
vt 1.00000 0.00000
vt 1.00000 1.00000
vt 0.00000 1.00000
vt 0.00000 0.00000
vt 1.00000 0.00000
vt 1.00000 1.00000
vt 0.00000 1.00000
vt 0.00000 0.00000
vt 1.00000 0.00000
vt 1.00000 1.00000
vt 0.00000 1.00000
vt 0.00000 0.00000
vt 1.00000 0.00000
vt 1.00000 1.00000
vt 0.00000 1.00000
vt 0.00000 0.00000
vt 1.00000 0.00000
vt 1.00000 1.00000
vt 0.00000 1.00000
vt 0.00000 0.00000
vt 1.00000 0.00000
vt 1.00000 1.00000
vt 0.00000 1.00000
vt 0.00000 0.00000
vt 1.00000 0.00000
vt 1.00000 1.00000
vt 0.00000 1.00000
vt 0.00000 0.00000
vt 1.00000 0.00000
vt 1.00000 1.00000
vt 0.00000 1.00000
vt 0.00000 0.00000
vt 1.00000 0.00000
vt 1.00000 1.00000
vt 0.00000 1.00000
vt 0.00000 0.00000
vt 1.00000 0.00000
vt 1.00000 1.00000
vt 0.00000 1.00000
vt 0.00000 0.00000
vt 1.00000 0.00000
vt 1.00000 1.00000
vt 0.00000 1.00000
vt 0.00000 0.00000
vt 1.00000 0.00000
vt 1.00000 1.00000
vt 0.00000 1.00000
vt 0.00000 0.00000
vt 1.00000 0.00000
vt 1.00000 1.00000
vt 0.00000 1.00000
vt 0.00000 0.00000
vt 1.00000 0.00000
vt 1.00000 1.00000
vt 0.00000 1.00000
vt 0.00000 0.00000
vt 1.00000 0.00000
vt 1.00000 1.00000
vt 0.00000 1.00000
vt 0.00000 0.00000
vt 1.00000 0.00000
vt 1.00000 1.00000
vt 0.00000 1.00000
vt 0.00000 0.00000
vt 1.00000 0.00000
vt 1.00000 1.00000
vt 0.00000 1.00000
vt 0.00000 0.00000
vt 1.00000 0.00000
vt 1.00000 1.00000
vt 0.00000 1.00000
vt 0.00000 0.00000
vt 1.00000 0.00000
vt 1.00000 1.00000
vt 0.00000 1.00000
vt 0.00000 0.00000
vt 1.00000 0.00000
vt 1.00000 1.00000
vt 0.00000 1.00000
vt 0.00000 0.00000
vt 1.00000 0.00000
vt 1.00000 1.00000
vt 0.00000 1.00000
vt 0.00000 0.00000
vt 1.00000 0.00000
vt 1.00000 1.00000
vt 0.00000 1.00000
vt 0.00000 0.00000
vt 1.00000 0.00000
vt 1.00000 1.00000
vt 0.00000 1.00000
vt 0.00000 0.00000
vt 1.00000 0.00000
vt 1.00000 1.00000
vt 0.00000 1.00000
vt 0.00000 0.00000
vt 1.00000 0.00000
vt 1.00000 1.00000
vt 0.00000 1.00000
vt 0.00000 0.00000
vt 1.00000 0.00000
vt 1.00000 1.00000
vt 0.00000 1.00000
vt 0.00000 0.00000
vt 1.00000 0.00000
vt 1.00000 1.00000
vt 0.00000 1.00000
vt 0.00000 0.00000
vt 1.00000 0.00000
vt 1.00000 1.00000
vt 0.00000 1.00000
vt 0.00000 0.00000
vt 1.00000 0.00000
vt 1.00000 1.00000
vt 0.00000 1.00000
vt 0.00000 0.00000
vt 1.00000 0.00000
vt 1.00000 1.00000
vt 0.00000 1.00000
vt 0.00000 0.00000
vt 1.00000 0.00000
vt 1.00000 1.00000
vt 0.00000 1.00000
vt 0.00000 0.00000
vt 1.00000 0.00000
vt 1.00000 1.00000
vt 0.00000 1.00000
vt 0.00000 0.00000
vt 1.00000 0.00000
vt 1.00000 1.00000
vt 0.00000 1.00000
vt 0.00000 0.00000
vt 1.00000 0.00000
vt 1.00000 1.00000
vt 0.00000 1.00000
vt 0.00000 0.00000
vt 1.00000 0.00000
vt 1.00000 1.00000
vt 0.00000 1.00000
vt 0.00000 0.00000
vt 1.00000 0.00000
vt 1.00000 1.00000
vt 0.00000 1.00000
vt 0.00000 0.00000
vt 1.00000 0.00000
vt 1.00000 1.00000
vt 0.00000 1.00000
vt 0.00000 0.00000
vt 1.00000 0.00000
vt 1.00000 1.00000
vt 0.00000 1.00000
vt 0.00000 0.00000
vt 1.00000 0.00000
vt 1.00000 1.00000
vt 0.00000 1.00000
vt 0.00000 0.00000
vt 1.00000 0.00000
vt 1.00000 1.00000
vt 0.00000 1.00000
vt 0.00000 0.00000
vt 1.00000 0.00000
vt 1.00000 1.00000
vt 0.00000 1.00000
vt 0.00000 0.00000
vt 1.00000 0.00000
vt 1.00000 1.00000
vt 0.00000 1.00000
vt 0.00000 0.00000
vt 1.00000 0.00000
vt 1.00000 1.00000
vt 0.00000 1.00000
vt 0.00000 0.00000
vt 1.00000 0.00000
vt 1.00000 1.00000
vt 0.00000 1.00000
vt 0.00000 0.00000
vt 1.00000 0.00000
vt 1.00000 1.00000
vt 0.00000 1.00000
vt 0.00000 0.00000
vt 1.00000 0.00000
vt 1.00000 1.00000
vt 0.00000 1.00000
vt 0.00000 0.00000
vt 1.00000 0.00000
vt 1.00000 1.00000
vt 0.00000 1.00000
vt 0.00000 0.00000
vt 1.00000 0.00000
vt 1.00000 1.00000
vt 0.00000 1.00000
vt 0.00000 0.00000
vt 1.00000 0.00000
vt 1.00000 1.00000
vt 0.00000 1.00000
vt 0.00000 0.00000
vt 1.00000 0.00000
vt 1.00000 1.00000
vt 0.00000 1.00000
vt 0.00000 0.00000
vt 1.00000 0.00000
vt 1.00000 1.00000
vt 0.00000 1.00000
vt 0.00000 0.00000
vt 1.00000 0.00000
vt 1.00000 1.00000
vt 0.00000 1.00000
vt 0.00000 0.00000
vt 1.00000 0.00000
vt 1.00000 1.00000
vt 0.00000 1.00000
vt 0.00000 0.00000
vt 1.00000 0.00000
vt 1.00000 1.00000
vt 0.00000 1.00000
vt 0.00000 0.00000
vt 1.00000 0.00000
vt 1.00000 1.00000
vt 0.00000 1.00000
vt 0.00000 0.00000
vt 1.00000 0.00000
vt 1.00000 1.00000
vt 0.00000 1.00000
vt 0.00000 0.00000
vt 1.00000 0.00000
vt 1.00000 1.00000
vt 0.00000 1.00000
vt 0.00000 0.00000
vt 1.00000 0.00000
vt 1.00000 1.00000
vt 0.00000 1.00000
vt 0.00000 0.00000
vt 1.00000 0.00000
vt 1.00000 1.00000
vt 0.00000 1.00000
vt 0.00000 0.00000
vt 1.00000 0.00000
vt 1.00000 1.00000
vt 0.00000 1.00000
vt 0.00000 0.00000
vt 1.00000 0.00000
vt 1.00000 1.00000
vt 0.00000 1.00000
vt 0.00000 0.00000
vt 1.00000 0.00000
vt 1.00000 1.00000
vt 0.00000 1.00000
vt 0.00000 0.00000
vt 1.00000 0.00000
vt 1.00000 1.00000
vt 0.00000 1.00000
vt 0.00000 0.00000
vt 1.00000 0.00000
vt 1.00000 1.00000
vt 0.00000 1.00000
vt 0.00000 0.00000
vt 1.00000 0.00000
vt 1.00000 1.00000
vt 0.00000 1.00000
vt 0.00000 0.00000
vt 1.00000 0.00000
vt 1.00000 1.00000
vt 0.00000 1.00000
vt 0.00000 0.00000
vt 1.00000 0.00000
vt 1.00000 1.00000
vt 0.00000 1.00000
vt 0.00000 0.00000
vt 1.00000 0.00000
vt 1.00000 1.00000
vt 0.00000 1.00000
vt 0.00000 0.00000
vt 1.00000 0.00000
vt 1.00000 1.00000
vt 0.00000 1.00000
vt 0.00000 0.00000
vt 1.00000 0.00000
vt 1.00000 1.00000
vt 0.00000 1.00000
vt 0.00000 0.00000
vt 1.00000 0.00000
vt 1.00000 1.00000
vt 0.00000 1.00000
vt 0.00000 0.00000
vt 1.00000 0.00000
vt 1.00000 1.00000
vt 0.00000 1.00000
vt 0.00000 0.00000
vt 1.00000 0.00000
vt 1.00000 1.00000
vt 0.00000 1.00000
vt 0.00000 0.00000
vt 1.00000 0.00000
vt 1.00000 1.00000
vt 0.00000 1.00000
vt 0.00000 0.00000
vt 1.00000 0.00000
vt 1.00000 1.00000
vt 0.00000 1.00000
vt 0.00000 0.00000
vt 1.00000 0.00000
vt 1.00000 1.00000
vt 0.00000 1.00000
vt 0.00000 0.00000
vt 1.00000 0.00000
vt 1.00000 1.00000
vt 0.00000 1.00000
vt 0.00000 0.00000
vt 1.00000 0.00000
vt 1.00000 1.00000
vt 0.00000 1.00000
vt 0.00000 0.00000
vt 1.00000 0.00000
vt 1.00000 1.00000
vt 0.00000 1.00000
vt 0.00000 0.00000
vt 1.00000 0.00000
vt 1.00000 1.00000
vt 0.00000 1.00000
vt 0.00000 0.00000
vt 1.00000 0.00000
vt 1.00000 1.00000
vt 0.00000 1.00000
vt 0.00000 0.00000
vt 1.00000 0.00000
vt 1.00000 1.00000
vt 0.00000 1.00000
vt 0.00000 0.00000
vt 1.00000 0.00000
vt 1.00000 1.00000
vt 0.00000 1.00000
vt 0.00000 0.00000
vt 1.00000 0.00000
vt 1.00000 1.00000
vt 0.00000 1.00000
vt 0.00000 0.00000
vt 1.00000 0.00000
vt 1.00000 1.00000
vt 0.00000 1.00000
vt 0.00000 0.00000
vt 1.00000 0.00000
vt 1.00000 1.00000
vt 0.00000 1.00000
vt 0.00000 0.00000
vt 1.00000 0.00000
vt 1.00000 1.00000
vt 0.00000 1.00000
vt 0.00000 0.00000
vt 1.00000 0.00000
vt 1.00000 1.00000
vt 0.00000 1.00000
vt 0.00000 0.00000
vt 1.00000 0.00000
vt 1.00000 1.00000
vt 0.00000 1.00000
vt 0.00000 0.00000
vt 1.00000 0.00000
vt 1.00000 1.00000
vt 0.00000 1.00000
vt 0.00000 0.00000
vt 1.00000 0.00000
vt 1.00000 1.00000
vt 0.00000 1.00000
vt 0.00000 0.00000
vt 1.00000 0.00000
vt 1.00000 1.00000
vt 0.00000 1.00000
vt 0.00000 0.00000
vt 1.00000 0.00000
vt 1.00000 1.00000
vt 0.00000 1.00000
vt 0.00000 0.00000
vt 1.00000 0.00000
vt 1.00000 1.00000
vt 0.00000 1.00000
vt 0.00000 0.00000
vt 1.00000 0.00000
vt 1.00000 1.00000
vt 0.00000 1.00000
vt 0.00000 0.00000
vt 1.00000 0.00000
vt 1.00000 1.00000
vt 0.00000 1.00000
vt 0.00000 0.00000
vt 1.00000 0.00000
vt 1.00000 1.00000
vt 0.00000 1.00000
vt 0.00000 0.00000
vt 1.00000 0.00000
vt 1.00000 1.00000
vt 0.00000 1.00000
vt 0.00000 0.00000
vt 1.00000 0.00000
vt 1.00000 1.00000
vt 0.00000 1.00000
vt 0.00000 0.00000
vt 1.00000 0.00000
vt 1.00000 1.00000
vt 0.00000 1.00000
vt 0.00000 0.00000
vt 1.00000 0.00000
vt 1.00000 1.00000
vt 0.00000 1.00000
vt 0.00000 0.00000
vt 1.00000 0.00000
vt 1.00000 1.00000
vt 0.00000 1.00000
vt 0.00000 0.00000
vt 1.00000 0.00000
vt 1.00000 1.00000
vt 0.00000 1.00000
vt 0.00000 0.00000
vt 1.00000 0.00000
vt 1.00000 1.00000
vt 0.00000 1.00000
vt 0.00000 0.00000
vt 1.00000 0.00000
vt 1.00000 1.00000
vt 0.00000 1.00000
vt 0.00000 0.00000
vt 1.00000 0.00000
vt 1.00000 1.00000
vt 0.00000 1.00000
vt 0.00000 0.00000
vt 1.00000 0.00000
vt 1.00000 1.00000
vt 0.00000 1.00000
vt 0.00000 0.00000
vt 1.00000 0.00000
vt 1.00000 1.00000
vt 0.00000 1.00000
vt 0.00000 0.00000
vt 1.00000 0.00000
vt 1.00000 1.00000
vt 0.00000 1.00000
vt 0.00000 0.00000
vt 1.00000 0.00000
vt 1.00000 1.00000
vt 0.00000 1.00000
vt 0.00000 0.00000
vt 1.00000 0.00000
vt 1.00000 1.00000
vt 0.00000 1.00000
vt 0.00000 0.00000
vt 1.00000 0.00000
vt 1.00000 1.00000
vt 0.00000 1.00000
vt 0.00000 0.00000
vt 1.00000 0.00000
vt 1.00000 1.00000
vt 0.00000 1.00000
vt 0.00000 0.00000
vt 1.00000 0.00000
vt 1.00000 1.00000
vt 0.00000 1.00000
vt 0.00000 0.00000
vt 1.00000 0.00000
vt 1.00000 1.00000
vt 0.00000 1.00000
vt 0.00000 0.00000
vt 1.00000 0.00000
vt 1.00000 1.00000
vt 0.00000 1.00000
vt 0.00000 0.00000
vt 1.00000 0.00000
vt 1.00000 1.00000
vt 0.00000 1.00000
vt 0.00000 0.00000
vt 1.00000 0.00000
vt 1.00000 1.00000
vt 0.00000 1.00000
vt 0.00000 0.00000
vt 1.00000 0.00000
vt 1.00000 1.00000
vt 0.00000 1.00000
vt 0.00000 0.00000
vt 1.00000 0.00000
vt 1.00000 1.00000
vt 0.00000 1.00000
vt 0.00000 0.00000
vt 1.00000 0.00000
vt 1.00000 1.00000
vt 0.00000 1.00000
vt 0.00000 0.00000
vt 1.00000 0.00000
vt 1.00000 1.00000
vt 0.00000 1.00000
vt 0.00000 0.00000
vt 1.00000 0.00000
vt 1.00000 1.00000
vt 0.00000 1.00000
vt 0.00000 0.00000
vt 1.00000 0.00000
vt 1.00000 1.00000
vt 0.00000 1.00000
vt 0.00000 0.00000
vt 1.00000 0.00000
vt 1.00000 1.00000
vt 0.00000 1.00000
vt 0.00000 0.00000
vt 1.00000 0.00000
vt 1.00000 1.00000
vt 0.00000 1.00000
vt 0.00000 0.00000
vt 1.00000 0.00000
vt 1.00000 1.00000
vt 0.00000 1.00000
vt 0.00000 0.00000
vt 1.00000 0.00000
vt 1.00000 1.00000
vt 0.00000 1.00000
vt 0.00000 0.00000
vt 1.00000 0.00000
vt 1.00000 1.00000
vt 0.00000 1.00000
vt 0.00000 0.00000
vt 1.00000 0.00000
vt 1.00000 1.00000
vt 0.00000 1.00000
vt 0.00000 0.00000
vt 1.00000 0.00000
vt 1.00000 1.00000
vt 0.00000 1.00000
vt 0.00000 0.00000
vt 1.00000 0.00000
vt 1.00000 1.00000
vt 0.00000 1.00000
vt 0.00000 0.00000
vt 1.00000 0.00000
vt 1.00000 1.00000
vt 0.00000 1.00000
vt 0.00000 0.00000
vt 1.00000 0.00000
vt 1.00000 1.00000
vt 0.00000 1.00000
vt 0.00000 0.00000
vt 1.00000 0.00000
vt 1.00000 1.00000
vt 0.00000 1.00000
vt 0.00000 0.00000
vt 1.00000 0.00000
vt 1.00000 1.00000
vt 0.00000 1.00000
vt 0.00000 0.00000
vt 1.00000 0.00000
vt 1.00000 1.00000
vt 0.00000 1.00000
vt 0.00000 0.00000
vt 1.00000 0.00000
vt 1.00000 1.00000
vt 0.00000 1.00000
vt 0.00000 0.00000
vt 1.00000 0.00000
vt 1.00000 1.00000
vt 0.00000 1.00000
vt 0.00000 0.00000
vt 1.00000 0.00000
vt 1.00000 1.00000
vt 0.00000 1.00000
vt 0.00000 0.00000
vt 1.00000 0.00000
vt 1.00000 1.00000
vt 0.00000 1.00000
f 1/1 2/2 3/3
f 1/1 3/3 4/4
f 5/5 6/6 7/7
f 5/5 7/7 8/8
f 9/9 10/10 11/11
f 9/9 11/11 12/12
f 13/13 14/14 15/15
f 13/13 15/15 16/16
f 17/17 18/18 19/19
f 17/17 19/19 20/20
f 21/21 22/22 23/23
f 21/21 23/23 24/24
f 25/25 26/26 27/27
f 25/25 27/27 28/28
f 29/29 30/30 31/31
f 29/29 31/31 32/32
f 33/33 34/34 35/35
f 33/33 35/35 36/36
f 37/37 38/38 39/39
f 37/37 39/39 40/40
f 41/41 42/42 43/43
f 41/41 43/43 44/44
f 45/45 46/46 47/47
f 45/45 47/47 48/48
f 49/49 50/50 51/51
f 49/49 51/51 52/52
f 53/53 54/54 55/55
f 53/53 55/55 56/56
f 57/57 58/58 59/59
f 57/57 59/59 60/60
f 61/61 62/62 63/63
f 61/61 63/63 64/64
f 65/65 66/66 67/67
f 65/65 67/67 68/68
f 69/69 70/70 71/71
f 69/69 71/71 72/72
f 73/73 74/74 75/75
f 73/73 75/75 76/76
f 77/77 78/78 79/79
f 77/77 79/79 80/80
f 81/81 82/82 83/83
f 81/81 83/83 84/84
f 85/85 86/86 87/87
f 85/85 87/87 88/88
f 89/89 90/90 91/91
f 89/89 91/91 92/92
f 93/93 94/94 95/95
f 93/93 95/95 96/96
f 97/97 98/98 99/99
f 97/97 99/99 100/100
f 101/101 102/102 103/103
f 101/101 103/103 104/104
f 105/105 106/106 107/107
f 105/105 107/107 108/108
f 109/109 110/110 111/111
f 109/109 111/111 112/112
f 113/113 114/114 115/115
f 113/113 115/115 116/116
f 117/117 118/118 119/119
f 117/117 119/119 120/120
f 121/121 122/122 123/123
f 121/121 123/123 124/124
f 125/125 126/126 127/127
f 125/125 127/127 128/128
f 129/129 130/130 131/131
f 129/129 131/131 132/132
f 133/133 134/134 135/135
f 133/133 135/135 136/136
f 137/137 138/138 139/139
f 137/137 139/139 140/140
f 141/141 142/142 143/143
f 141/141 143/143 144/144
f 145/145 146/146 147/147
f 145/145 147/147 148/148
f 149/149 150/150 151/151
f 149/149 151/151 152/152
f 153/153 154/154 155/155
f 153/153 155/155 156/156
f 157/157 158/158 159/159
f 157/157 159/159 160/160
f 161/161 162/162 163/163
f 161/161 163/163 164/164
f 165/165 166/166 167/167
f 165/165 167/167 168/168
f 169/169 170/170 171/171
f 169/169 171/171 172/172
f 173/173 174/174 175/175
f 173/173 175/175 176/176
f 177/177 178/178 179/179
f 177/177 179/179 180/180
f 181/181 182/182 183/183
f 181/181 183/183 184/184
f 185/185 186/186 187/187
f 185/185 187/187 188/188
f 189/189 190/190 191/191
f 189/189 191/191 192/192
f 193/193 194/194 195/195
f 193/193 195/195 196/196
f 197/197 198/198 199/199
f 197/197 199/199 200/200
f 201/201 202/202 203/203
f 201/201 203/203 204/204
f 205/205 206/206 207/207
f 205/205 207/207 208/208
f 209/209 210/210 211/211
f 209/209 211/211 212/212
f 213/213 214/214 215/215
f 213/213 215/215 216/216
f 217/217 218/218 219/219
f 217/217 219/219 220/220
f 221/221 222/222 223/223
f 221/221 223/223 224/224
f 225/225 226/226 227/227
f 225/225 227/227 228/228
f 229/229 230/230 231/231
f 229/229 231/231 232/232
f 233/233 234/234 235/235
f 233/233 235/235 236/236
f 237/237 238/238 239/239
f 237/237 239/239 240/240
f 241/241 242/242 243/243
f 241/241 243/243 244/244
f 245/245 246/246 247/247
f 245/245 247/247 248/248
f 249/249 250/250 251/251
f 249/249 251/251 252/252
f 253/253 254/254 255/255
f 253/253 255/255 256/256
f 257/257 258/258 259/259
f 257/257 259/259 260/260
f 261/261 262/262 263/263
f 261/261 263/263 264/264
f 265/265 266/266 267/267
f 265/265 267/267 268/268
f 269/269 270/270 271/271
f 269/269 271/271 272/272
f 273/273 274/274 275/275
f 273/273 275/275 276/276
f 277/277 278/278 279/279
f 277/277 279/279 280/280
f 281/281 282/282 283/283
f 281/281 283/283 284/284
f 285/285 286/286 287/287
f 285/285 287/287 288/288
f 289/289 290/290 291/291
f 289/289 291/291 292/292
f 293/293 294/294 295/295
f 293/293 295/295 296/296
f 297/297 298/298 299/299
f 297/297 299/299 300/300
f 301/301 302/302 303/303
f 301/301 303/303 304/304
f 305/305 306/306 307/307
f 305/305 307/307 308/308
f 309/309 310/310 311/311
f 309/309 311/311 312/312
f 313/313 314/314 315/315
f 313/313 315/315 316/316
f 317/317 318/318 319/319
f 317/317 319/319 320/320
f 321/321 322/322 323/323
f 321/321 323/323 324/324
f 325/325 326/326 327/327
f 325/325 327/327 328/328
f 329/329 330/330 331/331
f 329/329 331/331 332/332
f 333/333 334/334 335/335
f 333/333 335/335 336/336
f 337/337 338/338 339/339
f 337/337 339/339 340/340
f 341/341 342/342 343/343
f 341/341 343/343 344/344
f 345/345 346/346 347/347
f 345/345 347/347 348/348
f 349/349 350/350 351/351
f 349/349 351/351 352/352
f 353/353 354/354 355/355
f 353/353 355/355 356/356
f 357/357 358/358 359/359
f 357/357 359/359 360/360
f 361/361 362/362 363/363
f 361/361 363/363 364/364
f 365/365 366/366 367/367
f 365/365 367/367 368/368
f 369/369 370/370 371/371
f 369/369 371/371 372/372
f 373/373 374/374 375/375
f 373/373 375/375 376/376
f 377/377 378/378 379/379
f 377/377 379/379 380/380
f 381/381 382/382 383/383
f 381/381 383/383 384/384
f 385/385 386/386 387/387
f 385/385 387/387 388/388
f 389/389 390/390 391/391
f 389/389 391/391 392/392
f 393/393 394/394 395/395
f 393/393 395/395 396/396
f 397/397 398/398 399/399
f 397/397 399/399 400/400
f 401/401 402/402 403/403
f 401/401 403/403 404/404
f 405/405 406/406 407/407
f 405/405 407/407 408/408
f 409/409 410/410 411/411
f 409/409 411/411 412/412
f 413/413 414/414 415/415
f 413/413 415/415 416/416
f 417/417 418/418 419/419
f 417/417 419/419 420/420
f 421/421 422/422 423/423
f 421/421 423/423 424/424
f 425/425 426/426 427/427
f 425/425 427/427 428/428
f 429/429 430/430 431/431
f 429/429 431/431 432/432
f 433/433 434/434 435/435
f 433/433 435/435 436/436
f 437/437 438/438 439/439
f 437/437 439/439 440/440
f 441/441 442/442 443/443
f 441/441 443/443 444/444
f 445/445 446/446 447/447
f 445/445 447/447 448/448
f 449/449 450/450 451/451
f 449/449 451/451 452/452
f 453/453 454/454 455/455
f 453/453 455/455 456/456
f 457/457 458/458 459/459
f 457/457 459/459 460/460
f 461/461 462/462 463/463
f 461/461 463/463 464/464
f 465/465 466/466 467/467
f 465/465 467/467 468/468
f 469/469 470/470 471/471
f 469/469 471/471 472/472
f 473/473 474/474 475/475
f 473/473 475/475 476/476
f 477/477 478/478 479/479
f 477/477 479/479 480/480
f 481/481 482/482 483/483
f 481/481 483/483 484/484
f 485/485 486/486 487/487
f 485/485 487/487 488/488
f 489/489 490/490 491/491
f 489/489 491/491 492/492
f 493/493 494/494 495/495
f 493/493 495/495 496/496
f 497/497 498/498 499/499
f 497/497 499/499 500/500
f 501/501 502/502 503/503
f 501/501 503/503 504/504
f 505/505 506/506 507/507
f 505/505 507/507 508/508
f 509/509 510/510 511/511
f 509/509 511/511 512/512
f 513/513 514/514 515/515
f 513/513 515/515 516/516
f 517/517 518/518 519/519
f 517/517 519/519 520/520
f 521/521 522/522 523/523
f 521/521 523/523 524/524
f 525/525 526/526 527/527
f 525/525 527/527 528/528
f 529/529 530/530 531/531
f 529/529 531/531 532/532
f 533/533 534/534 535/535
f 533/533 535/535 536/536
f 537/537 538/538 539/539
f 537/537 539/539 540/540
f 541/541 542/542 543/543
f 541/541 543/543 544/544
f 545/545 546/546 547/547
f 545/545 547/547 548/548
f 549/549 550/550 551/551
f 549/549 551/551 552/552
f 553/553 554/554 555/555
f 553/553 555/555 556/556
f 557/557 558/558 559/559
f 557/557 559/559 560/560
f 561/561 562/562 563/563
f 561/561 563/563 564/564
f 565/565 566/566 567/567
f 565/565 567/567 568/568
f 569/569 570/570 571/571
f 569/569 571/571 572/572
f 573/573 574/574 575/575
f 573/573 575/575 576/576
f 577/577 578/578 579/579
f 577/577 579/579 580/580
f 581/581 582/582 583/583
f 581/581 583/583 584/584
f 585/585 586/586 587/587
f 585/585 587/587 588/588
f 589/589 590/590 591/591
f 589/589 591/591 592/592
f 593/593 594/594 595/595
f 593/593 595/595 596/596
f 597/597 598/598 599/599
f 597/597 599/599 600/600
f 601/601 602/602 603/603
f 601/601 603/603 604/604
f 605/605 606/606 607/607
f 605/605 607/607 608/608
f 609/609 610/610 611/611
f 609/609 611/611 612/612
f 613/613 614/614 615/615
f 613/613 615/615 616/616
f 617/617 618/618 619/619
f 617/617 619/619 620/620
f 621/621 622/622 623/623
f 621/621 623/623 624/624
f 625/625 626/626 627/627
f 625/625 627/627 628/628
f 629/629 630/630 631/631
f 629/629 631/631 632/632
f 633/633 634/634 635/635
f 633/633 635/635 636/636
f 637/637 638/638 639/639
f 637/637 639/639 640/640
f 641/641 642/642 643/643
f 641/641 643/643 644/644
f 645/645 646/646 647/647
f 645/645 647/647 648/648
f 649/649 650/650 651/651
f 649/649 651/651 652/652
f 653/653 654/654 655/655
f 653/653 655/655 656/656
f 657/657 658/658 659/659
f 657/657 659/659 660/660
f 661/661 662/662 663/663
f 661/661 663/663 664/664
f 665/665 666/666 667/667
f 665/665 667/667 668/668
f 669/669 670/670 671/671
f 669/669 671/671 672/672
f 673/673 674/674 675/675
f 673/673 675/675 676/676
f 677/677 678/678 679/679
f 677/677 679/679 680/680
f 681/681 682/682 683/683
f 681/681 683/683 684/684
f 685/685 686/686 687/687
f 685/685 687/687 688/688
f 689/689 690/690 691/691
f 689/689 691/691 692/692
f 693/693 694/694 695/695
f 693/693 695/695 696/696
f 697/697 698/698 699/699
f 697/697 699/699 700/700
f 701/701 702/702 703/703
f 701/701 703/703 704/704
f 705/705 706/706 707/707
f 705/705 707/707 708/708
f 709/709 710/710 711/711
f 709/709 711/711 712/712
f 713/713 714/714 715/715
f 713/713 715/715 716/716
f 717/717 718/718 719/719
f 717/717 719/719 720/720
f 721/721 722/722 723/723
f 721/721 723/723 724/724
f 725/725 726/726 727/727
f 725/725 727/727 728/728
f 729/729 730/730 731/731
f 729/729 731/731 732/732
f 733/733 734/734 735/735
f 733/733 735/735 736/736
f 737/737 738/738 739/739
f 737/737 739/739 740/740
f 741/741 742/742 743/743
f 741/741 743/743 744/744
f 745/745 746/746 747/747
f 745/745 747/747 748/748
f 749/749 750/750 751/751
f 749/749 751/751 752/752
f 753/753 754/754 755/755
f 753/753 755/755 756/756
f 757/757 758/758 759/759
f 757/757 759/759 760/760
f 761/761 762/762 763/763
f 761/761 763/763 764/764
f 765/765 766/766 767/767
f 765/765 767/767 768/768
f 769/769 770/770 771/771
f 769/769 771/771 772/772
f 773/773 774/774 775/775
f 773/773 775/775 776/776
f 777/777 778/778 779/779
f 777/777 779/779 780/780
f 781/781 782/782 783/783
f 781/781 783/783 784/784
f 785/785 786/786 787/787
f 785/785 787/787 788/788
f 789/789 790/790 791/791
f 789/789 791/791 792/792
f 793/793 794/794 795/795
f 793/793 795/795 796/796
f 797/797 798/798 799/799
f 797/797 799/799 800/800
f 801/801 802/802 803/803
f 801/801 803/803 804/804
f 805/805 806/806 807/807
f 805/805 807/807 808/808
f 809/809 810/810 811/811
f 809/809 811/811 812/812
f 813/813 814/814 815/815
f 813/813 815/815 816/816
